<?xml version="1.0" encoding="UTF-8" standalone="no"?><svg xmlns="http://www.w3.org/2000/svg" xmlns:xlink="http://www.w3.org/1999/xlink" contentStyleType="text/css" height="1642px" preserveAspectRatio="none" style="width:2396px;height:1642px;background:#FFFFFF;" version="1.1" viewBox="0 0 2396 1642" width="2396px" zoomAndPan="magnify"><defs/><g><rect fill="#FFFFFF" height="1449.7109" style="stroke:#181818;stroke-width:1.0;" width="10" x="59.5" y="92.6094"/><rect fill="#FFFFFF" height="30.3516" style="stroke:#181818;stroke-width:1.0;" width="10" x="666.5" y="114.9609"/><rect fill="#FFFFFF" height="1366.6563" style="stroke:#181818;stroke-width:1.0;" width="10" x="666.5" y="175.6641"/><rect fill="#FFFFFF" height="134.4063" style="stroke:#181818;stroke-width:1.0;" width="10" x="966.5" y="299.0703"/><rect fill="#FFFFFF" height="73.7031" style="stroke:#181818;stroke-width:1.0;" width="10" x="1266.5" y="329.4219"/><rect fill="#FFFFFF" height="466.8672" style="stroke:#181818;stroke-width:1.0;" width="10" x="1479.5" y="489.1797"/><rect fill="#FFFFFF" height="423.5156" style="stroke:#181818;stroke-width:1.0;" width="10" x="1479.5" y="1081.4531"/><rect fill="#FFFFFF" height="406.1641" style="stroke:#181818;stroke-width:1.0;" width="10" x="1667.5" y="519.5313"/><rect fill="#FFFFFF" height="362.8125" style="stroke:#181818;stroke-width:1.0;" width="10" x="1667.5" y="1111.8047"/><rect fill="#FFFFFF" height="271.7578" style="stroke:#181818;stroke-width:1.0;" width="10" x="1842.5" y="549.8828"/><rect fill="#FFFFFF" height="271.7578" style="stroke:#181818;stroke-width:1.0;" width="10" x="1842.5" y="1142.1563"/><rect fill="#FFFFFF" height="30" style="stroke:#181818;stroke-width:1.0;" width="10" x="2113.5" y="580.2344"/><rect fill="#FFFFFF" height="30" style="stroke:#181818;stroke-width:1.0;" width="10" x="2113.5" y="640.5859"/><rect fill="#FFFFFF" height="30" style="stroke:#181818;stroke-width:1.0;" width="10" x="2113.5" y="700.9375"/><rect fill="#FFFFFF" height="30" style="stroke:#181818;stroke-width:1.0;" width="10" x="2113.5" y="761.2891"/><rect fill="#FFFFFF" height="30" style="stroke:#181818;stroke-width:1.0;" width="10" x="2113.5" y="1172.5078"/><rect fill="#FFFFFF" height="30" style="stroke:#181818;stroke-width:1.0;" width="10" x="2113.5" y="1232.8594"/><rect fill="#FFFFFF" height="30" style="stroke:#181818;stroke-width:1.0;" width="10" x="2113.5" y="1293.2109"/><rect fill="#FFFFFF" height="30" style="stroke:#181818;stroke-width:1.0;" width="10" x="2113.5" y="1353.5625"/><rect fill="#FFFFFF" height="73.7031" style="stroke:#181818;stroke-width:1.0;" width="10" x="2229.5" y="821.6406"/><rect fill="#FFFFFF" height="30.3516" style="stroke:#181818;stroke-width:1.0;" width="10" x="2229.5" y="1413.9141"/><rect fill="#FA8072" height="79.0547" style="stroke:#000000;stroke-width:1.5;" width="747.5" x="10" y="190.6641"/><rect height="515.5703" style="stroke:#000000;stroke-width:1.5;fill:none;" width="1805" x="585.5" y="448.4766"/><rect fill="#FA8072" height="48.7031" style="stroke:#000000;stroke-width:1.5;" width="747.5" x="10" y="978.0469"/><rect height="472.2188" style="stroke:#000000;stroke-width:1.5;fill:none;" width="1708.5" x="585.5" y="1040.75"/><line style="stroke:#181818;stroke-width:0.5;fill:none;stroke-dasharray:5.0,5.0;" x1="64" x2="64" y1="82.6094" y2="1560.3203"/><line style="stroke:#181818;stroke-width:0.5;fill:none;stroke-dasharray:5.0,5.0;" x1="671.5" x2="671.5" y1="82.6094" y2="1560.3203"/><line style="stroke:#181818;stroke-width:0.5;fill:none;stroke-dasharray:5.0,5.0;" x1="971.5" x2="971.5" y1="82.6094" y2="1560.3203"/><line style="stroke:#181818;stroke-width:0.5;fill:none;stroke-dasharray:5.0,5.0;" x1="1271.5" x2="1271.5" y1="82.6094" y2="1560.3203"/><line style="stroke:#181818;stroke-width:0.5;fill:none;stroke-dasharray:5.0,5.0;" x1="1484" x2="1484" y1="82.6094" y2="1560.3203"/><line style="stroke:#181818;stroke-width:0.5;fill:none;stroke-dasharray:5.0,5.0;" x1="1672" x2="1672" y1="82.6094" y2="1560.3203"/><line style="stroke:#181818;stroke-width:0.5;fill:none;stroke-dasharray:5.0,5.0;" x1="1847" x2="1847" y1="82.6094" y2="1560.3203"/><line style="stroke:#181818;stroke-width:0.5;fill:none;stroke-dasharray:5.0,5.0;" x1="2118" x2="2118" y1="82.6094" y2="1560.3203"/><line style="stroke:#181818;stroke-width:0.5;fill:none;stroke-dasharray:5.0,5.0;" x1="2234" x2="2234" y1="82.6094" y2="1560.3203"/><text fill="#000000" font-family="sans-serif" font-size="14" lengthAdjust="spacing" textLength="83" x="20" y="79.5332">Administrator</text><ellipse cx="64.5" cy="13.5" fill="#E2E2F0" rx="8" ry="8" style="stroke:#181818;stroke-width:0.5;"/><path d="M64.5,21.5 L64.5,48.5 M51.5,29.5 L77.5,29.5 M64.5,48.5 L51.5,63.5 M64.5,48.5 L77.5,63.5 " fill="none" style="stroke:#181818;stroke-width:0.5;"/><text fill="#000000" font-family="sans-serif" font-size="14" lengthAdjust="spacing" textLength="83" x="20" y="1573.8535">Administrator</text><ellipse cx="64.5" cy="1585.4297" fill="#E2E2F0" rx="8" ry="8" style="stroke:#181818;stroke-width:0.5;"/><path d="M64.5,1593.4297 L64.5,1620.4297 M51.5,1601.4297 L77.5,1601.4297 M64.5,1620.4297 L51.5,1635.4297 M64.5,1620.4297 L77.5,1635.4297 " fill="none" style="stroke:#181818;stroke-width:0.5;"/><rect fill="#E2E2F0" height="31.6094" rx="2.5" ry="2.5" style="stroke:#181818;stroke-width:0.5;" width="152" x="595.5" y="50"/><text fill="#000000" font-family="sans-serif" font-size="14" lengthAdjust="spacing" textLength="138" x="602.5" y="71.5332">:ImportFileSnsUsersUI</text><rect fill="#E2E2F0" height="31.6094" rx="2.5" ry="2.5" style="stroke:#181818;stroke-width:0.5;" width="152" x="595.5" y="1559.3203"/><text fill="#000000" font-family="sans-serif" font-size="14" lengthAdjust="spacing" textLength="138" x="602.5" y="1580.8535">:ImportFileSnsUsersUI</text><rect fill="#E2E2F0" height="31.6094" rx="2.5" ry="2.5" style="stroke:#181818;stroke-width:0.5;" width="202" x="870.5" y="50"/><text fill="#000000" font-family="sans-serif" font-size="14" lengthAdjust="spacing" textLength="188" x="877.5" y="71.5332">:ImportFileSnsUsersController</text><rect fill="#E2E2F0" height="31.6094" rx="2.5" ry="2.5" style="stroke:#181818;stroke-width:0.5;" width="202" x="870.5" y="1559.3203"/><text fill="#000000" font-family="sans-serif" font-size="14" lengthAdjust="spacing" textLength="188" x="877.5" y="1580.8535">:ImportFileSnsUsersController</text><rect fill="#E2E2F0" height="31.6094" rx="2.5" ry="2.5" style="stroke:#181818;stroke-width:0.5;" width="128" x="1207.5" y="50"/><text fill="#000000" font-family="sans-serif" font-size="14" lengthAdjust="spacing" textLength="114" x="1214.5" y="71.5332">:FileSnsUserStore</text><rect fill="#E2E2F0" height="31.6094" rx="2.5" ry="2.5" style="stroke:#181818;stroke-width:0.5;" width="128" x="1207.5" y="1559.3203"/><text fill="#000000" font-family="sans-serif" font-size="14" lengthAdjust="spacing" textLength="114" x="1214.5" y="1580.8535">:FileSnsUserStore</text><rect fill="#E2E2F0" height="31.6094" rx="2.5" ry="2.5" style="stroke:#181818;stroke-width:0.5;" width="193" x="1388" y="50"/><text fill="#000000" font-family="sans-serif" font-size="14" lengthAdjust="spacing" textLength="179" x="1395" y="71.5332">:RegisterSnsUsersController</text><rect fill="#E2E2F0" height="31.6094" rx="2.5" ry="2.5" style="stroke:#181818;stroke-width:0.5;" width="193" x="1388" y="1559.3203"/><text fill="#000000" font-family="sans-serif" font-size="14" lengthAdjust="spacing" textLength="179" x="1395" y="1580.8535">:RegisterSnsUsersController</text><rect fill="#E2E2F0" height="31.6094" rx="2.5" ry="2.5" style="stroke:#181818;stroke-width:0.5;" width="105" x="1620" y="50"/><text fill="#000000" font-family="sans-serif" font-size="14" lengthAdjust="spacing" textLength="91" x="1627" y="71.5332">:SnsUserStore</text><rect fill="#E2E2F0" height="31.6094" rx="2.5" ry="2.5" style="stroke:#181818;stroke-width:0.5;" width="105" x="1620" y="1559.3203"/><text fill="#000000" font-family="sans-serif" font-size="14" lengthAdjust="spacing" textLength="91" x="1627" y="1580.8535">:SnsUserStore</text><rect fill="#E2E2F0" height="31.6094" rx="2.5" ry="2.5" style="stroke:#181818;stroke-width:0.5;" width="119" x="1788" y="50"/><text fill="#000000" font-family="sans-serif" font-size="14" lengthAdjust="spacing" textLength="105" x="1795" y="71.5332">:SnsUserMapper</text><rect fill="#E2E2F0" height="31.6094" rx="2.5" ry="2.5" style="stroke:#181818;stroke-width:0.5;" width="119" x="1788" y="1559.3203"/><text fill="#000000" font-family="sans-serif" font-size="14" lengthAdjust="spacing" textLength="105" x="1795" y="1580.8535">:SnsUserMapper</text><rect fill="#E2E2F0" height="31.6094" rx="2.5" ry="2.5" style="stroke:#181818;stroke-width:0.5;" width="113" x="2062" y="50"/><text fill="#000000" font-family="sans-serif" font-size="14" lengthAdjust="spacing" textLength="99" x="2069" y="71.5332">dto:SnsUserDto</text><rect fill="#E2E2F0" height="31.6094" rx="2.5" ry="2.5" style="stroke:#181818;stroke-width:0.5;" width="113" x="2062" y="1559.3203"/><text fill="#000000" font-family="sans-serif" font-size="14" lengthAdjust="spacing" textLength="99" x="2069" y="1580.8535">dto:SnsUserDto</text><rect fill="#E2E2F0" height="31.6094" rx="2.5" ry="2.5" style="stroke:#181818;stroke-width:0.5;" width="99" x="2185" y="50"/><text fill="#000000" font-family="sans-serif" font-size="14" lengthAdjust="spacing" textLength="85" x="2192" y="71.5332">user:SnsUser</text><rect fill="#E2E2F0" height="31.6094" rx="2.5" ry="2.5" style="stroke:#181818;stroke-width:0.5;" width="99" x="2185" y="1559.3203"/><text fill="#000000" font-family="sans-serif" font-size="14" lengthAdjust="spacing" textLength="85" x="2192" y="1580.8535">user:SnsUser</text><rect fill="#FFFFFF" height="1449.7109" style="stroke:#181818;stroke-width:1.0;" width="10" x="59.5" y="92.6094"/><rect fill="#FFFFFF" height="30.3516" style="stroke:#181818;stroke-width:1.0;" width="10" x="666.5" y="114.9609"/><rect fill="#FFFFFF" height="1366.6563" style="stroke:#181818;stroke-width:1.0;" width="10" x="666.5" y="175.6641"/><rect fill="#FFFFFF" height="134.4063" style="stroke:#181818;stroke-width:1.0;" width="10" x="966.5" y="299.0703"/><rect fill="#FFFFFF" height="73.7031" style="stroke:#181818;stroke-width:1.0;" width="10" x="1266.5" y="329.4219"/><rect fill="#FFFFFF" height="466.8672" style="stroke:#181818;stroke-width:1.0;" width="10" x="1479.5" y="489.1797"/><rect fill="#FFFFFF" height="423.5156" style="stroke:#181818;stroke-width:1.0;" width="10" x="1479.5" y="1081.4531"/><rect fill="#FFFFFF" height="406.1641" style="stroke:#181818;stroke-width:1.0;" width="10" x="1667.5" y="519.5313"/><rect fill="#FFFFFF" height="362.8125" style="stroke:#181818;stroke-width:1.0;" width="10" x="1667.5" y="1111.8047"/><rect fill="#FFFFFF" height="271.7578" style="stroke:#181818;stroke-width:1.0;" width="10" x="1842.5" y="549.8828"/><rect fill="#FFFFFF" height="271.7578" style="stroke:#181818;stroke-width:1.0;" width="10" x="1842.5" y="1142.1563"/><rect fill="#FFFFFF" height="30" style="stroke:#181818;stroke-width:1.0;" width="10" x="2113.5" y="580.2344"/><rect fill="#FFFFFF" height="30" style="stroke:#181818;stroke-width:1.0;" width="10" x="2113.5" y="640.5859"/><rect fill="#FFFFFF" height="30" style="stroke:#181818;stroke-width:1.0;" width="10" x="2113.5" y="700.9375"/><rect fill="#FFFFFF" height="30" style="stroke:#181818;stroke-width:1.0;" width="10" x="2113.5" y="761.2891"/><rect fill="#FFFFFF" height="30" style="stroke:#181818;stroke-width:1.0;" width="10" x="2113.5" y="1172.5078"/><rect fill="#FFFFFF" height="30" style="stroke:#181818;stroke-width:1.0;" width="10" x="2113.5" y="1232.8594"/><rect fill="#FFFFFF" height="30" style="stroke:#181818;stroke-width:1.0;" width="10" x="2113.5" y="1293.2109"/><rect fill="#FFFFFF" height="30" style="stroke:#181818;stroke-width:1.0;" width="10" x="2113.5" y="1353.5625"/><rect fill="#FFFFFF" height="73.7031" style="stroke:#181818;stroke-width:1.0;" width="10" x="2229.5" y="821.6406"/><rect fill="#FFFFFF" height="30.3516" style="stroke:#181818;stroke-width:1.0;" width="10" x="2229.5" y="1413.9141"/><polygon fill="#181818" points="654.5,110.9609,664.5,114.9609,654.5,118.9609,658.5,114.9609" style="stroke:#181818;stroke-width:1.0;"/><line style="stroke:#181818;stroke-width:1.0;" x1="69.5" x2="660.5" y1="114.9609" y2="114.9609"/><text fill="#000000" font-family="sans-serif" font-size="13" font-weight="bold" lengthAdjust="spacing" textLength="7" x="76.5" y="110.1045">1</text><text fill="#000000" font-family="sans-serif" font-size="13" lengthAdjust="spacing" textLength="199" x="87.5" y="110.1045">requests to import a file with users</text><polygon fill="#181818" points="80.5,141.3125,70.5,145.3125,80.5,149.3125,76.5,145.3125" style="stroke:#181818;stroke-width:1.0;"/><line style="stroke:#181818;stroke-width:1.0;stroke-dasharray:2.0,2.0;" x1="74.5" x2="670.5" y1="145.3125" y2="145.3125"/><text fill="#000000" font-family="sans-serif" font-size="13" font-weight="bold" lengthAdjust="spacing" textLength="7" x="86.5" y="140.4561">2</text><text fill="#000000" font-family="sans-serif" font-size="13" lengthAdjust="spacing" textLength="136" x="97.5" y="140.4561">requests data (path file)</text><polygon fill="#181818" points="654.5,171.6641,664.5,175.6641,654.5,179.6641,658.5,175.6641" style="stroke:#181818;stroke-width:1.0;"/><line style="stroke:#181818;stroke-width:1.0;" x1="69.5" x2="660.5" y1="175.6641" y2="175.6641"/><text fill="#000000" font-family="sans-serif" font-size="13" font-weight="bold" lengthAdjust="spacing" textLength="7" x="76.5" y="170.8076">3</text><text fill="#000000" font-family="sans-serif" font-size="13" lengthAdjust="spacing" textLength="86" x="87.5" y="170.8076">inputs the data</text><path d="M10,190.6641 L83,190.6641 L83,199.0156 L73,209.0156 L10,209.0156 L10,190.6641 " fill="#EEEEEE" style="stroke:#000000;stroke-width:1.5;"/><rect fill="none" height="79.0547" style="stroke:#000000;stroke-width:1.5;" width="747.5" x="10" y="190.6641"/><text fill="#000000" font-family="sans-serif" font-size="13" font-weight="bold" lengthAdjust="spacing" textLength="28" x="25" y="205.1592">loop</text><text fill="#000000" font-family="sans-serif" font-size="11" font-weight="bold" lengthAdjust="spacing" textLength="171" x="98" y="204.083">[while path invalid or file blank]</text><polygon fill="#181818" points="80.5,227.3672,70.5,231.3672,80.5,235.3672,76.5,231.3672" style="stroke:#181818;stroke-width:1.0;"/><line style="stroke:#181818;stroke-width:1.0;stroke-dasharray:2.0,2.0;" x1="74.5" x2="665.5" y1="231.3672" y2="231.3672"/><text fill="#000000" font-family="sans-serif" font-size="13" font-weight="bold" lengthAdjust="spacing" textLength="7" x="86.5" y="226.5107">4</text><text fill="#000000" font-family="sans-serif" font-size="13" lengthAdjust="spacing" textLength="481" x="97.5" y="226.5107">informs admin that file path is invalid, or that the file is blank, requests valid file path</text><polygon fill="#181818" points="654.5,257.7188,664.5,261.7188,654.5,265.7188,658.5,261.7188" style="stroke:#181818;stroke-width:1.0;"/><line style="stroke:#181818;stroke-width:1.0;" x1="69.5" x2="660.5" y1="261.7188" y2="261.7188"/><text fill="#000000" font-family="sans-serif" font-size="13" font-weight="bold" lengthAdjust="spacing" textLength="7" x="76.5" y="256.8623">5</text><text fill="#000000" font-family="sans-serif" font-size="13" lengthAdjust="spacing" textLength="281" x="87.5" y="256.8623">inputs the data (valid file path, and non blank file)</text><polygon fill="#181818" points="954.5,295.0703,964.5,299.0703,954.5,303.0703,958.5,299.0703" style="stroke:#181818;stroke-width:1.0;"/><line style="stroke:#181818;stroke-width:1.0;" x1="676.5" x2="960.5" y1="299.0703" y2="299.0703"/><text fill="#000000" font-family="sans-serif" font-size="13" font-weight="bold" lengthAdjust="spacing" textLength="7" x="683.5" y="294.2139">4</text><text fill="#000000" font-family="sans-serif" font-size="13" lengthAdjust="spacing" textLength="144" x="694.5" y="294.2139">SeparateUsers(fileUsers)</text><polygon fill="#181818" points="1254.5,325.4219,1264.5,329.4219,1254.5,333.4219,1258.5,329.4219" style="stroke:#181818;stroke-width:1.0;"/><line style="stroke:#181818;stroke-width:1.0;" x1="976.5" x2="1260.5" y1="329.4219" y2="329.4219"/><text fill="#000000" font-family="sans-serif" font-size="13" font-weight="bold" lengthAdjust="spacing" textLength="7" x="983.5" y="324.5654">5</text><text fill="#000000" font-family="sans-serif" font-size="13" lengthAdjust="spacing" textLength="142" x="994.5" y="324.5654">separateUsers(fileUsers)</text><line style="stroke:#181818;stroke-width:1.0;" x1="1276.5" x2="1318.5" y1="359.7734" y2="359.7734"/><line style="stroke:#181818;stroke-width:1.0;" x1="1318.5" x2="1318.5" y1="359.7734" y2="372.7734"/><line style="stroke:#181818;stroke-width:1.0;" x1="1277.5" x2="1318.5" y1="372.7734" y2="372.7734"/><polygon fill="#181818" points="1287.5,368.7734,1277.5,372.7734,1287.5,376.7734,1283.5,372.7734" style="stroke:#181818;stroke-width:1.0;"/><text fill="#000000" font-family="sans-serif" font-size="13" font-weight="bold" lengthAdjust="spacing" textLength="7" x="1283.5" y="354.917">6</text><text fill="#000000" font-family="sans-serif" font-size="13" lengthAdjust="spacing" textLength="124" x="1294.5" y="354.917">countUsers(fileUsers)</text><polygon fill="#181818" points="987.5,399.125,977.5,403.125,987.5,407.125,983.5,403.125" style="stroke:#181818;stroke-width:1.0;"/><line style="stroke:#181818;stroke-width:1.0;stroke-dasharray:2.0,2.0;" x1="981.5" x2="1270.5" y1="403.125" y2="403.125"/><text fill="#000000" font-family="sans-serif" font-size="13" font-weight="bold" lengthAdjust="spacing" textLength="7" x="993.5" y="398.2686">7</text><text fill="#000000" font-family="sans-serif" font-size="13" lengthAdjust="spacing" textLength="255" x="1004.5" y="398.2686">returns array of users separated from the file</text><polygon fill="#181818" points="687.5,429.4766,677.5,433.4766,687.5,437.4766,683.5,433.4766" style="stroke:#181818;stroke-width:1.0;"/><line style="stroke:#181818;stroke-width:1.0;stroke-dasharray:2.0,2.0;" x1="681.5" x2="970.5" y1="433.4766" y2="433.4766"/><text fill="#000000" font-family="sans-serif" font-size="13" font-weight="bold" lengthAdjust="spacing" textLength="7" x="693.5" y="428.6201">8</text><text fill="#000000" font-family="sans-serif" font-size="13" lengthAdjust="spacing" textLength="255" x="704.5" y="428.6201">returns array of users separated from the file</text><path d="M585.5,448.4766 L658.5,448.4766 L658.5,456.8281 L648.5,466.8281 L585.5,466.8281 L585.5,448.4766 " fill="#EEEEEE" style="stroke:#000000;stroke-width:1.5;"/><rect fill="none" height="515.5703" style="stroke:#000000;stroke-width:1.5;" width="1805" x="585.5" y="448.4766"/><text fill="#000000" font-family="sans-serif" font-size="13" font-weight="bold" lengthAdjust="spacing" textLength="28" x="600.5" y="462.9717">loop</text><text fill="#000000" font-family="sans-serif" font-size="11" font-weight="bold" lengthAdjust="spacing" textLength="209" x="673.5" y="461.8955">[while remaining users to be verified]</text><polygon fill="#181818" points="1467.5,485.1797,1477.5,489.1797,1467.5,493.1797,1471.5,489.1797" style="stroke:#181818;stroke-width:1.0;"/><line style="stroke:#181818;stroke-width:1.0;" x1="676.5" x2="1473.5" y1="489.1797" y2="489.1797"/><text fill="#000000" font-family="sans-serif" font-size="13" font-weight="bold" lengthAdjust="spacing" textLength="7" x="683.5" y="484.3232">9</text><text fill="#000000" font-family="sans-serif" font-size="13" lengthAdjust="spacing" textLength="773" x="694.5" y="484.3232">create new Dto with split data (name, address, sex, phoneNumber, email, birthdate, snsNumber, citizenCardNumber, smsPermission)</text><polygon fill="#181818" points="1655.5,515.5313,1665.5,519.5313,1655.5,523.5313,1659.5,519.5313" style="stroke:#181818;stroke-width:1.0;"/><line style="stroke:#181818;stroke-width:1.0;" x1="1489.5" x2="1661.5" y1="519.5313" y2="519.5313"/><text fill="#000000" font-family="sans-serif" font-size="13" font-weight="bold" lengthAdjust="spacing" textLength="14" x="1496.5" y="514.6748">10</text><text fill="#000000" font-family="sans-serif" font-size="13" lengthAdjust="spacing" textLength="112" x="1514.5" y="514.6748">createSnsUser(dto)</text><polygon fill="#181818" points="1830.5,545.8828,1840.5,549.8828,1830.5,553.8828,1834.5,549.8828" style="stroke:#181818;stroke-width:1.0;"/><line style="stroke:#181818;stroke-width:1.0;" x1="1677.5" x2="1836.5" y1="549.8828" y2="549.8828"/><text fill="#000000" font-family="sans-serif" font-size="13" font-weight="bold" lengthAdjust="spacing" textLength="14" x="1684.5" y="545.0264">11</text><text fill="#000000" font-family="sans-serif" font-size="13" lengthAdjust="spacing" textLength="128" x="1702.5" y="545.0264">user = toSnsUser(dto)</text><polygon fill="#181818" points="2101.5,576.2344,2111.5,580.2344,2101.5,584.2344,2105.5,580.2344" style="stroke:#181818;stroke-width:1.0;"/><line style="stroke:#181818;stroke-width:1.0;" x1="1852.5" x2="2107.5" y1="580.2344" y2="580.2344"/><text fill="#000000" font-family="sans-serif" font-size="13" font-weight="bold" lengthAdjust="spacing" textLength="14" x="1859.5" y="575.3779">12</text><text fill="#000000" font-family="sans-serif" font-size="13" lengthAdjust="spacing" textLength="108" x="1877.5" y="575.3779">name = getName()</text><polygon fill="#181818" points="2101.5,636.5859,2111.5,640.5859,2101.5,644.5859,2105.5,640.5859" style="stroke:#181818;stroke-width:1.0;"/><line style="stroke:#181818;stroke-width:1.0;" x1="1852.5" x2="2107.5" y1="640.5859" y2="640.5859"/><text fill="#000000" font-family="sans-serif" font-size="13" font-weight="bold" lengthAdjust="spacing" textLength="14" x="1859.5" y="635.7295">13</text><text fill="#000000" font-family="sans-serif" font-size="13" lengthAdjust="spacing" textLength="176" x="1877.5" y="635.7295">snsNumber = getSnsNumber()</text><polygon fill="#181818" points="2101.5,696.9375,2111.5,700.9375,2101.5,704.9375,2105.5,700.9375" style="stroke:#181818;stroke-width:1.0;"/><line style="stroke:#181818;stroke-width:1.0;" x1="1852.5" x2="2107.5" y1="700.9375" y2="700.9375"/><text fill="#000000" font-family="sans-serif" font-size="13" font-weight="bold" lengthAdjust="spacing" textLength="14" x="1859.5" y="696.0811">14</text><text fill="#000000" font-family="sans-serif" font-size="13" lengthAdjust="spacing" textLength="106" x="1877.5" y="696.0811">email = getEmail()</text><polygon fill="#181818" points="2101.5,757.2891,2111.5,761.2891,2101.5,765.2891,2105.5,761.2891" style="stroke:#181818;stroke-width:1.0;"/><line style="stroke:#181818;stroke-width:1.0;" x1="1852.5" x2="2107.5" y1="761.2891" y2="761.2891"/><text fill="#000000" font-family="sans-serif" font-size="13" font-weight="bold" lengthAdjust="spacing" textLength="14" x="1859.5" y="756.4326">15</text><text fill="#000000" font-family="sans-serif" font-size="13" lengthAdjust="spacing" textLength="224" x="1877.5" y="756.4326">smsPermission = getSmsPermission()</text><polygon fill="#181818" points="2217.5,817.6406,2227.5,821.6406,2217.5,825.6406,2221.5,821.6406" style="stroke:#181818;stroke-width:1.0;"/><line style="stroke:#181818;stroke-width:1.0;stroke-dasharray:2.0,2.0;" x1="1847.5" x2="2223.5" y1="821.6406" y2="821.6406"/><text fill="#000000" font-family="sans-serif" font-size="13" font-weight="bold" lengthAdjust="spacing" textLength="14" x="1854.5" y="816.7842">16</text><text fill="#000000" font-family="sans-serif" font-size="13" lengthAdjust="spacing" textLength="275" x="1872.5" y="816.7842">create(name,snsNumber,email,smsPermission)</text><line style="stroke:#181818;stroke-width:1.0;" x1="2239.5" x2="2281.5" y1="851.9922" y2="851.9922"/><line style="stroke:#181818;stroke-width:1.0;" x1="2281.5" x2="2281.5" y1="851.9922" y2="864.9922"/><line style="stroke:#181818;stroke-width:1.0;" x1="2240.5" x2="2281.5" y1="864.9922" y2="864.9922"/><polygon fill="#181818" points="2250.5,860.9922,2240.5,864.9922,2250.5,868.9922,2246.5,864.9922" style="stroke:#181818;stroke-width:1.0;"/><text fill="#000000" font-family="sans-serif" font-size="13" font-weight="bold" lengthAdjust="spacing" textLength="14" x="2246.5" y="847.1357">17</text><text fill="#000000" font-family="sans-serif" font-size="13" lengthAdjust="spacing" textLength="114" x="2264.5" y="847.1357">validateInformation()</text><polygon fill="#181818" points="1688.5,891.3438,1678.5,895.3438,1688.5,899.3438,1684.5,895.3438" style="stroke:#181818;stroke-width:1.0;"/><line style="stroke:#181818;stroke-width:1.0;stroke-dasharray:2.0,2.0;" x1="1682.5" x2="2233.5" y1="895.3438" y2="895.3438"/><text fill="#000000" font-family="sans-serif" font-size="13" font-weight="bold" lengthAdjust="spacing" textLength="14" x="1694.5" y="890.4873">18</text><text fill="#000000" font-family="sans-serif" font-size="13" lengthAdjust="spacing" textLength="136" x="1712.5" y="890.4873">gives result of validation</text><polygon fill="#181818" points="1500.5,921.6953,1490.5,925.6953,1500.5,929.6953,1496.5,925.6953" style="stroke:#181818;stroke-width:1.0;"/><line style="stroke:#181818;stroke-width:1.0;stroke-dasharray:2.0,2.0;" x1="1494.5" x2="1671.5" y1="925.6953" y2="925.6953"/><text fill="#000000" font-family="sans-serif" font-size="13" font-weight="bold" lengthAdjust="spacing" textLength="14" x="1506.5" y="920.8389">19</text><text fill="#000000" font-family="sans-serif" font-size="13" lengthAdjust="spacing" textLength="136" x="1524.5" y="920.8389">gives result of validation</text><polygon fill="#181818" points="687.5,952.0469,677.5,956.0469,687.5,960.0469,683.5,956.0469" style="stroke:#181818;stroke-width:1.0;"/><line style="stroke:#181818;stroke-width:1.0;stroke-dasharray:2.0,2.0;" x1="681.5" x2="1483.5" y1="956.0469" y2="956.0469"/><text fill="#000000" font-family="sans-serif" font-size="13" font-weight="bold" lengthAdjust="spacing" textLength="14" x="693.5" y="951.1904">20</text><text fill="#000000" font-family="sans-serif" font-size="13" lengthAdjust="spacing" textLength="277" x="711.5" y="951.1904">gives result of validation and if loop can continue</text><path d="M10,978.0469 L71,978.0469 L71,986.3984 L61,996.3984 L10,996.3984 L10,978.0469 " fill="#EEEEEE" style="stroke:#000000;stroke-width:1.5;"/><rect fill="none" height="48.7031" style="stroke:#000000;stroke-width:1.5;" width="747.5" x="10" y="978.0469"/><text fill="#000000" font-family="sans-serif" font-size="13" font-weight="bold" lengthAdjust="spacing" textLength="16" x="25" y="992.542">alt</text><text fill="#000000" font-family="sans-serif" font-size="11" font-weight="bold" lengthAdjust="spacing" textLength="259" x="86" y="991.4658">[Parameter is incorrect, or user already exists]</text><polygon fill="#181818" points="80.5,1014.75,70.5,1018.75,80.5,1022.75,76.5,1018.75" style="stroke:#181818;stroke-width:1.0;"/><line style="stroke:#181818;stroke-width:1.0;stroke-dasharray:2.0,2.0;" x1="74.5" x2="665.5" y1="1018.75" y2="1018.75"/><text fill="#000000" font-family="sans-serif" font-size="13" font-weight="bold" lengthAdjust="spacing" textLength="14" x="86.5" y="1013.8936">21</text><text fill="#000000" font-family="sans-serif" font-size="13" lengthAdjust="spacing" textLength="555" x="104.5" y="1013.8936">Informs the user that a parameter is not valid, or a user with the same parameters already exists</text><path d="M585.5,1040.75 L658.5,1040.75 L658.5,1049.1016 L648.5,1059.1016 L585.5,1059.1016 L585.5,1040.75 " fill="#EEEEEE" style="stroke:#000000;stroke-width:1.5;"/><rect fill="none" height="472.2188" style="stroke:#000000;stroke-width:1.5;" width="1708.5" x="585.5" y="1040.75"/><text fill="#000000" font-family="sans-serif" font-size="13" font-weight="bold" lengthAdjust="spacing" textLength="28" x="600.5" y="1055.2451">loop</text><text fill="#000000" font-family="sans-serif" font-size="11" font-weight="bold" lengthAdjust="spacing" textLength="226" x="673.5" y="1054.1689">[while remaining users to be registered]</text><polygon fill="#181818" points="1467.5,1077.4531,1477.5,1081.4531,1467.5,1085.4531,1471.5,1081.4531" style="stroke:#181818;stroke-width:1.0;"/><line style="stroke:#181818;stroke-width:1.0;" x1="676.5" x2="1473.5" y1="1081.4531" y2="1081.4531"/><text fill="#000000" font-family="sans-serif" font-size="13" font-weight="bold" lengthAdjust="spacing" textLength="14" x="683.5" y="1076.5967">21</text><text fill="#000000" font-family="sans-serif" font-size="13" lengthAdjust="spacing" textLength="736" x="701.5" y="1076.5967">recreates Dto with data (name, address, sex, phoneNumber, email, birthdate, snsNumber, citizenCardNumber, smsPermission)</text><polygon fill="#181818" points="1655.5,1107.8047,1665.5,1111.8047,1655.5,1115.8047,1659.5,1111.8047" style="stroke:#181818;stroke-width:1.0;"/><line style="stroke:#181818;stroke-width:1.0;" x1="1489.5" x2="1661.5" y1="1111.8047" y2="1111.8047"/><text fill="#000000" font-family="sans-serif" font-size="13" font-weight="bold" lengthAdjust="spacing" textLength="14" x="1496.5" y="1106.9482">22</text><text fill="#000000" font-family="sans-serif" font-size="13" lengthAdjust="spacing" textLength="112" x="1514.5" y="1106.9482">createSnsUser(dto)</text><polygon fill="#181818" points="1830.5,1138.1563,1840.5,1142.1563,1830.5,1146.1563,1834.5,1142.1563" style="stroke:#181818;stroke-width:1.0;"/><line style="stroke:#181818;stroke-width:1.0;" x1="1677.5" x2="1836.5" y1="1142.1563" y2="1142.1563"/><text fill="#000000" font-family="sans-serif" font-size="13" font-weight="bold" lengthAdjust="spacing" textLength="14" x="1684.5" y="1137.2998">23</text><text fill="#000000" font-family="sans-serif" font-size="13" lengthAdjust="spacing" textLength="128" x="1702.5" y="1137.2998">user = toSnsUser(dto)</text><polygon fill="#181818" points="2101.5,1168.5078,2111.5,1172.5078,2101.5,1176.5078,2105.5,1172.5078" style="stroke:#181818;stroke-width:1.0;"/><line style="stroke:#181818;stroke-width:1.0;" x1="1852.5" x2="2107.5" y1="1172.5078" y2="1172.5078"/><text fill="#000000" font-family="sans-serif" font-size="13" font-weight="bold" lengthAdjust="spacing" textLength="14" x="1859.5" y="1167.6514">24</text><text fill="#000000" font-family="sans-serif" font-size="13" lengthAdjust="spacing" textLength="108" x="1877.5" y="1167.6514">name = getName()</text><polygon fill="#181818" points="2101.5,1228.8594,2111.5,1232.8594,2101.5,1236.8594,2105.5,1232.8594" style="stroke:#181818;stroke-width:1.0;"/><line style="stroke:#181818;stroke-width:1.0;" x1="1852.5" x2="2107.5" y1="1232.8594" y2="1232.8594"/><text fill="#000000" font-family="sans-serif" font-size="13" font-weight="bold" lengthAdjust="spacing" textLength="14" x="1859.5" y="1228.0029">25</text><text fill="#000000" font-family="sans-serif" font-size="13" lengthAdjust="spacing" textLength="176" x="1877.5" y="1228.0029">snsNumber = getSnsNumber()</text><polygon fill="#181818" points="2101.5,1289.2109,2111.5,1293.2109,2101.5,1297.2109,2105.5,1293.2109" style="stroke:#181818;stroke-width:1.0;"/><line style="stroke:#181818;stroke-width:1.0;" x1="1852.5" x2="2107.5" y1="1293.2109" y2="1293.2109"/><text fill="#000000" font-family="sans-serif" font-size="13" font-weight="bold" lengthAdjust="spacing" textLength="14" x="1859.5" y="1288.3545">26</text><text fill="#000000" font-family="sans-serif" font-size="13" lengthAdjust="spacing" textLength="106" x="1877.5" y="1288.3545">email = getEmail()</text><polygon fill="#181818" points="2101.5,1349.5625,2111.5,1353.5625,2101.5,1357.5625,2105.5,1353.5625" style="stroke:#181818;stroke-width:1.0;"/><line style="stroke:#181818;stroke-width:1.0;" x1="1852.5" x2="2107.5" y1="1353.5625" y2="1353.5625"/><text fill="#000000" font-family="sans-serif" font-size="13" font-weight="bold" lengthAdjust="spacing" textLength="14" x="1859.5" y="1348.7061">27</text><text fill="#000000" font-family="sans-serif" font-size="13" lengthAdjust="spacing" textLength="224" x="1877.5" y="1348.7061">smsPermission = getSmsPermission()</text><polygon fill="#181818" points="2217.5,1409.9141,2227.5,1413.9141,2217.5,1417.9141,2221.5,1413.9141" style="stroke:#181818;stroke-width:1.0;"/><line style="stroke:#181818;stroke-width:1.0;stroke-dasharray:2.0,2.0;" x1="1847.5" x2="2223.5" y1="1413.9141" y2="1413.9141"/><text fill="#000000" font-family="sans-serif" font-size="13" font-weight="bold" lengthAdjust="spacing" textLength="14" x="1854.5" y="1409.0576">28</text><text fill="#000000" font-family="sans-serif" font-size="13" lengthAdjust="spacing" textLength="106" x="1872.5" y="1409.0576">registers new user</text><polygon fill="#181818" points="1688.5,1440.2656,1678.5,1444.2656,1688.5,1448.2656,1684.5,1444.2656" style="stroke:#181818;stroke-width:1.0;"/><line style="stroke:#181818;stroke-width:1.0;stroke-dasharray:2.0,2.0;" x1="1682.5" x2="2233.5" y1="1444.2656" y2="1444.2656"/><text fill="#000000" font-family="sans-serif" font-size="13" font-weight="bold" lengthAdjust="spacing" textLength="14" x="1694.5" y="1439.4092">29</text><text fill="#000000" font-family="sans-serif" font-size="13" lengthAdjust="spacing" textLength="101" x="1712.5" y="1439.4092">registerSnsUser()</text><polygon fill="#181818" points="1500.5,1470.6172,1490.5,1474.6172,1500.5,1478.6172,1496.5,1474.6172" style="stroke:#181818;stroke-width:1.0;"/><line style="stroke:#181818;stroke-width:1.0;stroke-dasharray:2.0,2.0;" x1="1494.5" x2="1671.5" y1="1474.6172" y2="1474.6172"/><text fill="#000000" font-family="sans-serif" font-size="13" font-weight="bold" lengthAdjust="spacing" textLength="14" x="1506.5" y="1469.7607">30</text><text fill="#000000" font-family="sans-serif" font-size="13" lengthAdjust="spacing" textLength="106" x="1524.5" y="1469.7607">RegisterSnsUser()</text><polygon fill="#181818" points="687.5,1500.9688,677.5,1504.9688,687.5,1508.9688,683.5,1504.9688" style="stroke:#181818;stroke-width:1.0;"/><line style="stroke:#181818;stroke-width:1.0;stroke-dasharray:2.0,2.0;" x1="681.5" x2="1483.5" y1="1504.9688" y2="1504.9688"/><text fill="#000000" font-family="sans-serif" font-size="13" font-weight="bold" lengthAdjust="spacing" textLength="14" x="693.5" y="1500.1123">31</text><text fill="#000000" font-family="sans-serif" font-size="13" lengthAdjust="spacing" textLength="111" x="711.5" y="1500.1123">registeres sns user</text><polygon fill="#181818" points="75.5,1538.3203,65.5,1542.3203,75.5,1546.3203,71.5,1542.3203" style="stroke:#181818;stroke-width:1.0;"/><line style="stroke:#181818;stroke-width:1.0;stroke-dasharray:2.0,2.0;" x1="69.5" x2="670.5" y1="1542.3203" y2="1542.3203"/><text fill="#000000" font-family="sans-serif" font-size="13" font-weight="bold" lengthAdjust="spacing" textLength="14" x="81.5" y="1537.4639">32</text><text fill="#000000" font-family="sans-serif" font-size="13" lengthAdjust="spacing" textLength="153" x="99.5" y="1537.4639">gives message of success</text><!--MD5=[569dfdcb2ec7931b0f4c03d449d20e18]
@startuml
'https://plantuml.com/sequence-diagram

autonumber

actor "Administrator" as admin

participant ":ImportFileSnsUsersUI" as ui
participant ":ImportFileSnsUsersController" as controller
participant ":FileSnsUserStore" as store
participant ":RegisterSnsUsersController" as snscontroller
participant ":SnsUserStore" as snsstore
participant ":SnsUserMapper" as mapper
participant "dto:SnsUserDto" as dto
participant "user:SnsUser" as snsuser


activate admin

admin -> ui : requests to import a file with users
activate ui

ui - -> admin : requests data (path file)
deactivate ui

admin -> ui : inputs the data
activate ui

autonumber stop
loop #Salmon while path invalid or file blank
ui - -> admin: **4** informs admin that file path is invalid, or that the file is blank, requests valid file path
admin -> ui: **5** inputs the data (valid file path, and non blank file)
end
autonumber resume

ui -> controller: SeparateUsers(fileUsers)
activate controller

controller -> store: separateUsers(fileUsers)
activate store

store -> store: countUsers(fileUsers)
store - -> controller: returns array of users separated from the file
deactivate store

controller - -> ui: returns array of users separated from the file
deactivate controller

loop while remaining users to be verified
ui -> snscontroller: create new Dto with split data (name, address, sex, phoneNumber, email, birthdate, snsNumber, citizenCardNumber, smsPermission)
activate snscontroller

snscontroller -> snsstore: createSnsUser(dto)
activate snsstore

snsstore -> mapper : user = toSnsUser(dto)
activate mapper

mapper -> dto : name = getName()
activate dto
deactivate dto

mapper -> dto : snsNumber = getSnsNumber()
activate dto
deactivate dto

mapper -> dto : email = getEmail()
activate dto
deactivate dto

mapper -> dto : smsPermission = getSmsPermission()
activate dto
deactivate dto

mapper - -> snsuser : create(name,snsNumber,email,smsPermission)
deactivate mapper
activate snsuser

snsuser -> snsuser : validateInformation()
snsuser - -> snsstore: gives result of validation
deactivate snsuser

snsstore - -> snscontroller: gives result of validation
deactivate snsstore

snscontroller - -> ui: gives result of validation and if loop can continue
deactivate snscontroller
end

autonumber stop

alt #Salmon Parameter is incorrect, or user already exists
ui - -> admin: **21** Informs the user that a parameter is not valid, or a user with the same parameters already exists
autonumber resume
end

loop while remaining users to be registered
ui -> snscontroller: recreates Dto with data (name, address, sex, phoneNumber, email, birthdate, snsNumber, citizenCardNumber, smsPermission)
activate snscontroller

snscontroller -> snsstore: createSnsUser(dto)
activate snsstore

snsstore -> mapper : user = toSnsUser(dto)
activate mapper

mapper -> dto : name = getName()
activate dto
deactivate dto

mapper -> dto : snsNumber = getSnsNumber()
activate dto
deactivate dto

mapper -> dto : email = getEmail()
activate dto
deactivate dto

mapper -> dto : smsPermission = getSmsPermission()
activate dto
deactivate dto

mapper - -> snsuser : registers new user
deactivate mapper
activate snsuser

snsuser - -> snsstore: registerSnsUser()
deactivate snsuser

snsstore - -> snscontroller: RegisterSnsUser()
deactivate snsstore

snscontroller - -> ui: registeres sns user
deactivate snscontroller
end

ui - -> admin: gives message of success
deactivate ui

deactivate admin



@enduml

@startuml

autonumber

actor "Administrator" as admin

participant ":ImportFileSnsUsersUI" as ui
participant ":ImportFileSnsUsersController" as controller
participant ":FileSnsUserStore" as store
participant ":RegisterSnsUsersController" as snscontroller
participant ":SnsUserStore" as snsstore
participant ":SnsUserMapper" as mapper
participant "dto:SnsUserDto" as dto
participant "user:SnsUser" as snsuser


activate admin

admin -> ui : requests to import a file with users
activate ui

ui - -> admin : requests data (path file)
deactivate ui

admin -> ui : inputs the data
activate ui

autonumber stop
loop #Salmon while path invalid or file blank
ui - -> admin: **4** informs admin that file path is invalid, or that the file is blank, requests valid file path
admin -> ui: **5** inputs the data (valid file path, and non blank file)
end
autonumber resume

ui -> controller: SeparateUsers(fileUsers)
activate controller

controller -> store: separateUsers(fileUsers)
activate store

store -> store: countUsers(fileUsers)
store - -> controller: returns array of users separated from the file
deactivate store

controller - -> ui: returns array of users separated from the file
deactivate controller

loop while remaining users to be verified
ui -> snscontroller: create new Dto with split data (name, address, sex, phoneNumber, email, birthdate, snsNumber, citizenCardNumber, smsPermission)
activate snscontroller

snscontroller -> snsstore: createSnsUser(dto)
activate snsstore

snsstore -> mapper : user = toSnsUser(dto)
activate mapper

mapper -> dto : name = getName()
activate dto
deactivate dto

mapper -> dto : snsNumber = getSnsNumber()
activate dto
deactivate dto

mapper -> dto : email = getEmail()
activate dto
deactivate dto

mapper -> dto : smsPermission = getSmsPermission()
activate dto
deactivate dto

mapper - -> snsuser : create(name,snsNumber,email,smsPermission)
deactivate mapper
activate snsuser

snsuser -> snsuser : validateInformation()
snsuser - -> snsstore: gives result of validation
deactivate snsuser

snsstore - -> snscontroller: gives result of validation
deactivate snsstore

snscontroller - -> ui: gives result of validation and if loop can continue
deactivate snscontroller
end

autonumber stop

alt #Salmon Parameter is incorrect, or user already exists
ui - -> admin: **21** Informs the user that a parameter is not valid, or a user with the same parameters already exists
autonumber resume
end

loop while remaining users to be registered
ui -> snscontroller: recreates Dto with data (name, address, sex, phoneNumber, email, birthdate, snsNumber, citizenCardNumber, smsPermission)
activate snscontroller

snscontroller -> snsstore: createSnsUser(dto)
activate snsstore

snsstore -> mapper : user = toSnsUser(dto)
activate mapper

mapper -> dto : name = getName()
activate dto
deactivate dto

mapper -> dto : snsNumber = getSnsNumber()
activate dto
deactivate dto

mapper -> dto : email = getEmail()
activate dto
deactivate dto

mapper -> dto : smsPermission = getSmsPermission()
activate dto
deactivate dto

mapper - -> snsuser : registers new user
deactivate mapper
activate snsuser

snsuser - -> snsstore: registerSnsUser()
deactivate snsuser

snsstore - -> snscontroller: RegisterSnsUser()
deactivate snsstore

snscontroller - -> ui: registeres sns user
deactivate snscontroller
end

ui - -> admin: gives message of success
deactivate ui

deactivate admin



@enduml

PlantUML version 1.2022.4(Sat Apr 09 14:29:17 BST 2022)
(GPL source distribution)
Java Runtime: OpenJDK Runtime Environment
JVM: OpenJDK 64-Bit Server VM
Default Encoding: Cp1252
Language: en
Country: US
--></g></svg>