<?xml version="1.0" encoding="UTF-8" standalone="no"?><svg xmlns="http://www.w3.org/2000/svg" xmlns:xlink="http://www.w3.org/1999/xlink" contentStyleType="text/css" height="1011px" preserveAspectRatio="none" style="width:1016px;height:1011px;background:#FFFFFF;" version="1.1" viewBox="0 0 1016 1011" width="1016px" zoomAndPan="magnify"><defs/><g><!--MD5=[573c365837752a8a4a55568ee206132a]
class WaitingRoomUI--><g id="elem_WaitingRoomUI"><rect codeLine="1" fill="#F1F1F1" height="48" id="WaitingRoomUI" rx="2.5" ry="2.5" style="stroke:#181818;stroke-width:0.5;" width="137" x="589.5" y="7"/><ellipse cx="604.5" cy="23" fill="#ADD1B2" rx="11" ry="11" style="stroke:#181818;stroke-width:1.0;"/><path d="M606.9731,29.1431 Q606.3921,29.4419 605.7529,29.5913 Q605.1138,29.7407 604.4082,29.7407 Q601.9014,29.7407 600.5815,28.0889 Q599.2617,26.437 599.2617,23.3159 Q599.2617,20.1865 600.5815,18.5347 Q601.9014,16.8828 604.4082,16.8828 Q605.1138,16.8828 605.7612,17.0322 Q606.4087,17.1816 606.9731,17.4805 L606.9731,20.2031 Q606.3423,19.6221 605.7488,19.3523 Q605.1553,19.0825 604.5244,19.0825 Q603.1797,19.0825 602.4949,20.1492 Q601.8101,21.2158 601.8101,23.3159 Q601.8101,25.4077 602.4949,26.4744 Q603.1797,27.541 604.5244,27.541 Q605.1553,27.541 605.7488,27.2712 Q606.3423,27.0015 606.9731,26.4204 Z " fill="#000000"/><text fill="#000000" font-family="sans-serif" font-size="14" lengthAdjust="spacing" textLength="105" x="618.5" y="28.291">WaitingRoomUI</text><line style="stroke:#181818;stroke-width:0.5;" x1="590.5" x2="725.5" y1="39" y2="39"/><line style="stroke:#181818;stroke-width:0.5;" x1="590.5" x2="725.5" y1="47" y2="47"/></g><!--MD5=[8dbe935b50738be731cb9db88d966ed4]
class WaitingRoomController--><g id="elem_WaitingRoomController"><rect codeLine="4" fill="#F1F1F1" height="80.9766" id="WaitingRoomController" rx="2.5" ry="2.5" style="stroke:#181818;stroke-width:0.5;" width="382" x="467" y="116"/><ellipse cx="573.25" cy="132" fill="#ADD1B2" rx="11" ry="11" style="stroke:#181818;stroke-width:1.0;"/><path d="M575.7231,138.1431 Q575.1421,138.4419 574.5029,138.5913 Q573.8638,138.7407 573.1582,138.7407 Q570.6514,138.7407 569.3315,137.0889 Q568.0117,135.437 568.0117,132.3159 Q568.0117,129.1865 569.3315,127.5347 Q570.6514,125.8828 573.1582,125.8828 Q573.8638,125.8828 574.5112,126.0322 Q575.1587,126.1816 575.7231,126.4805 L575.7231,129.2031 Q575.0923,128.6221 574.4988,128.3523 Q573.9053,128.0825 573.2744,128.0825 Q571.9297,128.0825 571.2449,129.1492 Q570.5601,130.2158 570.5601,132.3159 Q570.5601,134.4077 571.2449,135.4744 Q571.9297,136.541 573.2744,136.541 Q573.9053,136.541 574.4988,136.2712 Q575.0923,136.0015 575.7231,135.4204 Z " fill="#000000"/><text fill="#000000" font-family="sans-serif" font-size="14" lengthAdjust="spacing" textLength="161" x="593.75" y="137.291">WaitingRoomController</text><line style="stroke:#181818;stroke-width:0.5;" x1="468" x2="848" y1="148" y2="148"/><rect fill="none" height="6" style="stroke:#C82930;stroke-width:1.0;" width="6" x="475" y="156"/><text fill="#000000" font-family="sans-serif" font-size="14" lengthAdjust="spacing" textLength="324" x="487" y="165.5352">VaccinationCenterStore vaccinationCenterStore</text><line style="stroke:#181818;stroke-width:0.5;" x1="468" x2="848" y1="172.4883" y2="172.4883"/><ellipse cx="478" cy="183.4883" fill="#84BE84" rx="3" ry="3" style="stroke:#038048;stroke-width:1.0;"/><text fill="#000000" font-family="sans-serif" font-size="14" lengthAdjust="spacing" textLength="356" x="487" y="190.0234">displayWaitingRoom(String vaccinationCenterName)</text></g><!--MD5=[a29876ea2f21a6ca48ea477740122fd8]
class VaccinationCenterStore--><g id="elem_VaccinationCenterStore"><rect codeLine="9" fill="#F1F1F1" height="80.9766" id="VaccinationCenterStore" rx="2.5" ry="2.5" style="stroke:#181818;stroke-width:0.5;" width="395" x="460.5" y="258"/><ellipse cx="573.25" cy="274" fill="#ADD1B2" rx="11" ry="11" style="stroke:#181818;stroke-width:1.0;"/><path d="M575.7231,280.1431 Q575.1421,280.4419 574.5029,280.5913 Q573.8638,280.7407 573.1582,280.7407 Q570.6514,280.7407 569.3315,279.0889 Q568.0117,277.437 568.0117,274.3159 Q568.0117,271.1865 569.3315,269.5347 Q570.6514,267.8828 573.1582,267.8828 Q573.8638,267.8828 574.5112,268.0322 Q575.1587,268.1816 575.7231,268.4805 L575.7231,271.2031 Q575.0923,270.6221 574.4988,270.3523 Q573.9053,270.0825 573.2744,270.0825 Q571.9297,270.0825 571.2449,271.1492 Q570.5601,272.2158 570.5601,274.3159 Q570.5601,276.4077 571.2449,277.4744 Q571.9297,278.541 573.2744,278.541 Q573.9053,278.541 574.4988,278.2712 Q575.0923,278.0015 575.7231,277.4204 Z " fill="#000000"/><text fill="#000000" font-family="sans-serif" font-size="14" lengthAdjust="spacing" textLength="161" x="593.75" y="279.291">VaccinationCenterStore</text><line style="stroke:#181818;stroke-width:0.5;" x1="461.5" x2="854.5" y1="290" y2="290"/><rect fill="none" height="6" style="stroke:#C82930;stroke-width:1.0;" width="6" x="468.5" y="298"/><text fill="#000000" font-family="sans-serif" font-size="14" lengthAdjust="spacing" textLength="309" x="480.5" y="307.5352">HashMap&lt;String,VaccinationCenter&gt; centers</text><line style="stroke:#181818;stroke-width:0.5;" x1="461.5" x2="854.5" y1="314.4883" y2="314.4883"/><ellipse cx="471.5" cy="325.4883" fill="#84BE84" rx="3" ry="3" style="stroke:#038048;stroke-width:1.0;"/><text fill="#000000" font-family="sans-serif" font-size="14" lengthAdjust="spacing" textLength="369" x="480.5" y="332.0234">findVaccinationCenter(String vaccinationCenterName)</text></g><!--MD5=[de60e6d4f424ae4d0522096f76a59010]
class VaccinationCenter--><g id="elem_VaccinationCenter"><rect codeLine="14" fill="#F1F1F1" height="80.9766" id="VaccinationCenter" rx="2.5" ry="2.5" style="stroke:#181818;stroke-width:0.5;" width="303" x="632.5" y="416"/><ellipse cx="717.25" cy="432" fill="#ADD1B2" rx="11" ry="11" style="stroke:#181818;stroke-width:1.0;"/><path d="M719.7231,438.1431 Q719.1421,438.4419 718.5029,438.5913 Q717.8638,438.7407 717.1582,438.7407 Q714.6514,438.7407 713.3315,437.0889 Q712.0117,435.437 712.0117,432.3159 Q712.0117,429.1865 713.3315,427.5347 Q714.6514,425.8828 717.1582,425.8828 Q717.8638,425.8828 718.5112,426.0322 Q719.1587,426.1816 719.7231,426.4805 L719.7231,429.2031 Q719.0923,428.6221 718.4988,428.3523 Q717.9053,428.0825 717.2744,428.0825 Q715.9297,428.0825 715.2449,429.1492 Q714.5601,430.2158 714.5601,432.3159 Q714.5601,434.4077 715.2449,435.4744 Q715.9297,436.541 717.2744,436.541 Q717.9053,436.541 718.4988,436.2712 Q719.0923,436.0015 719.7231,435.4204 Z " fill="#000000"/><text fill="#000000" font-family="sans-serif" font-size="14" lengthAdjust="spacing" textLength="125" x="737.75" y="437.291">VaccinationCenter</text><line style="stroke:#181818;stroke-width:0.5;" x1="633.5" x2="934.5" y1="448" y2="448"/><rect fill="none" height="6" style="stroke:#C82930;stroke-width:1.0;" width="6" x="640.5" y="456"/><text fill="#000000" font-family="sans-serif" font-size="14" lengthAdjust="spacing" textLength="277" x="652.5" y="465.5352">List&lt;Pair&lt;SnsUser,Hour&gt;&gt; usersArrived</text><line style="stroke:#181818;stroke-width:0.5;" x1="633.5" x2="934.5" y1="472.4883" y2="472.4883"/><ellipse cx="643.5" cy="483.4883" fill="#84BE84" rx="3" ry="3" style="stroke:#038048;stroke-width:1.0;"/><text fill="#000000" font-family="sans-serif" font-size="14" lengthAdjust="spacing" textLength="120" x="652.5" y="490.0234">getUsersArrived()</text></g><!--MD5=[f7c67bc1ef36d5d8df4ebb55a80953b6]
class VaccinationCenterMapper--><g id="elem_VaccinationCenterMapper"><rect codeLine="19" fill="#F1F1F1" height="64.4883" id="VaccinationCenterMapper" rx="2.5" ry="2.5" style="stroke:#181818;stroke-width:0.5;" width="450" x="559" y="558"/><ellipse cx="691.25" cy="574" fill="#ADD1B2" rx="11" ry="11" style="stroke:#181818;stroke-width:1.0;"/><path d="M693.7231,580.1431 Q693.1421,580.4419 692.5029,580.5913 Q691.8638,580.7407 691.1582,580.7407 Q688.6514,580.7407 687.3315,579.0889 Q686.0117,577.437 686.0117,574.3159 Q686.0117,571.1865 687.3315,569.5347 Q688.6514,567.8828 691.1582,567.8828 Q691.8638,567.8828 692.5112,568.0322 Q693.1587,568.1816 693.7231,568.4805 L693.7231,571.2031 Q693.0923,570.6221 692.4988,570.3523 Q691.9053,570.0825 691.2744,570.0825 Q689.9297,570.0825 689.2449,571.1492 Q688.5601,572.2158 688.5601,574.3159 Q688.5601,576.4077 689.2449,577.4744 Q689.9297,578.541 691.2744,578.541 Q691.9053,578.541 692.4988,578.2712 Q693.0923,578.0015 693.7231,577.4204 Z " fill="#000000"/><text fill="#000000" font-family="sans-serif" font-size="14" lengthAdjust="spacing" textLength="177" x="711.75" y="579.291">VaccinationCenterMapper</text><line style="stroke:#181818;stroke-width:0.5;" x1="560" x2="1008" y1="590" y2="590"/><line style="stroke:#181818;stroke-width:0.5;" x1="560" x2="1008" y1="598" y2="598"/><ellipse cx="570" cy="609" fill="#84BE84" rx="3" ry="3" style="stroke:#038048;stroke-width:1.0;"/><text fill="#000000" font-family="sans-serif" font-size="14" lengthAdjust="spacing" textLength="424" x="579" y="615.5352">usersArrivaltoDto(List&lt;Pair&lt;SnsUser, Hour&gt;&gt; userArrivedlist)</text></g><!--MD5=[76e6a35c5da8e7eae8828a71bc622a44]
class SnsUserMapper--><g id="elem_SnsUserMapper"><rect codeLine="22" fill="#F1F1F1" height="64.4883" id="SnsUserMapper" rx="2.5" ry="2.5" style="stroke:#181818;stroke-width:0.5;" width="242" x="541" y="683"/><ellipse cx="604.25" cy="699" fill="#ADD1B2" rx="11" ry="11" style="stroke:#181818;stroke-width:1.0;"/><path d="M606.7231,705.1431 Q606.1421,705.4419 605.5029,705.5913 Q604.8638,705.7407 604.1582,705.7407 Q601.6514,705.7407 600.3315,704.0889 Q599.0117,702.437 599.0117,699.3159 Q599.0117,696.1865 600.3315,694.5347 Q601.6514,692.8828 604.1582,692.8828 Q604.8638,692.8828 605.5112,693.0322 Q606.1587,693.1816 606.7231,693.4805 L606.7231,696.2031 Q606.0923,695.6221 605.4988,695.3523 Q604.9053,695.0825 604.2744,695.0825 Q602.9297,695.0825 602.2449,696.1492 Q601.5601,697.2158 601.5601,699.3159 Q601.5601,701.4077 602.2449,702.4744 Q602.9297,703.541 604.2744,703.541 Q604.9053,703.541 605.4988,703.2712 Q606.0923,703.0015 606.7231,702.4204 Z " fill="#000000"/><text fill="#000000" font-family="sans-serif" font-size="14" lengthAdjust="spacing" textLength="107" x="624.75" y="704.291">SnsUserMapper</text><line style="stroke:#181818;stroke-width:0.5;" x1="542" x2="782" y1="715" y2="715"/><line style="stroke:#181818;stroke-width:0.5;" x1="542" x2="782" y1="723" y2="723"/><ellipse cx="552" cy="734" fill="#84BE84" rx="3" ry="3" style="stroke:#038048;stroke-width:1.0;"/><text fill="#000000" font-family="sans-serif" font-size="14" lengthAdjust="spacing" textLength="216" x="561" y="740.5352">toSnsUserDto(SnsUser snsUser)</text></g><!--MD5=[675fc936b7ba9340739d9069ceb8fc94]
class SnsUserDto--><g id="elem_SnsUserDto"><rect codeLine="25" fill="#F1F1F1" height="196.3945" id="SnsUserDto" rx="2.5" ry="2.5" style="stroke:#181818;stroke-width:0.5;" width="204" x="560" y="808"/><ellipse cx="618.25" cy="824" fill="#ADD1B2" rx="11" ry="11" style="stroke:#181818;stroke-width:1.0;"/><path d="M620.7231,830.1431 Q620.1421,830.4419 619.5029,830.5913 Q618.8638,830.7407 618.1582,830.7407 Q615.6514,830.7407 614.3315,829.0889 Q613.0117,827.437 613.0117,824.3159 Q613.0117,821.1865 614.3315,819.5347 Q615.6514,817.8828 618.1582,817.8828 Q618.8638,817.8828 619.5112,818.0322 Q620.1587,818.1816 620.7231,818.4805 L620.7231,821.2031 Q620.0923,820.6221 619.4988,820.3523 Q618.9053,820.0825 618.2744,820.0825 Q616.9297,820.0825 616.2449,821.1492 Q615.5601,822.2158 615.5601,824.3159 Q615.5601,826.4077 616.2449,827.4744 Q616.9297,828.541 618.2744,828.541 Q618.9053,828.541 619.4988,828.2712 Q620.0923,828.0015 620.7231,827.4204 Z " fill="#000000"/><text fill="#000000" font-family="sans-serif" font-size="14" lengthAdjust="spacing" textLength="79" x="638.75" y="829.291">SnsUserDto</text><line style="stroke:#181818;stroke-width:0.5;" x1="561" x2="763" y1="840" y2="840"/><rect fill="none" height="6" style="stroke:#C82930;stroke-width:1.0;" width="6" x="568" y="848"/><text fill="#000000" font-family="sans-serif" font-size="14" lengthAdjust="spacing" textLength="83" x="580" y="857.5352">String name</text><rect fill="none" height="6" style="stroke:#C82930;stroke-width:1.0;" width="6" x="568" y="864.4883"/><text fill="#000000" font-family="sans-serif" font-size="14" lengthAdjust="spacing" textLength="99" x="580" y="874.0234">String address</text><rect fill="none" height="6" style="stroke:#C82930;stroke-width:1.0;" width="6" x="568" y="880.9766"/><text fill="#000000" font-family="sans-serif" font-size="14" lengthAdjust="spacing" textLength="69" x="580" y="890.5117">String sex</text><rect fill="none" height="6" style="stroke:#C82930;stroke-width:1.0;" width="6" x="568" y="897.4648"/><text fill="#000000" font-family="sans-serif" font-size="14" lengthAdjust="spacing" textLength="144" x="580" y="907">String phoneNumber</text><rect fill="none" height="6" style="stroke:#C82930;stroke-width:1.0;" width="6" x="568" y="913.9531"/><text fill="#000000" font-family="sans-serif" font-size="14" lengthAdjust="spacing" textLength="82" x="580" y="923.4883">String email</text><rect fill="none" height="6" style="stroke:#C82930;stroke-width:1.0;" width="6" x="568" y="930.4414"/><text fill="#000000" font-family="sans-serif" font-size="14" lengthAdjust="spacing" textLength="109" x="580" y="939.9766">String birthDate</text><rect fill="none" height="6" style="stroke:#C82930;stroke-width:1.0;" width="6" x="568" y="946.9297"/><text fill="#000000" font-family="sans-serif" font-size="14" lengthAdjust="spacing" textLength="123" x="580" y="956.4648">String snsNumber</text><rect fill="none" height="6" style="stroke:#C82930;stroke-width:1.0;" width="6" x="568" y="963.418"/><text fill="#000000" font-family="sans-serif" font-size="14" lengthAdjust="spacing" textLength="178" x="580" y="972.9531">String citizenCardNumber</text><rect fill="none" height="6" style="stroke:#C82930;stroke-width:1.0;" width="6" x="568" y="979.9063"/><text fill="#000000" font-family="sans-serif" font-size="14" lengthAdjust="spacing" textLength="124" x="580" y="989.4414">int smsPermission</text><line style="stroke:#181818;stroke-width:0.5;" x1="561" x2="763" y1="996.3945" y2="996.3945"/></g><!--MD5=[d05793ad1935173a513331b00b12e65c]
class HourMapper--><g id="elem_HourMapper"><rect codeLine="36" fill="#F1F1F1" height="64.4883" id="HourMapper" rx="2.5" ry="2.5" style="stroke:#181818;stroke-width:0.5;" width="179" x="818.5" y="683"/><ellipse cx="860.95" cy="699" fill="#ADD1B2" rx="11" ry="11" style="stroke:#181818;stroke-width:1.0;"/><path d="M863.4231,705.1431 Q862.8421,705.4419 862.2029,705.5913 Q861.5638,705.7407 860.8582,705.7407 Q858.3514,705.7407 857.0315,704.0889 Q855.7117,702.437 855.7117,699.3159 Q855.7117,696.1865 857.0315,694.5347 Q858.3514,692.8828 860.8582,692.8828 Q861.5638,692.8828 862.2112,693.0322 Q862.8587,693.1816 863.4231,693.4805 L863.4231,696.2031 Q862.7923,695.6221 862.1988,695.3523 Q861.6053,695.0825 860.9744,695.0825 Q859.6297,695.0825 858.9449,696.1492 Q858.2601,697.2158 858.2601,699.3159 Q858.2601,701.4077 858.9449,702.4744 Q859.6297,703.541 860.9744,703.541 Q861.6053,703.541 862.1988,703.2712 Q862.7923,703.0015 863.4231,702.4204 Z " fill="#000000"/><text fill="#000000" font-family="sans-serif" font-size="14" lengthAdjust="spacing" textLength="86" x="881.05" y="704.291">HourMapper</text><line style="stroke:#181818;stroke-width:0.5;" x1="819.5" x2="996.5" y1="715" y2="715"/><line style="stroke:#181818;stroke-width:0.5;" x1="819.5" x2="996.5" y1="723" y2="723"/><ellipse cx="829.5" cy="734" fill="#84BE84" rx="3" ry="3" style="stroke:#038048;stroke-width:1.0;"/><text fill="#000000" font-family="sans-serif" font-size="14" lengthAdjust="spacing" textLength="153" x="838.5" y="740.5352">toHourDto(Hour hour)</text></g><!--MD5=[7e8fef77d0bf062ccdd77f2c7d6c661b]
class HourDto--><g id="elem_HourDto"><rect codeLine="39" fill="#F1F1F1" height="97.4648" id="HourDto" rx="2.5" ry="2.5" style="stroke:#181818;stroke-width:0.5;" width="104" x="856" y="857.5"/><ellipse cx="877.3" cy="873.5" fill="#ADD1B2" rx="11" ry="11" style="stroke:#181818;stroke-width:1.0;"/><path d="M879.7731,879.6431 Q879.1921,879.9419 878.5529,880.0913 Q877.9138,880.2407 877.2082,880.2407 Q874.7014,880.2407 873.3815,878.5889 Q872.0617,876.937 872.0617,873.8159 Q872.0617,870.6865 873.3815,869.0347 Q874.7014,867.3828 877.2082,867.3828 Q877.9138,867.3828 878.5612,867.5322 Q879.2087,867.6816 879.7731,867.9805 L879.7731,870.7031 Q879.1423,870.1221 878.5488,869.8523 Q877.9553,869.5825 877.3244,869.5825 Q875.9797,869.5825 875.2949,870.6492 Q874.6101,871.7158 874.6101,873.8159 Q874.6101,875.9077 875.2949,876.9744 Q875.9797,878.041 877.3244,878.041 Q877.9553,878.041 878.5488,877.7712 Q879.1423,877.5015 879.7731,876.9204 Z " fill="#000000"/><text fill="#000000" font-family="sans-serif" font-size="14" lengthAdjust="spacing" textLength="58" x="892.7" y="878.791">HourDto</text><line style="stroke:#181818;stroke-width:0.5;" x1="857" x2="959" y1="889.5" y2="889.5"/><rect fill="none" height="6" style="stroke:#C82930;stroke-width:1.0;" width="6" x="864" y="897.5"/><text fill="#000000" font-family="sans-serif" font-size="14" lengthAdjust="spacing" textLength="55" x="876" y="907.0352">int hour</text><rect fill="none" height="6" style="stroke:#C82930;stroke-width:1.0;" width="6" x="864" y="913.9883"/><text fill="#000000" font-family="sans-serif" font-size="14" lengthAdjust="spacing" textLength="77" x="876" y="923.5234">int minutes</text><rect fill="none" height="6" style="stroke:#C82930;stroke-width:1.0;" width="6" x="864" y="930.4766"/><text fill="#000000" font-family="sans-serif" font-size="14" lengthAdjust="spacing" textLength="78" x="876" y="940.0117">int seconds</text><line style="stroke:#181818;stroke-width:0.5;" x1="857" x2="959" y1="946.9648" y2="946.9648"/></g><!--MD5=[02e4b9b7573f1156f41e60aa5b4e25a4]
class Company--><g id="elem_Company"><rect codeLine="44" fill="#F1F1F1" height="80.9766" id="Company" rx="2.5" ry="2.5" style="stroke:#181818;stroke-width:0.5;" width="350" x="7" y="258"/><ellipse cx="145.25" cy="274" fill="#ADD1B2" rx="11" ry="11" style="stroke:#181818;stroke-width:1.0;"/><path d="M147.7231,280.1431 Q147.1421,280.4419 146.5029,280.5913 Q145.8638,280.7407 145.1582,280.7407 Q142.6514,280.7407 141.3315,279.0889 Q140.0117,277.437 140.0117,274.3159 Q140.0117,271.1865 141.3315,269.5347 Q142.6514,267.8828 145.1582,267.8828 Q145.8638,267.8828 146.5112,268.0322 Q147.1587,268.1816 147.7231,268.4805 L147.7231,271.2031 Q147.0923,270.6221 146.4988,270.3523 Q145.9053,270.0825 145.2744,270.0825 Q143.9297,270.0825 143.2449,271.1492 Q142.5601,272.2158 142.5601,274.3159 Q142.5601,276.4077 143.2449,277.4744 Q143.9297,278.541 145.2744,278.541 Q145.9053,278.541 146.4988,278.2712 Q147.0923,278.0015 147.7231,277.4204 Z " fill="#000000"/><text fill="#000000" font-family="sans-serif" font-size="14" lengthAdjust="spacing" textLength="65" x="165.75" y="279.291">Company</text><line style="stroke:#181818;stroke-width:0.5;" x1="8" x2="356" y1="290" y2="290"/><rect fill="none" height="6" style="stroke:#C82930;stroke-width:1.0;" width="6" x="15" y="298"/><text fill="#000000" font-family="sans-serif" font-size="14" lengthAdjust="spacing" textLength="324" x="27" y="307.5352">VaccinationCenterStore vaccinationCenterStore</text><line style="stroke:#181818;stroke-width:0.5;" x1="8" x2="356" y1="314.4883" y2="314.4883"/><ellipse cx="18" cy="325.4883" fill="#84BE84" rx="3" ry="3" style="stroke:#038048;stroke-width:1.0;"/><text fill="#000000" font-family="sans-serif" font-size="14" lengthAdjust="spacing" textLength="193" x="27" y="332.0234">getVaccinationCenterStore()</text></g><!--MD5=[bc0d5b4bfe6e1bf0a8fced13bc4bdd47]
link Company to VaccinationCenterStore--><g id="link_Company_VaccinationCenterStore"><path codeLine="49" d="M357.22,298.5 C389.05,298.5 422.49,298.5 455.04,298.5 " fill="none" id="Company-to-VaccinationCenterStore" style="stroke:#181818;stroke-width:1.0;"/><polygon fill="#181818" points="460.26,298.5,451.26,294.5,455.26,298.5,451.26,302.5,460.26,298.5" style="stroke:#181818;stroke-width:1.0;"/><polygon fill="#000000" points="384.25,287.1553,375.2049,284.2163,375.2049,290.0942,384.25,287.1553" style="stroke:#000000;stroke-width:1.0;"/><text fill="#000000" font-family="sans-serif" font-size="13" lengthAdjust="spacing" textLength="54" x="388.25" y="292.0684">contains</text></g><!--MD5=[8fb4cf35dccb63f417b3b4d6bc63e6fb]
link WaitingRoomUI to WaitingRoomController--><g id="link_WaitingRoomUI_WaitingRoomController"><path codeLine="50" d="M658,55.23 C658,70.81 658,91.85 658,110.63 " fill="none" id="WaitingRoomUI-to-WaitingRoomController" style="stroke:#181818;stroke-width:1.0;stroke-dasharray:7.0,7.0;"/><polygon fill="#181818" points="658,115.86,662,106.86,658,110.86,654,106.86,658,115.86" style="stroke:#181818;stroke-width:1.0;"/></g><!--MD5=[bfb427fa8e0c36a6b8a4d257ffd84265]
link WaitingRoomController to VaccinationCenterStore--><g id="link_WaitingRoomController_VaccinationCenterStore"><path codeLine="51" d="M658,197.24 C658,214.39 658,234.53 658,252.24 " fill="none" id="WaitingRoomController-to-VaccinationCenterStore" style="stroke:#181818;stroke-width:1.0;stroke-dasharray:7.0,7.0;"/><polygon fill="#181818" points="658,257.66,662,248.66,658,252.66,654,248.66,658,257.66" style="stroke:#181818;stroke-width:1.0;"/></g><!--MD5=[00048e66bd1eb75c6fecd6b3aa644c51]
link WaitingRoomController to Company--><g id="link_WaitingRoomController_Company"><path codeLine="52" d="M523.51,197.06 C460.41,215.62 385.25,237.72 321.53,256.46 " fill="none" id="WaitingRoomController-to-Company" style="stroke:#181818;stroke-width:1.0;stroke-dasharray:7.0,7.0;"/><polygon fill="#181818" points="316.57,257.92,326.33,259.24,321.37,256.52,324.09,251.56,316.57,257.92" style="stroke:#181818;stroke-width:1.0;"/></g><!--MD5=[8c304936b446fd8cea914e03fbadd4b7]
link VaccinationCenterStore to VaccinationCenter--><g id="link_VaccinationCenterStore_VaccinationCenter"><path codeLine="53" d="M690.12,339.27 C708.04,361.46 730.39,389.13 748.79,411.9 " fill="none" id="VaccinationCenterStore-to-VaccinationCenter" style="stroke:#181818;stroke-width:1.0;"/><polygon fill="#181818" points="751.94,415.8,749.4073,406.2824,748.8026,411.9068,743.1782,411.3022,751.94,415.8" style="stroke:#181818;stroke-width:1.0;"/><polygon fill="#000000" points="733.1419,381.5448,729.7443,372.6618,725.1719,376.3554,733.1419,381.5448" style="stroke:#000000;stroke-width:1.0;"/><text fill="#000000" font-family="sans-serif" font-size="13" lengthAdjust="spacing" textLength="54" x="739" y="382.5684">contains</text></g><!--MD5=[88e463ee6063a449697063d272d4dd6c]
link WaitingRoomController to VaccinationCenter--><g id="link_WaitingRoomController_VaccinationCenter"><path codeLine="54" d="M801.64,197.08 C829.9,211.61 856.02,231.32 873,258 C904.69,307.79 864.08,370.76 827.9,412.04 " fill="none" id="WaitingRoomController-to-VaccinationCenter" style="stroke:#181818;stroke-width:1.0;stroke-dasharray:7.0,7.0;"/><polygon fill="#181818" points="824.42,415.96,833.3812,411.8738,827.7347,412.2167,827.3918,406.5702,824.42,415.96" style="stroke:#181818;stroke-width:1.0;"/></g><!--MD5=[f2b3cf90d31446b69d2019995602cfc5]
link VaccinationCenter to VaccinationCenterMapper--><g id="link_VaccinationCenter_VaccinationCenterMapper"><path codeLine="55" d="M784,497.31 C784,514.85 784,535.32 784,552.46 " fill="none" id="VaccinationCenter-to-VaccinationCenterMapper" style="stroke:#181818;stroke-width:1.0;stroke-dasharray:7.0,7.0;"/><polygon fill="#181818" points="784,557.67,788,548.67,784,552.67,780,548.67,784,557.67" style="stroke:#181818;stroke-width:1.0;"/></g><!--MD5=[d0b0969f457c2b440edb93529ac26f87]
link VaccinationCenterMapper to SnsUserMapper--><g id="link_VaccinationCenterMapper_SnsUserMapper"><path codeLine="56" d="M753.21,622.04 C735.88,639.52 714.18,661.39 696.3,679.42 " fill="none" id="VaccinationCenterMapper-to-SnsUserMapper" style="stroke:#181818;stroke-width:1.0;stroke-dasharray:7.0,7.0;"/><polygon fill="#181818" points="692.78,682.97,701.9508,679.3788,696.294,679.4131,696.2598,673.7564,692.78,682.97" style="stroke:#181818;stroke-width:1.0;"/></g><!--MD5=[b8d59a77050866aa024e30020d14703a]
link VaccinationCenterMapper to HourMapper--><g id="link_VaccinationCenterMapper_HourMapper"><path codeLine="57" d="M815.29,622.04 C832.91,639.52 854.96,661.39 873.14,679.42 " fill="none" id="VaccinationCenterMapper-to-HourMapper" style="stroke:#181818;stroke-width:1.0;stroke-dasharray:7.0,7.0;"/><polygon fill="#181818" points="876.72,682.97,873.1473,673.792,873.1702,679.4488,867.5134,679.4717,876.72,682.97" style="stroke:#181818;stroke-width:1.0;"/></g><!--MD5=[7640bddd01128eef993c2aaea78256eb]
link SnsUserMapper to SnsUserDto--><g id="link_SnsUserMapper_SnsUserDto"><path codeLine="58" d="M662,747.21 C662,762.67 662,782.32 662,802.46 " fill="none" id="SnsUserMapper-to-SnsUserDto" style="stroke:#181818;stroke-width:1.0;stroke-dasharray:7.0,7.0;"/><polygon fill="#181818" points="662,807.59,666,798.59,662,802.59,658,798.59,662,807.59" style="stroke:#181818;stroke-width:1.0;"/></g><!--MD5=[dcdac24485e2ee7325a1cded54346d06]
link HourMapper to HourDto--><g id="link_HourMapper_HourDto"><path codeLine="59" d="M908,747.21 C908,775.67 908,818.31 908,852.09 " fill="none" id="HourMapper-to-HourDto" style="stroke:#181818;stroke-width:1.0;stroke-dasharray:7.0,7.0;"/><polygon fill="#181818" points="908,857.44,912,848.44,908,852.44,904,848.44,908,857.44" style="stroke:#181818;stroke-width:1.0;"/></g><!--MD5=[de677a3f32c753986aba38d8afe7dc34]
@startuml
class WaitingRoomUI{

}
class WaitingRoomController{
-VaccinationCenterStore vaccinationCenterStore

+displayWaitingRoom(String vaccinationCenterName)
}
class VaccinationCenterStore{
-HashMap<String,VaccinationCenter> centers

+findVaccinationCenter(String vaccinationCenterName)
}
class VaccinationCenter{
-List<Pair<SnsUser,Hour>> usersArrived

 +getUsersArrived()
}
class VaccinationCenterMapper{
+usersArrivaltoDto(List<Pair<SnsUser, Hour>> userArrivedlist)
}
class SnsUserMapper{
+toSnsUserDto(SnsUser snsUser)
}
class SnsUserDto{
-String name
-String address
-String sex
-String phoneNumber
-String email
-String birthDate
-String snsNumber
-String citizenCardNumber
-int smsPermission
}
class HourMapper{
+toHourDto(Hour hour)
}
class HourDto{
-int hour
-int minutes
-int seconds
}
class Company{
-VaccinationCenterStore vaccinationCenterStore
+getVaccinationCenterStore()

}
Company->VaccinationCenterStore : contains >
WaitingRoomUI..>WaitingRoomController
WaitingRoomController..>VaccinationCenterStore
WaitingRoomController..>Company
VaccinationCenterStore- ->VaccinationCenter:contains >
WaitingRoomController..>VaccinationCenter
VaccinationCenter..>VaccinationCenterMapper
VaccinationCenterMapper..>SnsUserMapper
VaccinationCenterMapper..>HourMapper
SnsUserMapper..>SnsUserDto
HourMapper..>HourDto




@enduml

PlantUML version 1.2022.4(Sat Apr 09 14:29:17 WEST 2022)
(GPL source distribution)
Java Runtime: OpenJDK Runtime Environment
JVM: OpenJDK 64-Bit Server VM
Default Encoding: UTF-8
Language: pt
Country: PT
--></g></svg>