<?xml version="1.0" encoding="UTF-8" standalone="no"?><svg xmlns="http://www.w3.org/2000/svg" xmlns:xlink="http://www.w3.org/1999/xlink" contentScriptType="application/ecmascript" contentStyleType="text/css" height="734px" preserveAspectRatio="none" style="width:1207px;height:734px;background:#FFFFFF;" version="1.1" viewBox="0 0 1207 734" width="1207px" zoomAndPan="magnify"><defs><filter height="300%" id="f9g3oc7eco04a" width="300%" x="-1" y="-1"><feGaussianBlur result="blurOut" stdDeviation="2.0"/><feColorMatrix in="blurOut" result="blurOut2" type="matrix" values="0 0 0 0 0 0 0 0 0 0 0 0 0 0 0 0 0 0 .4 0"/><feOffset dx="4.0" dy="4.0" in="blurOut2" result="blurOut3"/><feBlend in="SourceGraphic" in2="blurOut3" mode="normal"/></filter></defs><g><!--MD5=[de60e6d4f424ae4d0522096f76a59010]
class VaccinationCenter--><rect codeLine="2" fill="#FEFECE" filter="url(#f9g3oc7eco04a)" height="177.5508" id="VaccinationCenter" style="stroke:#A80036;stroke-width:1.5;" width="147" x="526.5" y="383"/><ellipse cx="546.9" cy="399" fill="#ADD1B2" rx="11" ry="11" style="stroke:#A80036;stroke-width:1.0;"/><path d="M549.3731,405.1431 Q548.7921,405.4419 548.1529,405.5913 Q547.5138,405.7407 546.8082,405.7407 Q544.3014,405.7407 542.9815,404.0889 Q541.6617,402.437 541.6617,399.3159 Q541.6617,396.1865 542.9815,394.5347 Q544.3014,392.8828 546.8082,392.8828 Q547.5138,392.8828 548.1612,393.0322 Q548.8087,393.1816 549.3731,393.4805 L549.3731,396.2031 Q548.7423,395.6221 548.1488,395.3523 Q547.5553,395.0825 546.9244,395.0825 Q545.5797,395.0825 544.8949,396.1492 Q544.2101,397.2158 544.2101,399.3159 Q544.2101,401.4077 544.8949,402.4744 Q545.5797,403.541 546.9244,403.541 Q547.5553,403.541 548.1488,403.2712 Q548.7423,403.0015 549.3731,402.4204 Z " fill="#000000"/><text fill="#000000" font-family="sans-serif" font-size="12" lengthAdjust="spacing" textLength="103" x="562.1" y="403.5352">VaccinationCenter</text><line style="stroke:#A80036;stroke-width:1.5;" x1="527.5" x2="672.5" y1="415" y2="415"/><rect fill="none" height="6" style="stroke:#C82930;stroke-width:1.0;" width="6" x="534.5" y="423"/><text fill="#000000" font-family="sans-serif" font-size="11" lengthAdjust="spacing" textLength="87" x="546.5" y="429.6348">String pandemic</text><rect fill="none" height="6" style="stroke:#C82930;stroke-width:1.0;" width="6" x="534.5" y="435.9551"/><text fill="#000000" font-family="sans-serif" font-size="11" lengthAdjust="spacing" textLength="64" x="546.5" y="442.5898">String name</text><rect fill="none" height="6" style="stroke:#C82930;stroke-width:1.0;" width="6" x="534.5" y="448.9102"/><text fill="#000000" font-family="sans-serif" font-size="11" lengthAdjust="spacing" textLength="78" x="546.5" y="455.5449">String address</text><rect fill="none" height="6" style="stroke:#C82930;stroke-width:1.0;" width="6" x="534.5" y="461.8652"/><text fill="#000000" font-family="sans-serif" font-size="11" lengthAdjust="spacing" textLength="93" x="546.5" y="468.5">int phonenumber</text><rect fill="none" height="6" style="stroke:#C82930;stroke-width:1.0;" width="6" x="534.5" y="474.8203"/><text fill="#000000" font-family="sans-serif" font-size="11" lengthAdjust="spacing" textLength="76" x="546.5" y="481.4551">int faxnumber</text><rect fill="none" height="6" style="stroke:#C82930;stroke-width:1.0;" width="6" x="534.5" y="487.7754"/><text fill="#000000" font-family="sans-serif" font-size="11" lengthAdjust="spacing" textLength="121" x="546.5" y="494.4102">string website address</text><rect fill="none" height="6" style="stroke:#C82930;stroke-width:1.0;" width="6" x="534.5" y="500.7305"/><text fill="#000000" font-family="sans-serif" font-size="11" lengthAdjust="spacing" textLength="111" x="546.5" y="507.3652">string openinghours</text><rect fill="none" height="6" style="stroke:#C82930;stroke-width:1.0;" width="6" x="534.5" y="513.6855"/><text fill="#000000" font-family="sans-serif" font-size="11" lengthAdjust="spacing" textLength="106" x="546.5" y="520.3203">string closinghours</text><rect fill="none" height="6" style="stroke:#C82930;stroke-width:1.0;" width="6" x="534.5" y="526.6406"/><text fill="#000000" font-family="sans-serif" font-size="11" lengthAdjust="spacing" textLength="83" x="546.5" y="533.2754">int slotduration</text><rect fill="none" height="6" style="stroke:#C82930;stroke-width:1.0;" width="6" x="534.5" y="539.5957"/><text fill="#000000" font-family="sans-serif" font-size="11" lengthAdjust="spacing" textLength="86" x="546.5" y="546.2305">int maxvaccines</text><line style="stroke:#A80036;stroke-width:1.5;" x1="527.5" x2="672.5" y1="552.5508" y2="552.5508"/><!--MD5=[56872536300a053cf9fd13853ad6ab1e]
class CommunityMassVaccinationCenter--><rect codeLine="16" fill="#FEFECE" filter="url(#f9g3oc7eco04a)" height="99.8203" id="CommunityMassVaccinationCenter" style="stroke:#A80036;stroke-width:1.5;" width="228" x="377" y="621"/><ellipse cx="392" cy="637" fill="#ADD1B2" rx="11" ry="11" style="stroke:#A80036;stroke-width:1.0;"/><path d="M394.4731,643.1431 Q393.8921,643.4419 393.2529,643.5913 Q392.6138,643.7407 391.9082,643.7407 Q389.4014,643.7407 388.0815,642.0889 Q386.7617,640.437 386.7617,637.3159 Q386.7617,634.1865 388.0815,632.5347 Q389.4014,630.8828 391.9082,630.8828 Q392.6138,630.8828 393.2612,631.0322 Q393.9087,631.1816 394.4731,631.4805 L394.4731,634.2031 Q393.8423,633.6221 393.2488,633.3523 Q392.6553,633.0825 392.0244,633.0825 Q390.6797,633.0825 389.9949,634.1492 Q389.3101,635.2158 389.3101,637.3159 Q389.3101,639.4077 389.9949,640.4744 Q390.6797,641.541 392.0244,641.541 Q392.6553,641.541 393.2488,641.2712 Q393.8423,641.0015 394.4731,640.4204 Z " fill="#000000"/><text fill="#000000" font-family="sans-serif" font-size="12" lengthAdjust="spacing" textLength="196" x="406" y="641.5352">CommunityMassVaccinationCenter</text><line style="stroke:#A80036;stroke-width:1.5;" x1="378" x2="604" y1="653" y2="653"/><rect fill="none" height="6" style="stroke:#C82930;stroke-width:1.0;" width="6" x="385" y="661"/><text fill="#000000" font-family="sans-serif" font-size="11" lengthAdjust="spacing" textLength="58" x="397" y="667.6348">String type</text><rect fill="none" height="6" style="stroke:#C82930;stroke-width:1.0;" width="6" x="385" y="673.9551"/><text fill="#000000" font-family="sans-serif" font-size="11" lengthAdjust="spacing" textLength="81" x="397" y="680.5898">String[] brands</text><line style="stroke:#A80036;stroke-width:1.5;" x1="378" x2="604" y1="686.9102" y2="686.9102"/><ellipse cx="388" cy="697.9102" fill="#84BE84" rx="3" ry="3" style="stroke:#038048;stroke-width:1.0;"/><text fill="#000000" font-family="sans-serif" font-size="11" lengthAdjust="spacing" textLength="64" x="397" y="701.5449">create(data)</text><ellipse cx="388" cy="710.8652" fill="#84BE84" rx="3" ry="3" style="stroke:#038048;stroke-width:1.0;"/><text fill="#000000" font-family="sans-serif" font-size="11" lengthAdjust="spacing" textLength="113" x="397" y="714.5">Validateinformation()</text><!--MD5=[1db03e903fe0a044a2ca0dcbef10799a]
class HealthCareCenter--><rect codeLine="24" fill="#FEFECE" filter="url(#f9g3oc7eco04a)" height="99.8203" id="HealthCareCenter" style="stroke:#A80036;stroke-width:1.5;" width="139" x="640.5" y="621"/><ellipse cx="657.75" cy="637" fill="#ADD1B2" rx="11" ry="11" style="stroke:#A80036;stroke-width:1.0;"/><path d="M660.2231,643.1431 Q659.6421,643.4419 659.0029,643.5913 Q658.3638,643.7407 657.6582,643.7407 Q655.1514,643.7407 653.8315,642.0889 Q652.5117,640.437 652.5117,637.3159 Q652.5117,634.1865 653.8315,632.5347 Q655.1514,630.8828 657.6582,630.8828 Q658.3638,630.8828 659.0112,631.0322 Q659.6587,631.1816 660.2231,631.4805 L660.2231,634.2031 Q659.5923,633.6221 658.9988,633.3523 Q658.4053,633.0825 657.7744,633.0825 Q656.4297,633.0825 655.7449,634.1492 Q655.0601,635.2158 655.0601,637.3159 Q655.0601,639.4077 655.7449,640.4744 Q656.4297,641.541 657.7744,641.541 Q658.4053,641.541 658.9988,641.2712 Q659.5923,641.0015 660.2231,640.4204 Z " fill="#000000"/><text fill="#000000" font-family="sans-serif" font-size="12" lengthAdjust="spacing" textLength="102" x="672.25" y="641.5352">HealthCareCenter</text><line style="stroke:#A80036;stroke-width:1.5;" x1="641.5" x2="778.5" y1="653" y2="653"/><rect fill="none" height="6" style="stroke:#C82930;stroke-width:1.0;" width="6" x="648.5" y="661"/><text fill="#000000" font-family="sans-serif" font-size="11" lengthAdjust="spacing" textLength="72" x="660.5" y="667.6348">String[] types</text><rect fill="none" height="6" style="stroke:#C82930;stroke-width:1.0;" width="6" x="648.5" y="673.9551"/><text fill="#000000" font-family="sans-serif" font-size="11" lengthAdjust="spacing" textLength="81" x="660.5" y="680.5898">String[] brands</text><line style="stroke:#A80036;stroke-width:1.5;" x1="641.5" x2="778.5" y1="686.9102" y2="686.9102"/><ellipse cx="651.5" cy="697.9102" fill="#84BE84" rx="3" ry="3" style="stroke:#038048;stroke-width:1.0;"/><text fill="#000000" font-family="sans-serif" font-size="11" lengthAdjust="spacing" textLength="64" x="660.5" y="701.5449">create(data)</text><ellipse cx="651.5" cy="710.8652" fill="#84BE84" rx="3" ry="3" style="stroke:#038048;stroke-width:1.0;"/><text fill="#000000" font-family="sans-serif" font-size="11" lengthAdjust="spacing" textLength="113" x="660.5" y="714.5">Validateinformation()</text><!--MD5=[9f8be421555ef40f73d73ab9e5726964]
class RegisterVaccinationCenterUI--><rect codeLine="31" fill="#FEFECE" filter="url(#f9g3oc7eco04a)" height="48" id="RegisterVaccinationCenterUI" style="stroke:#A80036;stroke-width:1.5;" width="193" x="503.5" y="7"/><ellipse cx="518.5" cy="23" fill="#ADD1B2" rx="11" ry="11" style="stroke:#A80036;stroke-width:1.0;"/><path d="M520.9731,29.1431 Q520.3921,29.4419 519.7529,29.5913 Q519.1138,29.7407 518.4082,29.7407 Q515.9014,29.7407 514.5815,28.0889 Q513.2617,26.437 513.2617,23.3159 Q513.2617,20.1865 514.5815,18.5347 Q515.9014,16.8828 518.4082,16.8828 Q519.1138,16.8828 519.7612,17.0322 Q520.4087,17.1816 520.9731,17.4805 L520.9731,20.2031 Q520.3423,19.6221 519.7488,19.3523 Q519.1553,19.0825 518.5244,19.0825 Q517.1797,19.0825 516.4949,20.1492 Q515.8101,21.2158 515.8101,23.3159 Q515.8101,25.4077 516.4949,26.4744 Q517.1797,27.541 518.5244,27.541 Q519.1553,27.541 519.7488,27.2712 Q520.3423,27.0015 520.9731,26.4204 Z " fill="#000000"/><text fill="#000000" font-family="sans-serif" font-size="12" lengthAdjust="spacing" textLength="161" x="532.5" y="27.5352">RegisterVaccinationCenterUI</text><line style="stroke:#A80036;stroke-width:1.5;" x1="504.5" x2="695.5" y1="39" y2="39"/><line style="stroke:#A80036;stroke-width:1.5;" x1="504.5" x2="695.5" y1="47" y2="47"/><!--MD5=[839d5397894ca7c2829f7ab2dfdd9d6b]
class RegisterVaccinationCenterController--><rect codeLine="35" fill="#FEFECE" filter="url(#f9g3oc7eco04a)" height="73.9102" id="RegisterVaccinationCenterController" style="stroke:#A80036;stroke-width:1.5;" width="1186" x="7" y="115"/><ellipse cx="492.75" cy="131" fill="#ADD1B2" rx="11" ry="11" style="stroke:#A80036;stroke-width:1.0;"/><path d="M495.2231,137.1431 Q494.6421,137.4419 494.0029,137.5913 Q493.3638,137.7407 492.6582,137.7407 Q490.1514,137.7407 488.8315,136.0889 Q487.5117,134.437 487.5117,131.3159 Q487.5117,128.1865 488.8315,126.5347 Q490.1514,124.8828 492.6582,124.8828 Q493.3638,124.8828 494.0112,125.0322 Q494.6587,125.1816 495.2231,125.4805 L495.2231,128.2031 Q494.5923,127.6221 493.9988,127.3523 Q493.4053,127.0825 492.7744,127.0825 Q491.4297,127.0825 490.7449,128.1492 Q490.0601,129.2158 490.0601,131.3159 Q490.0601,133.4077 490.7449,134.4744 Q491.4297,135.541 492.7744,135.541 Q493.4053,135.541 493.9988,135.2712 Q494.5923,135.0015 495.2231,134.4204 Z " fill="#000000"/><text fill="#000000" font-family="sans-serif" font-size="12" lengthAdjust="spacing" textLength="206" x="513.25" y="135.5352">RegisterVaccinationCenterController</text><line style="stroke:#A80036;stroke-width:1.5;" x1="8" x2="1192" y1="147" y2="147"/><line style="stroke:#A80036;stroke-width:1.5;" x1="8" x2="1192" y1="155" y2="155"/><ellipse cx="18" cy="166" fill="#84BE84" rx="3" ry="3" style="stroke:#038048;stroke-width:1.0;"/><text fill="#000000" font-family="sans-serif" font-size="11" lengthAdjust="spacing" textLength="1068" x="27" y="169.6348">createHealthCareCenter(String pandemic,String name,String address,int phonenumber,int faxnumber,string website address,string openinghours,string closinghours,int slotduration,int maxvaccines)</text><ellipse cx="18" cy="178.9551" fill="#84BE84" rx="3" ry="3" style="stroke:#038048;stroke-width:1.0;"/><text fill="#000000" font-family="sans-serif" font-size="11" lengthAdjust="spacing" textLength="1160" x="27" y="182.5898">createCommunityMassVaccinationCenter(String pandemic,String name,String address,int phonenumber,int faxnumber,string website address,string openinghours,string closinghours,int slotduration,int maxvaccines)</text><!--MD5=[a29876ea2f21a6ca48ea477740122fd8]
class VaccinationCenterStore--><rect codeLine="39" fill="#FEFECE" filter="url(#f9g3oc7eco04a)" height="73.9102" id="VaccinationCenterStore" style="stroke:#A80036;stroke-width:1.5;" width="271" x="464.5" y="249"/><ellipse cx="529.75" cy="265" fill="#ADD1B2" rx="11" ry="11" style="stroke:#A80036;stroke-width:1.0;"/><path d="M532.2231,271.1431 Q531.6421,271.4419 531.0029,271.5913 Q530.3638,271.7407 529.6582,271.7407 Q527.1514,271.7407 525.8315,270.0889 Q524.5117,268.437 524.5117,265.3159 Q524.5117,262.1865 525.8315,260.5347 Q527.1514,258.8828 529.6582,258.8828 Q530.3638,258.8828 531.0112,259.0322 Q531.6587,259.1816 532.2231,259.4805 L532.2231,262.2031 Q531.5923,261.6221 530.9988,261.3523 Q530.4053,261.0825 529.7744,261.0825 Q528.4297,261.0825 527.7449,262.1492 Q527.0601,263.2158 527.0601,265.3159 Q527.0601,267.4077 527.7449,268.4744 Q528.4297,269.541 529.7744,269.541 Q530.4053,269.541 530.9988,269.2712 Q531.5923,269.0015 532.2231,268.4204 Z " fill="#000000"/><text fill="#000000" font-family="sans-serif" font-size="12" lengthAdjust="spacing" textLength="132" x="550.25" y="269.5352">VaccinationCenterStore</text><line style="stroke:#A80036;stroke-width:1.5;" x1="465.5" x2="734.5" y1="281" y2="281"/><line style="stroke:#A80036;stroke-width:1.5;" x1="465.5" x2="734.5" y1="289" y2="289"/><ellipse cx="475.5" cy="300" fill="#84BE84" rx="3" ry="3" style="stroke:#038048;stroke-width:1.0;"/><text fill="#000000" font-family="sans-serif" font-size="11" lengthAdjust="spacing" textLength="173" x="484.5" y="303.6348">RegisterVaccinationCentre(data)</text><ellipse cx="475.5" cy="312.9551" fill="#84BE84" rx="3" ry="3" style="stroke:#038048;stroke-width:1.0;"/><text fill="#000000" font-family="sans-serif" font-size="11" lengthAdjust="spacing" textLength="245" x="484.5" y="316.5898">ValidateVaccinationCentre(vaccinacioncentre)</text><!--MD5=[3707ceef165f033caf0f720e17080648]
link RegisterVaccinationCenterUI to RegisterVaccinationCenterController--><path codeLine="44" d="M600,55.23 C600,70.68 600,91.42 600,109.65 " fill="none" id="RegisterVaccinationCenterUI-to-RegisterVaccinationCenterController" style="stroke:#A80036;stroke-width:1.0;stroke-dasharray:7.0,7.0;"/><polygon fill="#A80036" points="600,114.71,604,105.71,600,109.71,596,105.71,600,114.71" style="stroke:#A80036;stroke-width:1.0;"/><!--MD5=[bbc78702c55ffcab5ace92bc8b82d0e1]
link RegisterVaccinationCenterController to VaccinationCenterStore--><path codeLine="45" d="M600,189.07 C600,205.95 600,226.14 600,243.64 " fill="none" id="RegisterVaccinationCenterController-to-VaccinationCenterStore" style="stroke:#A80036;stroke-width:1.0;stroke-dasharray:7.0,7.0;"/><polygon fill="#A80036" points="600,248.97,604,239.97,600,243.97,596,239.97,600,248.97" style="stroke:#A80036;stroke-width:1.0;"/><!--MD5=[8c304936b446fd8cea914e03fbadd4b7]
link VaccinationCenterStore to VaccinationCenter--><path codeLine="46" d="M600,323.35 C600,339.05 600,358.22 600,377.47 " fill="none" id="VaccinationCenterStore-to-VaccinationCenter" style="stroke:#A80036;stroke-width:1.0;stroke-dasharray:7.0,7.0;"/><polygon fill="#A80036" points="600,382.9,604,373.9,600,377.9,596,373.9,600,382.9" style="stroke:#A80036;stroke-width:1.0;"/><!--MD5=[bb89c84865602b73d6e93796625bc84b]
link VaccinationCenter to HealthCareCenter--><path codeLine="47" d="M649.21,561.13 C659.67,579.86 670.41,599.09 679.89,616.08 " fill="none" id="VaccinationCenter-to-HealthCareCenter" style="stroke:#A80036;stroke-width:1.0;"/><polygon fill="#A80036" points="682.53,620.81,681.6314,611.0022,680.0909,616.4453,674.6478,614.9048,682.53,620.81" style="stroke:#A80036;stroke-width:1.0;"/><!--MD5=[96c98fd8ea72b99bcaa2e061adb16a51]
link VaccinationCenter to CommunityMassVaccinationCenter--><path codeLine="48" d="M551.24,561.13 C540.88,579.86 530.23,599.09 520.83,616.08 " fill="none" id="VaccinationCenter-to-CommunityMassVaccinationCenter" style="stroke:#A80036;stroke-width:1.0;"/><polygon fill="#A80036" points="518.22,620.81,526.0644,614.8547,520.6312,616.4298,519.0561,610.9967,518.22,620.81" style="stroke:#A80036;stroke-width:1.0;"/><!--MD5=[0299b0cf7804ede5c6153779c6cab1de]
@startuml

class VaccinationCenter
{
-String pandemic
-String name
-String address
-int phonenumber
-int faxnumber
-string website address
-string openinghours
-string closinghours
-int slotduration
-int maxvaccines
}

class CommunityMassVaccinationCenter
{
- String type
-String[] brands
+create(data)
+ Validateinformation()
}

class HealthCareCenter {
- String[] types
- String[] brands
+create(data)
+ Validateinformation()
}

class RegisterVaccinationCenterUI {

}

class RegisterVaccinationCenterController{
+createHealthCareCenter(String pandemic,String name,String address,int phonenumber,int faxnumber,string website address,string openinghours,string closinghours,int slotduration,int maxvaccines)
+createCommunityMassVaccinationCenter(String pandemic,String name,String address,int phonenumber,int faxnumber,string website address,string openinghours,string closinghours,int slotduration,int maxvaccines)
}
class VaccinationCenterStore{
+RegisterVaccinationCentre(data)
+ValidateVaccinationCentre(vaccinacioncentre)
}

RegisterVaccinationCenterUI ..> RegisterVaccinationCenterController
RegisterVaccinationCenterController ..>VaccinationCenterStore
VaccinationCenterStore..>VaccinationCenter
VaccinationCenter- ->HealthCareCenter
VaccinationCenter- ->CommunityMassVaccinationCenter

@enduml

PlantUML version 1.2022.1(Tue Feb 01 18:19:58 WET 2022)
(GPL source distribution)
Java Runtime: OpenJDK Runtime Environment
JVM: OpenJDK 64-Bit Server VM
Default Encoding: UTF-8
Language: pt
Country: PT
--></g></svg>