<?xml version="1.0" encoding="UTF-8" standalone="no"?><svg xmlns="http://www.w3.org/2000/svg" xmlns:xlink="http://www.w3.org/1999/xlink" contentStyleType="text/css" height="1936px" preserveAspectRatio="none" style="width:773px;height:1936px;background:#FFFFFF;" version="1.1" viewBox="0 0 773 1936" width="773px" zoomAndPan="magnify"><defs/><g><!--MD5=[99b31deea5d7419a569cd5090bf83263]
cluster System--><g id="cluster_System"><rect height="1923" rx="2.5" ry="2.5" style="stroke:#181818;stroke-width:1.0;fill:none;" width="760" x="7" y="7"/><text fill="#000000" font-family="sans-serif" font-size="14" font-weight="bold" lengthAdjust="spacing" textLength="52" x="361" y="22.5352">System</text></g><!--MD5=[4d302acd527bc9f790d99ea65b823e73]
entity coordinator--><g id="elem_coordinator"><ellipse cx="90" cy="179.5" fill="#F1F1F1" rx="8" ry="8" style="stroke:#181818;stroke-width:0.5;"/><path d="M90,187.5 L90,214.5 M77,195.5 L103,195.5 M90,214.5 L77,229.5 M90,214.5 L103,229.5 " fill="none" style="stroke:#181818;stroke-width:0.5;"/><text fill="#000000" font-family="sans-serif" font-size="14" lengthAdjust="spacing" textLength="134" x="23" y="244.5352">Center Coordinator</text></g><!--MD5=[8df531fd36edad519192f49b4d80bdb0]
entity receptionist--><g id="elem_receptionist"><ellipse cx="90" cy="552.5" fill="#F1F1F1" rx="8" ry="8" style="stroke:#181818;stroke-width:0.5;"/><path d="M90,560.5 L90,587.5 M77,568.5 L103,568.5 M90,587.5 L77,602.5 M90,587.5 L103,602.5 " fill="none" style="stroke:#181818;stroke-width:0.5;"/><text fill="#000000" font-family="sans-serif" font-size="14" lengthAdjust="spacing" textLength="84" x="48" y="617.5352">Receptionist</text></g><!--MD5=[79a439086b036a57b90a01d7b2f8bbd1]
entity admin--><g id="elem_admin"><ellipse cx="90" cy="836.5" fill="#F1F1F1" rx="8" ry="8" style="stroke:#181818;stroke-width:0.5;"/><path d="M90,844.5 L90,871.5 M77,852.5 L103,852.5 M90,871.5 L77,886.5 M90,871.5 L103,886.5 " fill="none" style="stroke:#181818;stroke-width:0.5;"/><text fill="#000000" font-family="sans-serif" font-size="14" lengthAdjust="spacing" textLength="95" x="42.5" y="901.5352">Administrator</text></g><!--MD5=[87d66015e0fe95d70bf3fa68103252e8]
entity nurse--><g id="elem_nurse"><ellipse cx="90" cy="1272.5" fill="#F1F1F1" rx="8" ry="8" style="stroke:#181818;stroke-width:0.5;"/><path d="M90,1280.5 L90,1307.5 M77,1288.5 L103,1288.5 M90,1307.5 L77,1322.5 M90,1307.5 L103,1322.5 " fill="none" style="stroke:#181818;stroke-width:0.5;"/><text fill="#000000" font-family="sans-serif" font-size="14" lengthAdjust="spacing" textLength="40" x="70" y="1337.5352">Nurse</text></g><!--MD5=[8fc3522a43f8c7199df5e09e5bb0188e]
entity user--><g id="elem_user"><ellipse cx="90" cy="1770.5" fill="#F1F1F1" rx="8" ry="8" style="stroke:#181818;stroke-width:0.5;"/><path d="M90,1778.5 L90,1805.5 M77,1786.5 L103,1786.5 M90,1805.5 L77,1820.5 M90,1805.5 L103,1820.5 " fill="none" style="stroke:#181818;stroke-width:0.5;"/><text fill="#000000" font-family="sans-serif" font-size="14" lengthAdjust="spacing" textLength="60" x="60" y="1835.5352">SNS user</text></g><g id="elem_uc1"><ellipse cx="483.7689" cy="1889.7538" fill="#F1F1F1" rx="104.2689" ry="23.2538" style="stroke:#181818;stroke-width:0.5;"/><text fill="#000000" font-family="sans-serif" font-size="14" lengthAdjust="spacing" textLength="173" x="397.2689" y="1893.0448">UC1 - Schedule a vaccine</text></g><g id="elem_uc2"><ellipse cx="484.219" cy="1799.9438" fill="#F1F1F1" rx="142.719" ry="30.9438" style="stroke:#181818;stroke-width:0.5;"/><text fill="#000000" font-family="sans-serif" font-size="14" lengthAdjust="spacing" textLength="255" x="356.719" y="1803.2348">UC2 - Obtain a vaccination certificate</text></g><g id="elem_uc3"><ellipse cx="483.8542" cy="1685.9708" fill="#F1F1F1" rx="225.3542" ry="47.4708" style="stroke:#181818;stroke-width:0.5;"/><text fill="#000000" font-family="sans-serif" font-size="14" lengthAdjust="spacing" textLength="425" x="271.3542" y="1689.2619">UC3 - Request the issuance of the EU COVID Digital Certificate</text></g><g id="elem_uc4"><ellipse cx="483.9831" cy="1566.0966" fill="#F1F1F1" rx="175.9831" ry="37.5966" style="stroke:#181818;stroke-width:0.5;"/><text fill="#000000" font-family="sans-serif" font-size="14" lengthAdjust="spacing" textLength="324" x="321.9831" y="1569.3876">UC4 - Issue and deliver a vaccination certificate</text></g><g id="elem_uc5"><ellipse cx="484.235" cy="1436.847" fill="#F1F1F1" rx="267.235" ry="55.847" style="stroke:#181818;stroke-width:0.5;"/><text fill="#000000" font-family="sans-serif" font-size="14" lengthAdjust="spacing" textLength="510" x="229.235" y="1440.138">UC5 - Check the list of SNS users that are present in the vaccination center</text></g><g id="elem_uc6"><ellipse cx="483.7664" cy="1301.7533" fill="#F1F1F1" rx="204.2664" ry="43.2533" style="stroke:#181818;stroke-width:0.5;"/><text fill="#000000" font-family="sans-serif" font-size="14" lengthAdjust="spacing" textLength="378" x="292.7664" y="1305.0443">UC6 - Check the user information and health condition</text></g><g id="elem_uc7"><ellipse cx="484.0076" cy="1188.9015" fill="#F1F1F1" rx="160.0076" ry="34.4015" style="stroke:#181818;stroke-width:0.5;"/><text fill="#000000" font-family="sans-serif" font-size="14" lengthAdjust="spacing" textLength="291" x="338.5076" y="1192.1925">UC7 - Register the application of a vaccine</text></g><g id="elem_uc8"><ellipse cx="484.1161" cy="1083.2232" fill="#F1F1F1" rx="171.6161" ry="36.7232" style="stroke:#181818;stroke-width:0.5;"/><text fill="#000000" font-family="sans-serif" font-size="14" lengthAdjust="spacing" textLength="315" x="326.6161" y="1086.5142">UC8 - Record adverse reactions to the vaccine</text></g><g id="elem_uc9"><ellipse cx="484.1595" cy="970.9319" fill="#F1F1F1" rx="187.6595" ry="39.9319" style="stroke:#181818;stroke-width:0.5;"/><text fill="#000000" font-family="sans-serif" font-size="14" lengthAdjust="spacing" textLength="348" x="310.1595" y="974.2229">UC9 - Configure and manage the core information</text></g><g id="elem_uc10"><ellipse cx="484.1212" cy="865.8242" fill="#F1F1F1" rx="134.6212" ry="29.3242" style="stroke:#181818;stroke-width:0.5;"/><text fill="#000000" font-family="sans-serif" font-size="14" lengthAdjust="spacing" textLength="238" x="365.1212" y="869.1153">UC10 - Register vaccination center</text></g><g id="elem_uc11"><ellipse cx="484.2005" cy="777.0401" fill="#F1F1F1" rx="110.7005" ry="24.5401" style="stroke:#181818;stroke-width:0.5;"/><text fill="#000000" font-family="sans-serif" font-size="14" lengthAdjust="spacing" textLength="187" x="390.7005" y="780.3311">UC11 - Register employees</text></g><g id="elem_uc12"><ellipse cx="484.0607" cy="683.1121" fill="#F1F1F1" rx="158.5607" ry="34.1121" style="stroke:#181818;stroke-width:0.5;"/><text fill="#000000" font-family="sans-serif" font-size="14" lengthAdjust="spacing" textLength="288" x="340.0607" y="686.4032">UC12 - Schedule the vaccine appointment</text></g><g id="elem_uc13"><ellipse cx="484.0882" cy="582.0176" fill="#F1F1F1" rx="145.5882" ry="31.5176" style="stroke:#181818;stroke-width:0.5;"/><text fill="#000000" font-family="sans-serif" font-size="14" lengthAdjust="spacing" textLength="261" x="353.5882" y="585.3087">UC13 - Register the arrival of the user</text></g><g id="elem_uc14"><ellipse cx="484.149" cy="464.9298" fill="#F1F1F1" rx="237.649" ry="49.9298" style="stroke:#181818;stroke-width:0.5;"/><text fill="#000000" font-family="sans-serif" font-size="14" lengthAdjust="spacing" textLength="450" x="259.149" y="468.2208">UC14 - Confirms that a vaccine is scheduled for that day and time</text></g><g id="elem_uc15"><ellipse cx="483.8619" cy="347.0724" fill="#F1F1F1" rx="150.8619" ry="32.5724" style="stroke:#181818;stroke-width:0.5;"/><text fill="#000000" font-family="sans-serif" font-size="14" lengthAdjust="spacing" textLength="272" x="347.8619" y="350.3634">UC15 - Monitor the vaccination process</text></g><g id="elem_uc16"><ellipse cx="484.1939" cy="251.8388" fill="#F1F1F1" rx="124.6939" ry="27.3388" style="stroke:#181818;stroke-width:0.5;"/><text fill="#000000" font-family="sans-serif" font-size="14" lengthAdjust="spacing" textLength="217" x="375.6939" y="255.1298">UC16 - See statistics and charts</text></g><g id="elem_uc17"><ellipse cx="483.9007" cy="165.9801" fill="#F1F1F1" rx="102.9007" ry="22.9801" style="stroke:#181818;stroke-width:0.5;"/><text fill="#000000" font-family="sans-serif" font-size="14" lengthAdjust="spacing" textLength="170" x="398.9007" y="169.2712">UC17 - Generate reports</text></g><g id="elem_uc18"><ellipse cx="483.8225" cy="74.7645" fill="#F1F1F1" rx="151.8225" ry="32.7645" style="stroke:#181818;stroke-width:0.5;"/><text fill="#000000" font-family="sans-serif" font-size="14" lengthAdjust="spacing" textLength="274" x="346.8225" y="78.0555">UC18 - Analyze data from other centers</text></g><!--MD5=[a552fc0b90431714ccaf32fb04ce4373]
link user to uc1--><g id="link_user_uc1"><path d="M120.21,1813.12 C145.39,1823.94 182.96,1838.93 217,1848 C271.38,1862.48 333.43,1872.63 383.91,1879.32 " fill="none" id="user-to-uc1" style="stroke:#181818;stroke-width:1.0;"/><polygon fill="#181818" points="389.07,1880,380.6737,1874.852,384.1134,1879.3429,379.6224,1882.7826,389.07,1880" style="stroke:#181818;stroke-width:1.0;"/></g><!--MD5=[1306d94884301688934f36b86e9fe539]
link user to uc2--><g id="link_user_uc2"><path d="M120.14,1800 C165.63,1800 256.54,1800 335.98,1800 " fill="none" id="user-to-uc2" style="stroke:#181818;stroke-width:1.0;"/><polygon fill="#181818" points="341.2,1800,332.2,1796,336.2,1800,332.2,1804,341.2,1800" style="stroke:#181818;stroke-width:1.0;"/></g><!--MD5=[4029eb621b645d55a8edd03ddc47f2d8]
link user to uc3--><g id="link_user_uc3"><path d="M120.14,1787.41 C145.43,1776.79 183.2,1761.65 217,1751 C250.82,1740.34 287.51,1730.38 322.52,1721.61 " fill="none" id="user-to-uc3" style="stroke:#181818;stroke-width:1.0;"/><polygon fill="#181818" points="327.68,1720.32,317.9786,1718.6223,322.8293,1721.5327,319.9189,1726.3834,327.68,1720.32" style="stroke:#181818;stroke-width:1.0;"/></g><!--MD5=[15e36b9be290db084d9e76f8f1e63dae]
link nurse to uc4--><g id="link_nurse_uc4"><path d="M103.36,1340.09 C120.82,1387.61 157.42,1467.75 217,1510 C245.34,1530.1 279.39,1543.27 313.51,1551.83 " fill="none" id="nurse-to-uc4" style="stroke:#181818;stroke-width:1.0;"/><polygon fill="#181818" points="318.54,1553.06,310.7454,1547.0397,313.6826,1551.8742,308.8481,1554.8115,318.54,1553.06" style="stroke:#181818;stroke-width:1.0;"/></g><!--MD5=[feac911b6c4ef4ac0286e42fab94af46]
link nurse to uc5--><g id="link_nurse_uc5"><path d="M110.16,1312.62 C134.46,1325.77 177.89,1348.23 217,1363 C245.63,1373.81 276.51,1383.83 306.76,1392.78 " fill="none" id="nurse-to-uc5" style="stroke:#181818;stroke-width:1.0;"/><polygon fill="#181818" points="311.61,1394.21,304.09,1387.85,306.81,1392.81,301.85,1395.53,311.61,1394.21" style="stroke:#181818;stroke-width:1.0;"/></g><!--MD5=[5f715cff60917404b91003bb905f29e3]
link nurse to uc6--><g id="link_nurse_uc6"><path d="M110.17,1302 C141.41,1302 206.58,1302 273.82,1302 " fill="none" id="nurse-to-uc6" style="stroke:#181818;stroke-width:1.0;"/><polygon fill="#181818" points="279.08,1302,270.08,1298,274.08,1302,270.08,1306,279.08,1302" style="stroke:#181818;stroke-width:1.0;"/></g><!--MD5=[b75e0d1c84b23b5b931216f013302f86]
link nurse to uc7--><g id="link_nurse_uc7"><path d="M110.41,1290.64 C134.6,1276.95 177.58,1254.15 217,1241 C257.86,1227.37 303.5,1216.84 345.29,1208.94 " fill="none" id="nurse-to-uc7" style="stroke:#181818;stroke-width:1.0;"/><polygon fill="#181818" points="350.36,1207.98,340.7802,1205.6937,345.4443,1208.8945,342.2435,1213.5587,350.36,1207.98" style="stroke:#181818;stroke-width:1.0;"/></g><!--MD5=[b0a6740747a5f86cf85308f266c38c77]
link nurse to uc8--><g id="link_nurse_uc8"><path d="M109.66,1263.78 C130.43,1225.48 167.66,1167.89 217,1137 C247.36,1117.99 283.14,1105.51 318.45,1097.35 " fill="none" id="nurse-to-uc8" style="stroke:#181818;stroke-width:1.0;"/><polygon fill="#181818" points="323.65,1096.18,313.9912,1094.2545,318.7721,1097.2782,315.7484,1102.0591,323.65,1096.18" style="stroke:#181818;stroke-width:1.0;"/></g><!--MD5=[8e36b3affd93ccc7de0bae5971d2911a]
link admin to uc9--><g id="link_admin_uc9"><path d="M137.73,885.24 C161.24,894.46 190.34,905.17 217,913 C255.84,924.42 298.47,934.69 338,943.3 " fill="none" id="admin-to-uc9" style="stroke:#181818;stroke-width:1.0;"/><polygon fill="#181818" points="343.31,944.45,335.3595,938.6371,338.4231,943.3926,333.6676,946.4562,343.31,944.45" style="stroke:#181818;stroke-width:1.0;"/></g><!--MD5=[77969c3fe41169c71105ba6a808add41]
link admin to uc10--><g id="link_admin_uc10"><path d="M137.51,866 C188.21,866 271.77,866 344.01,866 " fill="none" id="admin-to-uc10" style="stroke:#181818;stroke-width:1.0;"/><polygon fill="#181818" points="349.19,866,340.19,862,344.19,866,340.19,870,349.19,866" style="stroke:#181818;stroke-width:1.0;"/></g><!--MD5=[8783126dbba7e30ab7d13da788435072]
link admin to uc11--><g id="link_admin_uc11"><path d="M137.55,846.09 C161.01,836.71 190.13,826.06 217,819 C269.79,805.14 329.75,795.18 379.36,788.46 " fill="none" id="admin-to-uc11" style="stroke:#181818;stroke-width:1.0;"/><polygon fill="#181818" points="384.43,787.77,374.9824,784.9874,379.4734,788.4271,376.0337,792.918,384.43,787.77" style="stroke:#181818;stroke-width:1.0;"/></g><!--MD5=[1e46be9f610fa7ae0a6d0268a49306b9]
link receptionist to uc12--><g id="link_receptionist_uc12"><path d="M132.07,600.11 C156.4,610.29 188.03,622.61 217,631 C259.98,643.45 307.72,653.82 350.77,661.95 " fill="none" id="receptionist-to-uc12" style="stroke:#181818;stroke-width:1.0;"/><polygon fill="#181818" points="355.72,662.88,347.6035,657.3013,350.8043,661.9655,346.1402,665.1663,355.72,662.88" style="stroke:#181818;stroke-width:1.0;"/></g><!--MD5=[53fc374f39829a30e2ece3f4c7c5c8c0]
link receptionist to uc13--><g id="link_receptionist_uc13"><path d="M132.21,582 C179.82,582 260.88,582 333.09,582 " fill="none" id="receptionist-to-uc13" style="stroke:#181818;stroke-width:1.0;"/><polygon fill="#181818" points="338.27,582,329.27,578,333.27,582,329.27,586,338.27,582" style="stroke:#181818;stroke-width:1.0;"/></g><!--MD5=[24b30c8bc1bf5a29c6abcd88dcfe6094]
link receptionist to uc14--><g id="link_receptionist_uc14"><path d="M132.26,564.5 C156.65,554.53 188.28,542.22 217,533 C249.88,522.45 285.44,512.42 319.55,503.47 " fill="none" id="receptionist-to-uc14" style="stroke:#181818;stroke-width:1.0;"/><polygon fill="#181818" points="324.57,502.16,314.8493,500.5765,319.7339,503.4297,316.8807,508.3143,324.57,502.16" style="stroke:#181818;stroke-width:1.0;"/></g><!--MD5=[11e05932b6b72351cc6e45e96d1760c7]
link coordinator to uc15--><g id="link_coordinator_uc15"><path d="M135.48,247.07 C158.44,264.82 187.73,284.7 217,297 C256.24,313.48 301,324.56 342.48,332 " fill="none" id="coordinator-to-uc15" style="stroke:#181818;stroke-width:1.0;"/><polygon fill="#181818" points="347.52,332.89,339.3539,327.3841,342.5964,332.0194,337.961,335.2619,347.52,332.89" style="stroke:#181818;stroke-width:1.0;"/></g><!--MD5=[550074a70ea18a01e525c23d71ae14c0]
link coordinator to uc16--><g id="link_coordinator_uc16"><path d="M157.05,216.25 C214.26,222.52 298.34,231.74 366.78,239.25 " fill="none" id="coordinator-to-uc16" style="stroke:#181818;stroke-width:1.0;"/><polygon fill="#181818" points="372.09,239.83,363.5774,234.8767,367.1195,239.2872,362.709,242.8294,372.09,239.83" style="stroke:#181818;stroke-width:1.0;"/></g><!--MD5=[3ea1bdbe0950e9d6a27a2108fb0085fd]
link coordinator to uc17--><g id="link_coordinator_uc17"><path d="M157.05,201.75 C219.81,194.87 314.91,184.44 386.21,176.62 " fill="none" id="coordinator-to-uc17" style="stroke:#181818;stroke-width:1.0;"/><polygon fill="#181818" points="391.3,176.06,381.919,173.0606,386.3295,176.6028,382.7874,181.0133,391.3,176.06" style="stroke:#181818;stroke-width:1.0;"/></g><!--MD5=[3cc737233cb085938fbea32a32e8a8b5]
link coordinator to uc18--><g id="link_coordinator_uc18"><path d="M138.38,170.79 C160.98,154.36 189.12,136.36 217,125 C256.41,108.94 301.23,97.99 342.7,90.54 " fill="none" id="coordinator-to-uc18" style="stroke:#181818;stroke-width:1.0;"/><polygon fill="#181818" points="347.74,89.65,338.181,87.2781,342.8164,90.5206,339.5739,95.1559,347.74,89.65" style="stroke:#181818;stroke-width:1.0;"/></g><!--MD5=[fd1e6c8486d68f3c6e944f84cfdf4fd7]
@startuml

left to right direction
rectangle System {
actor "Center Coordinator" as coordinator
actor "Receptionist" as receptionist
actor "Administrator" as admin
actor "Nurse" as nurse
actor "SNS user" as user




usecase uc1 as "UC1 - Schedule a vaccine"
usecase uc2 as "UC2 - Obtain a vaccination certificate"
usecase uc3 as "UC3 - Request the issuance of the EU COVID Digital Certificate"

user - -> uc1
user - -> uc2
user - -> uc3

usecase uc4 as "UC4 - Issue and deliver a vaccination certificate"
usecase uc5 as "UC5 - Check the list of SNS users that are present in the vaccination center"
usecase uc6 as "UC6 - Check the user information and health condition "
usecase uc7 as "UC7 - Register the application of a vaccine"
usecase uc8 as "UC8 - Record adverse reactions to the vaccine"

nurse - -> uc4
nurse - -> uc5
nurse - -> uc6
nurse - -> uc7
nurse - -> uc8

usecase uc9 as "UC9 - Configure and manage the core information"
usecase uc10 as "UC10 - Register vaccination center"
usecase uc11 as "UC11 - Register employees"

admin - -> uc9
admin - -> uc10
admin - -> uc11

usecase uc12 as "UC12 - Schedule the vaccine appointment"
usecase uc13 as "UC13 - Register the arrival of the user"
usecase uc14 as "UC14 - Confirms that a vaccine is scheduled for that day and time"

receptionist - -> uc12
receptionist - -> uc13
receptionist - -> uc14

usecase uc15 as "UC15 - Monitor the vaccination process"
usecase uc16 as "UC16 - See statistics and charts"
usecase uc17 as "UC17 - Generate reports"
usecase uc18 as "UC18 - Analyze data from other centers"

coordinator - -> uc15
coordinator - -> uc16
coordinator - -> uc17
coordinator - -> uc18

}





@enduml

PlantUML version 1.2022.4(Sat Apr 09 14:29:17 WEST 2022)
(GPL source distribution)
Java Runtime: OpenJDK Runtime Environment
JVM: OpenJDK 64-Bit Server VM
Default Encoding: UTF-8
Language: pt
Country: PT
--></g></svg>