<?xml version="1.0" encoding="UTF-8" standalone="no"?><svg xmlns="http://www.w3.org/2000/svg" xmlns:xlink="http://www.w3.org/1999/xlink" contentStyleType="text/css" height="798px" preserveAspectRatio="none" style="width:1954px;height:798px;background:#FFFFFF;" version="1.1" viewBox="0 0 1954 798" width="1954px" zoomAndPan="magnify"><defs/><g><rect fill="#FFFFFF" height="59.3105" style="stroke:#181818;stroke-width:1.0;" width="10" x="73" y="84.2871"/><rect fill="#FFFFFF" height="623.8125" style="stroke:#181818;stroke-width:1.0;" width="10" x="180.5" y="113.5977"/><rect fill="#FFFFFF" height="409.6387" style="stroke:#181818;stroke-width:1.0;" width="10" x="336.5" y="172.9082"/><rect fill="#FFFFFF" height="351.0176" style="stroke:#181818;stroke-width:1.0;" width="10" x="529.5" y="202.2188"/><rect fill="#FFFFFF" height="28" style="stroke:#181818;stroke-width:1.0;" width="10" x="534.5" y="381.127"/><rect fill="#FFFFFF" height="30" style="stroke:#181818;stroke-width:1.0;" width="10" x="849.5" y="313.8164"/><rect fill="#FFFFFF" height="30" style="stroke:#181818;stroke-width:1.0;" width="10" x="1059.5" y="486.9258"/><rect fill="#FFFFFF" height="67.5762" style="stroke:#181818;stroke-width:1.0;" width="10" x="1858" y="669.834"/><rect height="249.7305" style="stroke:#000000;stroke-width:1.5;fill:none;" width="1075.5" x="429" y="275.1953"/><line style="stroke:#181818;stroke-width:0.5;fill:none;stroke-dasharray:5.0,5.0;" x1="78" x2="78" y1="52.9766" y2="746.4102"/><line style="stroke:#181818;stroke-width:0.5;fill:none;stroke-dasharray:5.0,5.0;" x1="185" x2="185" y1="52.9766" y2="746.4102"/><line style="stroke:#181818;stroke-width:0.5;fill:none;stroke-dasharray:5.0,5.0;" x1="341" x2="341" y1="52.9766" y2="746.4102"/><line style="stroke:#181818;stroke-width:0.5;fill:none;stroke-dasharray:5.0,5.0;" x1="534" x2="534" y1="52.9766" y2="746.4102"/><line style="stroke:#181818;stroke-width:0.5;fill:none;stroke-dasharray:5.0,5.0;" x1="854.5" x2="854.5" y1="52.9766" y2="746.4102"/><line style="stroke:#181818;stroke-width:0.5;fill:none;stroke-dasharray:5.0,5.0;" x1="1064.5" x2="1064.5" y1="249.207" y2="746.4102"/><line style="stroke:#181818;stroke-width:0.5;fill:none;stroke-dasharray:5.0,5.0;" x1="1337.5" x2="1337.5" y1="454.8711" y2="746.4102"/><line style="stroke:#181818;stroke-width:0.5;fill:none;stroke-dasharray:5.0,5.0;" x1="1637.5" x2="1637.5" y1="52.9766" y2="746.4102"/><line style="stroke:#181818;stroke-width:0.5;fill:none;stroke-dasharray:5.0,5.0;" x1="1862.5" x2="1862.5" y1="629.5352" y2="746.4102"/><rect fill="#E2E2F0" height="46.9766" rx="2.5" ry="2.5" style="stroke:#181818;stroke-width:0.5;" width="116" x="20" y="5"/><text fill="#000000" font-family="sans-serif" font-size="14" lengthAdjust="spacing" textLength="32" x="62" y="25.5352">task:</text><text fill="#000000" font-family="sans-serif" font-size="14" lengthAdjust="spacing" textLength="102" x="27" y="42.0234">ExportCsvTask</text><rect fill="#E2E2F0" height="46.9766" rx="2.5" ry="2.5" style="stroke:#181818;stroke-width:0.5;" width="116" x="20" y="745.4102"/><text fill="#000000" font-family="sans-serif" font-size="14" lengthAdjust="spacing" textLength="32" x="62" y="765.9453">task:</text><text fill="#000000" font-family="sans-serif" font-size="14" lengthAdjust="spacing" textLength="102" x="27" y="782.4336">ExportCsvTask</text><rect fill="#E2E2F0" height="30.4883" rx="2.5" ry="2.5" style="stroke:#181818;stroke-width:0.5;" width="79" x="146" y="21.4883"/><text fill="#000000" font-family="sans-serif" font-size="14" lengthAdjust="spacing" textLength="65" x="153" y="42.0234">Company</text><rect fill="#E2E2F0" height="30.4883" rx="2.5" ry="2.5" style="stroke:#181818;stroke-width:0.5;" width="79" x="146" y="745.4102"/><text fill="#000000" font-family="sans-serif" font-size="14" lengthAdjust="spacing" textLength="65" x="153" y="765.9453">Company</text><rect fill="#E2E2F0" height="30.4883" rx="2.5" ry="2.5" style="stroke:#181818;stroke-width:0.5;" width="175" x="254" y="21.4883"/><text fill="#000000" font-family="sans-serif" font-size="14" lengthAdjust="spacing" textLength="161" x="261" y="42.0234">VaccinationCenterStore</text><rect fill="#E2E2F0" height="30.4883" rx="2.5" ry="2.5" style="stroke:#181818;stroke-width:0.5;" width="175" x="254" y="745.4102"/><text fill="#000000" font-family="sans-serif" font-size="14" lengthAdjust="spacing" textLength="161" x="261" y="765.9453">VaccinationCenterStore</text><rect fill="#E2E2F0" height="30.4883" rx="2.5" ry="2.5" style="stroke:#181818;stroke-width:0.5;" width="191" x="439" y="21.4883"/><text fill="#000000" font-family="sans-serif" font-size="14" lengthAdjust="spacing" textLength="177" x="446" y="42.0234">VaccinationCenterMapper</text><rect fill="#E2E2F0" height="30.4883" rx="2.5" ry="2.5" style="stroke:#181818;stroke-width:0.5;" width="191" x="439" y="745.4102"/><text fill="#000000" font-family="sans-serif" font-size="14" lengthAdjust="spacing" textLength="177" x="446" y="765.9453">VaccinationCenterMapper</text><rect fill="#E2E2F0" height="46.9766" rx="2.5" ry="2.5" style="stroke:#181818;stroke-width:0.5;" width="188" x="760.5" y="5"/><text fill="#000000" font-family="sans-serif" font-size="14" lengthAdjust="spacing" textLength="73" x="818" y="25.5352">centersList</text><text fill="#000000" font-family="sans-serif" font-size="14" lengthAdjust="spacing" textLength="174" x="767.5" y="42.0234">:List&lt;VaccinationCenter&gt;</text><rect fill="#E2E2F0" height="46.9766" rx="2.5" ry="2.5" style="stroke:#181818;stroke-width:0.5;" width="188" x="760.5" y="745.4102"/><text fill="#000000" font-family="sans-serif" font-size="14" lengthAdjust="spacing" textLength="73" x="818" y="765.9453">centersList</text><text fill="#000000" font-family="sans-serif" font-size="14" lengthAdjust="spacing" textLength="174" x="767.5" y="782.4336">:List&lt;VaccinationCenter&gt;</text><rect fill="#E2E2F0" height="46.9766" rx="2.5" ry="2.5" style="stroke:#181818;stroke-width:0.5;" width="212" x="958.5" y="745.4102"/><text fill="#000000" font-family="sans-serif" font-size="14" lengthAdjust="spacing" textLength="97" x="1016" y="765.9453">centersListDto</text><text fill="#000000" font-family="sans-serif" font-size="14" lengthAdjust="spacing" textLength="198" x="965.5" y="782.4336">:List&lt;VaccinationCenterDto&gt;</text><rect fill="#E2E2F0" height="30.4883" rx="2.5" ry="2.5" style="stroke:#181818;stroke-width:0.5;" width="314" x="1180.5" y="745.4102"/><text fill="#000000" font-family="sans-serif" font-size="14" lengthAdjust="spacing" textLength="300" x="1187.5" y="765.9453">vaccinationCenterDto:VaccinationCenterDto</text><rect fill="#E2E2F0" height="30.4883" rx="2.5" ry="2.5" style="stroke:#181818;stroke-width:0.5;" width="266" x="1504.5" y="21.4883"/><text fill="#000000" font-family="sans-serif" font-size="14" lengthAdjust="spacing" textLength="252" x="1511.5" y="42.0234">vaccinationCenter:VaccinationCenter</text><rect fill="#E2E2F0" height="30.4883" rx="2.5" ry="2.5" style="stroke:#181818;stroke-width:0.5;" width="266" x="1504.5" y="745.4102"/><text fill="#000000" font-family="sans-serif" font-size="14" lengthAdjust="spacing" textLength="252" x="1511.5" y="765.9453">vaccinationCenter:VaccinationCenter</text><rect fill="#E2E2F0" height="46.9766" rx="2.5" ry="2.5" style="stroke:#181818;stroke-width:0.5;" width="165" x="1780.5" y="745.4102"/><text fill="#000000" font-family="sans-serif" font-size="14" lengthAdjust="spacing" textLength="151" x="1787.5" y="765.9453">dailyReportGenerator:</text><text fill="#000000" font-family="sans-serif" font-size="14" lengthAdjust="spacing" textLength="148" x="1789" y="782.4336">DailyReportGenerator</text><rect fill="#FFFFFF" height="59.3105" style="stroke:#181818;stroke-width:1.0;" width="10" x="73" y="84.2871"/><rect fill="#FFFFFF" height="623.8125" style="stroke:#181818;stroke-width:1.0;" width="10" x="180.5" y="113.5977"/><rect fill="#FFFFFF" height="409.6387" style="stroke:#181818;stroke-width:1.0;" width="10" x="336.5" y="172.9082"/><rect fill="#FFFFFF" height="351.0176" style="stroke:#181818;stroke-width:1.0;" width="10" x="529.5" y="202.2188"/><rect fill="#FFFFFF" height="28" style="stroke:#181818;stroke-width:1.0;" width="10" x="534.5" y="381.127"/><rect fill="#FFFFFF" height="30" style="stroke:#181818;stroke-width:1.0;" width="10" x="849.5" y="313.8164"/><rect fill="#FFFFFF" height="30" style="stroke:#181818;stroke-width:1.0;" width="10" x="1059.5" y="486.9258"/><rect fill="#FFFFFF" height="67.5762" style="stroke:#181818;stroke-width:1.0;" width="10" x="1858" y="669.834"/><ellipse cx="4.5" cy="83.5371" fill="none" rx="4" ry="4" style="stroke:#181818;stroke-width:1.5;"/><polygon fill="#181818" points="61,80.2871,71,84.2871,61,88.2871,65,84.2871" style="stroke:#181818;stroke-width:1.0;"/><line style="stroke:#181818;stroke-width:1.0;" x1="9" x2="67" y1="84.2871" y2="84.2871"/><text fill="#000000" font-family="sans-serif" font-size="13" font-weight="bold" lengthAdjust="spacing" textLength="9" x="12" y="79.5449">1</text><text fill="#000000" font-family="sans-serif" font-size="13" lengthAdjust="spacing" textLength="33" x="25" y="79.5449">run ()</text><polygon fill="#181818" points="168.5,109.5977,178.5,113.5977,168.5,117.5977,172.5,113.5977" style="stroke:#181818;stroke-width:1.0;"/><line style="stroke:#181818;stroke-width:1.0;" x1="83" x2="174.5" y1="113.5977" y2="113.5977"/><text fill="#000000" font-family="sans-serif" font-size="13" font-weight="bold" lengthAdjust="spacing" textLength="9" x="90" y="108.8555">2</text><text fill="#000000" font-family="sans-serif" font-size="13" lengthAdjust="spacing" textLength="57" x="103" y="108.8555">setTask()</text><polygon fill="#181818" points="324.5,168.9082,334.5,172.9082,324.5,176.9082,328.5,172.9082" style="stroke:#181818;stroke-width:1.0;"/><line style="stroke:#181818;stroke-width:1.0;" x1="190.5" x2="330.5" y1="172.9082" y2="172.9082"/><text fill="#000000" font-family="sans-serif" font-size="13" font-weight="bold" lengthAdjust="spacing" textLength="9" x="197.5" y="168.166">3</text><text fill="#000000" font-family="sans-serif" font-size="13" lengthAdjust="spacing" textLength="114" x="210.5" y="168.166">getListOfCenters()</text><polygon fill="#181818" points="517.5,198.2188,527.5,202.2188,517.5,206.2188,521.5,202.2188" style="stroke:#181818;stroke-width:1.0;"/><line style="stroke:#181818;stroke-width:1.0;" x1="346.5" x2="523.5" y1="202.2188" y2="202.2188"/><text fill="#000000" font-family="sans-serif" font-size="13" font-weight="bold" lengthAdjust="spacing" textLength="9" x="353.5" y="197.4766">4</text><text fill="#000000" font-family="sans-serif" font-size="13" lengthAdjust="spacing" textLength="136" x="366.5" y="197.4766">listToDto(centersList)</text><polygon fill="#181818" points="946.5,227.5293,956.5,231.5293,946.5,235.5293,950.5,231.5293" style="stroke:#181818;stroke-width:1.0;"/><line style="stroke:#181818;stroke-width:1.0;stroke-dasharray:2.0,2.0;" x1="539.5" x2="952.5" y1="231.5293" y2="231.5293"/><text fill="#000000" font-family="sans-serif" font-size="13" font-weight="bold" lengthAdjust="spacing" textLength="9" x="546.5" y="226.7871">5</text><text fill="#000000" font-family="sans-serif" font-size="13" lengthAdjust="spacing" textLength="46" x="559.5" y="226.7871">create()</text><rect fill="#E2E2F0" height="46.9766" rx="2.5" ry="2.5" style="stroke:#181818;stroke-width:0.5;" width="212" x="958.5" y="210.2188"/><text fill="#000000" font-family="sans-serif" font-size="14" lengthAdjust="spacing" textLength="97" x="1016" y="230.7539">centersListDto</text><text fill="#000000" font-family="sans-serif" font-size="14" lengthAdjust="spacing" textLength="198" x="965.5" y="247.2422">:List&lt;VaccinationCenterDto&gt;</text><path d="M429,275.1953 L503,275.1953 L503,282.5059 L493,292.5059 L429,292.5059 L429,275.1953 " fill="#EEEEEE" style="stroke:#000000;stroke-width:1.5;"/><rect fill="none" height="249.7305" style="stroke:#000000;stroke-width:1.5;" width="1075.5" x="429" y="275.1953"/><text fill="#000000" font-family="sans-serif" font-size="13" font-weight="bold" lengthAdjust="spacing" textLength="29" x="444" y="288.7637">loop</text><text fill="#000000" font-family="sans-serif" font-size="11" font-weight="bold" lengthAdjust="spacing" textLength="171" x="518" y="287.8301">[for each center in centersList]</text><polygon fill="#181818" points="837.5,309.8164,847.5,313.8164,837.5,317.8164,841.5,313.8164" style="stroke:#181818;stroke-width:1.0;"/><line style="stroke:#181818;stroke-width:1.0;" x1="539.5" x2="843.5" y1="313.8164" y2="313.8164"/><text fill="#000000" font-family="sans-serif" font-size="13" font-weight="bold" lengthAdjust="spacing" textLength="9" x="546.5" y="309.0742">6</text><text fill="#000000" font-family="sans-serif" font-size="13" lengthAdjust="spacing" textLength="163" x="559.5" y="309.0742">vaccinationCenter = get(i)</text><line style="stroke:#181818;stroke-width:1.0;" x1="544.5" x2="586.5" y1="373.127" y2="373.127"/><line style="stroke:#181818;stroke-width:1.0;" x1="586.5" x2="586.5" y1="373.127" y2="386.127"/><line style="stroke:#181818;stroke-width:1.0;" x1="545.5" x2="586.5" y1="386.127" y2="386.127"/><polygon fill="#181818" points="555.5,382.127,545.5,386.127,555.5,390.127,551.5,386.127" style="stroke:#181818;stroke-width:1.0;"/><text fill="#000000" font-family="sans-serif" font-size="13" font-weight="bold" lengthAdjust="spacing" textLength="9" x="551.5" y="368.3848">7</text><text fill="#000000" font-family="sans-serif" font-size="13" lengthAdjust="spacing" textLength="283" x="564.5" y="368.3848">vaccinationCenterDto = centerToDto (center)</text><polygon fill="#181818" points="1168.5,441.4375,1178.5,445.4375,1168.5,449.4375,1172.5,445.4375" style="stroke:#181818;stroke-width:1.0;"/><line style="stroke:#181818;stroke-width:1.0;stroke-dasharray:2.0,2.0;" x1="539.5" x2="1174.5" y1="445.4375" y2="445.4375"/><text fill="#000000" font-family="sans-serif" font-size="13" font-weight="bold" lengthAdjust="spacing" textLength="9" x="546.5" y="440.6953">8</text><text fill="#000000" font-family="sans-serif" font-size="13" lengthAdjust="spacing" textLength="62" x="559.5" y="440.6953">create (...)</text><rect fill="#E2E2F0" height="30.4883" rx="2.5" ry="2.5" style="stroke:#181818;stroke-width:0.5;" width="314" x="1180.5" y="424.127"/><text fill="#000000" font-family="sans-serif" font-size="14" lengthAdjust="spacing" textLength="300" x="1187.5" y="444.6621">vaccinationCenterDto:VaccinationCenterDto</text><polygon fill="#181818" points="1047.5,482.9258,1057.5,486.9258,1047.5,490.9258,1051.5,486.9258" style="stroke:#181818;stroke-width:1.0;"/><line style="stroke:#181818;stroke-width:1.0;" x1="539.5" x2="1053.5" y1="486.9258" y2="486.9258"/><text fill="#000000" font-family="sans-serif" font-size="13" font-weight="bold" lengthAdjust="spacing" textLength="9" x="546.5" y="482.1836">9</text><text fill="#000000" font-family="sans-serif" font-size="13" lengthAdjust="spacing" textLength="167" x="559.5" y="482.1836">add(vaccinationCenterDto)</text><polygon fill="#181818" points="357.5,549.2363,347.5,553.2363,357.5,557.2363,353.5,553.2363" style="stroke:#181818;stroke-width:1.0;"/><line style="stroke:#181818;stroke-width:1.0;stroke-dasharray:2.0,2.0;" x1="351.5" x2="533.5" y1="553.2363" y2="553.2363"/><text fill="#000000" font-family="sans-serif" font-size="13" font-weight="bold" lengthAdjust="spacing" textLength="18" x="363.5" y="548.4941">10</text><text fill="#000000" font-family="sans-serif" font-size="13" lengthAdjust="spacing" textLength="92" x="385.5" y="548.4941">centersListDto</text><polygon fill="#181818" points="201.5,578.5469,191.5,582.5469,201.5,586.5469,197.5,582.5469" style="stroke:#181818;stroke-width:1.0;"/><line style="stroke:#181818;stroke-width:1.0;stroke-dasharray:2.0,2.0;" x1="195.5" x2="340.5" y1="582.5469" y2="582.5469"/><text fill="#000000" font-family="sans-serif" font-size="13" font-weight="bold" lengthAdjust="spacing" textLength="18" x="207.5" y="577.8047">11</text><text fill="#000000" font-family="sans-serif" font-size="13" lengthAdjust="spacing" textLength="92" x="229.5" y="577.8047">centersListDto</text><polygon fill="#181818" points="1768.5,607.8574,1778.5,611.8574,1768.5,615.8574,1772.5,611.8574" style="stroke:#181818;stroke-width:1.0;"/><line style="stroke:#181818;stroke-width:1.0;stroke-dasharray:2.0,2.0;" x1="190.5" x2="1774.5" y1="611.8574" y2="611.8574"/><text fill="#000000" font-family="sans-serif" font-size="13" font-weight="bold" lengthAdjust="spacing" textLength="18" x="197.5" y="607.1152">12</text><text fill="#000000" font-family="sans-serif" font-size="13" lengthAdjust="spacing" textLength="50" x="219.5" y="607.1152">create ()</text><rect fill="#E2E2F0" height="46.9766" rx="2.5" ry="2.5" style="stroke:#181818;stroke-width:0.5;" width="165" x="1780.5" y="590.5469"/><text fill="#000000" font-family="sans-serif" font-size="14" lengthAdjust="spacing" textLength="151" x="1787.5" y="611.082">dailyReportGenerator:</text><text fill="#000000" font-family="sans-serif" font-size="14" lengthAdjust="spacing" textLength="148" x="1789" y="627.5703">DailyReportGenerator</text><polygon fill="#181818" points="1846,665.834,1856,669.834,1846,673.834,1850,669.834" style="stroke:#181818;stroke-width:1.0;"/><line style="stroke:#181818;stroke-width:1.0;" x1="190.5" x2="1852" y1="669.834" y2="669.834"/><text fill="#000000" font-family="sans-serif" font-size="13" font-weight="bold" lengthAdjust="spacing" textLength="18" x="197.5" y="665.0918">13</text><text fill="#000000" font-family="sans-serif" font-size="13" lengthAdjust="spacing" textLength="174" x="219.5" y="665.0918">exportData (centersListDto)</text><rect height="53.5762" style="stroke:#000000;stroke-width:1.5;fill:none;" width="171" x="1777.5" y="677.834"/><path d="M1777.5,677.834 L1841.5,677.834 L1841.5,684.834 L1831.5,694.834 L1777.5,694.834 L1777.5,677.834 " fill="#EEEEEE" style="stroke:#000000;stroke-width:2.0;"/><text fill="#000000" font-family="sans-serif" font-size="13" font-weight="bold" lengthAdjust="spacing" textLength="19" x="1790.5" y="692.4023">ref</text><text fill="#000000" font-family="sans-serif" font-size="12" lengthAdjust="spacing" textLength="110" x="1808" y="710.4355">US_06_SD_EXPORT</text><text fill="#000000" font-family="sans-serif" font-size="12" lengthAdjust="spacing" textLength="4" x="1861" y="724.5684"> </text><!--MD5=[fb6b708dd24f13e0d4436bdb5d8fae29]
@startuml

autonumber


participant "task:\nExportCsvTask" as task
participant Company as company


participant VaccinationCenterStore as centerstore
participant VaccinationCenterMapper as centermapper
participant "centersList\n:List<VaccinationCenter>" as centerlist
participant "centersListDto\n:List<VaccinationCenterDto>" as centerlistdto
participant "vaccinationCenterDto:VaccinationCenterDto" as centerdto
participant "vaccinationCenter:VaccinationCenter" as center

participant "dailyReportGenerator:\nDailyReportGenerator" as generator

?o-> task : run ()

activate task
task -> company : setTask()

activate company
deactivate task
company -> centerstore : getListOfCenters()


activate centerstore

centerstore -> centermapper : listToDto(centersList)

activate centermapper

create centerlistdto
centermapper - -> centerlistdto : create()

loop for each center in centersList

centermapper -> centerlist : vaccinationCenter = get(i)
activate centerlist

deactivate centerlist

centermapper -> centermapper : vaccinationCenterDto = centerToDto (center)
activate centermapper
deactivate centermapper

create centerdto

centermapper - -> centerdto : create (...)

centermapper -> centerlistdto : add(vaccinationCenterDto)
activate centerlistdto
deactivate centerlistdto

end

centermapper - -> centerstore : centersListDto
deactivate centermapper

centerstore - -> company : centersListDto

deactivate centerstore

create generator

company - -> generator : create ()

company -> generator : exportData (centersListDto)

activate generator

ref over generator
US_06_SD_EXPORT

end






@enduml

PlantUML version 1.2022.4(Sat Apr 09 14:29:17 WEST 2022)
(GPL source distribution)
Java Runtime: OpenJDK Runtime Environment
JVM: OpenJDK 64-Bit Server VM
Default Encoding: UTF-8
Language: pt
Country: PT
--></g></svg>