<?xml version="1.0" encoding="UTF-8" standalone="no"?><svg xmlns="http://www.w3.org/2000/svg" xmlns:xlink="http://www.w3.org/1999/xlink" contentStyleType="text/css" height="1378px" preserveAspectRatio="none" style="width:1954px;height:1378px;background:#FFFFFF;" version="1.1" viewBox="0 0 1954 1378" width="1954px" zoomAndPan="magnify"><defs/><g><rect fill="#FFFFFF" height="1196.6953" style="stroke:#181818;stroke-width:1.0;" width="10" x="45" y="91.4883"/><rect fill="#FFFFFF" height="29.3105" style="stroke:#181818;stroke-width:1.0;" width="10" x="436" y="112.7988"/><rect fill="#FFFFFF" height="533.7266" style="stroke:#181818;stroke-width:1.0;" width="10" x="436" y="171.4199"/><rect fill="#FFFFFF" height="553.7266" style="stroke:#181818;stroke-width:1.0;" width="10" x="436" y="734.457"/><rect fill="#FFFFFF" height="465.1055" style="stroke:#181818;stroke-width:1.0;" width="10" x="617" y="203.7305"/><rect fill="#FFFFFF" height="486.1055" style="stroke:#181818;stroke-width:1.0;" width="10" x="617" y="763.7676"/><rect fill="#FFFFFF" height="409.7949" style="stroke:#181818;stroke-width:1.0;" width="10" x="821" y="295.3516"/><rect fill="#FFFFFF" height="427.4844" style="stroke:#181818;stroke-width:1.0;" width="10" x="821" y="793.0781"/><rect fill="#FFFFFF" height="30" style="stroke:#181818;stroke-width:1.0;" width="10" x="1032" y="236.041"/><rect fill="#FFFFFF" height="30" style="stroke:#181818;stroke-width:1.0;" width="10" x="1032" y="941.0098"/><rect fill="#FFFFFF" height="344.1738" style="stroke:#181818;stroke-width:1.0;" width="10" x="1146" y="324.6621"/><rect fill="#FFFFFF" height="30" style="stroke:#181818;stroke-width:1.0;" width="10" x="1433" y="353.9727"/><rect fill="#FFFFFF" height="30" style="stroke:#181818;stroke-width:1.0;" width="10" x="1433" y="413.2832"/><rect fill="#FFFFFF" height="30" style="stroke:#181818;stroke-width:1.0;" width="10" x="1433" y="472.5938"/><rect fill="#FFFFFF" height="30" style="stroke:#181818;stroke-width:1.0;" width="10" x="1433" y="531.9043"/><rect fill="#FFFFFF" height="77.6211" style="stroke:#181818;stroke-width:1.0;" width="10" x="1554.5" y="591.2148"/><rect fill="#FFFFFF" height="30" style="stroke:#181818;stroke-width:1.0;" width="10" x="1554.5" y="822.3887"/><rect fill="#FFFFFF" height="30" style="stroke:#181818;stroke-width:1.0;" width="10" x="1554.5" y="881.6992"/><rect fill="#FFFFFF" height="30" style="stroke:#181818;stroke-width:1.0;" width="10" x="1731.5" y="1000.3203"/><rect fill="#FFFFFF" height="30" style="stroke:#181818;stroke-width:1.0;" width="10" x="1731.5" y="1118.9414"/><rect fill="#FFFFFF" height="30" style="stroke:#181818;stroke-width:1.0;" width="10" x="1867" y="1059.6309"/><line style="stroke:#181818;stroke-width:0.5;stroke-dasharray:5.0,5.0;" x1="50" x2="50" y1="81.4883" y2="1297.1836"/><line style="stroke:#181818;stroke-width:0.5;stroke-dasharray:5.0,5.0;" x1="440.5" x2="440.5" y1="81.4883" y2="1297.1836"/><line style="stroke:#181818;stroke-width:0.5;stroke-dasharray:5.0,5.0;" x1="621.5" x2="621.5" y1="81.4883" y2="1297.1836"/><line style="stroke:#181818;stroke-width:0.5;stroke-dasharray:5.0,5.0;" x1="826" x2="826" y1="81.4883" y2="1297.1836"/><line style="stroke:#181818;stroke-width:0.5;stroke-dasharray:5.0,5.0;" x1="1036.5" x2="1036.5" y1="81.4883" y2="1297.1836"/><line style="stroke:#181818;stroke-width:0.5;stroke-dasharray:5.0,5.0;" x1="1150.5" x2="1150.5" y1="81.4883" y2="1297.1836"/><line style="stroke:#181818;stroke-width:0.5;stroke-dasharray:5.0,5.0;" x1="1438" x2="1438" y1="81.4883" y2="1297.1836"/><line style="stroke:#181818;stroke-width:0.5;stroke-dasharray:5.0,5.0;" x1="1559" x2="1559" y1="81.4883" y2="1297.1836"/><line style="stroke:#181818;stroke-width:0.5;stroke-dasharray:5.0,5.0;" x1="1736" x2="1736" y1="81.4883" y2="1297.1836"/><line style="stroke:#181818;stroke-width:0.5;stroke-dasharray:5.0,5.0;" x1="1872" x2="1872" y1="81.4883" y2="1297.1836"/><text fill="#000000" font-family="sans-serif" font-size="14" lengthAdjust="spacing" textLength="84" x="5" y="78.5352">Receptionist</text><ellipse cx="50" cy="13.5" fill="#E2E2F0" rx="8" ry="8" style="stroke:#181818;stroke-width:0.5;"/><path d="M50,21.5 L50,48.5 M37,29.5 L63,29.5 M50,48.5 L37,63.5 M50,48.5 L63,63.5 " fill="none" style="stroke:#181818;stroke-width:0.5;"/><text fill="#000000" font-family="sans-serif" font-size="14" lengthAdjust="spacing" textLength="84" x="5" y="1309.7188">Receptionist</text><ellipse cx="50" cy="1321.1719" fill="#E2E2F0" rx="8" ry="8" style="stroke:#181818;stroke-width:0.5;"/><path d="M50,1329.1719 L50,1356.1719 M37,1337.1719 L63,1337.1719 M50,1356.1719 L37,1371.1719 M50,1356.1719 L63,1371.1719 " fill="none" style="stroke:#181818;stroke-width:0.5;"/><rect fill="#E2E2F0" height="30.4883" rx="2.5" ry="2.5" style="stroke:#181818;stroke-width:0.5;" width="143" x="369.5" y="50"/><text fill="#000000" font-family="sans-serif" font-size="14" lengthAdjust="spacing" textLength="129" x="376.5" y="70.5352">:RegisterSnsUserUi</text><rect fill="#E2E2F0" height="30.4883" rx="2.5" ry="2.5" style="stroke:#181818;stroke-width:0.5;" width="143" x="369.5" y="1296.1836"/><text fill="#000000" font-family="sans-serif" font-size="14" lengthAdjust="spacing" textLength="129" x="376.5" y="1316.7188">:RegisterSnsUserUi</text><rect fill="#E2E2F0" height="30.4883" rx="2.5" ry="2.5" style="stroke:#181818;stroke-width:0.5;" width="199" x="522.5" y="50"/><text fill="#000000" font-family="sans-serif" font-size="14" lengthAdjust="spacing" textLength="185" x="529.5" y="70.5352">:RegisterSnsUserController</text><rect fill="#E2E2F0" height="30.4883" rx="2.5" ry="2.5" style="stroke:#181818;stroke-width:0.5;" width="199" x="522.5" y="1296.1836"/><text fill="#000000" font-family="sans-serif" font-size="14" lengthAdjust="spacing" textLength="185" x="529.5" y="1316.7188">:RegisterSnsUserController</text><rect fill="#E2E2F0" height="30.4883" rx="2.5" ry="2.5" style="stroke:#181818;stroke-width:0.5;" width="176" x="738" y="50"/><text fill="#000000" font-family="sans-serif" font-size="14" lengthAdjust="spacing" textLength="162" x="745" y="70.5352">SnsUserStore:UserStore</text><rect fill="#E2E2F0" height="30.4883" rx="2.5" ry="2.5" style="stroke:#181818;stroke-width:0.5;" width="176" x="738" y="1296.1836"/><text fill="#000000" font-family="sans-serif" font-size="14" lengthAdjust="spacing" textLength="162" x="745" y="1316.7188">SnsUserStore:UserStore</text><rect fill="#E2E2F0" height="30.4883" rx="2.5" ry="2.5" style="stroke:#181818;stroke-width:0.5;" width="83" x="995.5" y="50"/><text fill="#000000" font-family="sans-serif" font-size="14" lengthAdjust="spacing" textLength="69" x="1002.5" y="70.5352">:Company</text><rect fill="#E2E2F0" height="30.4883" rx="2.5" ry="2.5" style="stroke:#181818;stroke-width:0.5;" width="83" x="995.5" y="1296.1836"/><text fill="#000000" font-family="sans-serif" font-size="14" lengthAdjust="spacing" textLength="69" x="1002.5" y="1316.7188">:Company</text><rect fill="#E2E2F0" height="30.4883" rx="2.5" ry="2.5" style="stroke:#181818;stroke-width:0.5;" width="125" x="1088.5" y="50"/><text fill="#000000" font-family="sans-serif" font-size="14" lengthAdjust="spacing" textLength="111" x="1095.5" y="70.5352">:SnsUserMapper</text><rect fill="#E2E2F0" height="30.4883" rx="2.5" ry="2.5" style="stroke:#181818;stroke-width:0.5;" width="125" x="1088.5" y="1296.1836"/><text fill="#000000" font-family="sans-serif" font-size="14" lengthAdjust="spacing" textLength="111" x="1095.5" y="1316.7188">:SnsUserMapper</text><rect fill="#E2E2F0" height="30.4883" rx="2.5" ry="2.5" style="stroke:#181818;stroke-width:0.5;" width="120" x="1378" y="50"/><text fill="#000000" font-family="sans-serif" font-size="14" lengthAdjust="spacing" textLength="106" x="1385" y="70.5352">dto:SnsUserDto</text><rect fill="#E2E2F0" height="30.4883" rx="2.5" ry="2.5" style="stroke:#181818;stroke-width:0.5;" width="120" x="1378" y="1296.1836"/><text fill="#000000" font-family="sans-serif" font-size="14" lengthAdjust="spacing" textLength="106" x="1385" y="1316.7188">dto:SnsUserDto</text><rect fill="#E2E2F0" height="30.4883" rx="2.5" ry="2.5" style="stroke:#181818;stroke-width:0.5;" width="103" x="1508" y="50"/><text fill="#000000" font-family="sans-serif" font-size="14" lengthAdjust="spacing" textLength="89" x="1515" y="70.5352">user:SnsUser</text><rect fill="#E2E2F0" height="30.4883" rx="2.5" ry="2.5" style="stroke:#181818;stroke-width:0.5;" width="103" x="1508" y="1296.1836"/><text fill="#000000" font-family="sans-serif" font-size="14" lengthAdjust="spacing" textLength="89" x="1515" y="1316.7188">user:SnsUser</text><rect fill="#E2E2F0" height="30.4883" rx="2.5" ry="2.5" style="stroke:#181818;stroke-width:0.5;" width="99" x="1687" y="50"/><text fill="#000000" font-family="sans-serif" font-size="14" lengthAdjust="spacing" textLength="85" x="1694" y="70.5352">:AuthFacade</text><rect fill="#E2E2F0" height="30.4883" rx="2.5" ry="2.5" style="stroke:#181818;stroke-width:0.5;" width="99" x="1687" y="1296.1836"/><text fill="#000000" font-family="sans-serif" font-size="14" lengthAdjust="spacing" textLength="85" x="1694" y="1316.7188">:AuthFacade</text><rect fill="#E2E2F0" height="30.4883" rx="2.5" ry="2.5" style="stroke:#181818;stroke-width:0.5;" width="152" x="1796" y="50"/><text fill="#000000" font-family="sans-serif" font-size="14" lengthAdjust="spacing" textLength="138" x="1803" y="70.5352">:PasswordGenerator</text><rect fill="#E2E2F0" height="30.4883" rx="2.5" ry="2.5" style="stroke:#181818;stroke-width:0.5;" width="152" x="1796" y="1296.1836"/><text fill="#000000" font-family="sans-serif" font-size="14" lengthAdjust="spacing" textLength="138" x="1803" y="1316.7188">:PasswordGenerator</text><rect fill="#FFFFFF" height="1196.6953" style="stroke:#181818;stroke-width:1.0;" width="10" x="45" y="91.4883"/><rect fill="#FFFFFF" height="29.3105" style="stroke:#181818;stroke-width:1.0;" width="10" x="436" y="112.7988"/><rect fill="#FFFFFF" height="533.7266" style="stroke:#181818;stroke-width:1.0;" width="10" x="436" y="171.4199"/><rect fill="#FFFFFF" height="553.7266" style="stroke:#181818;stroke-width:1.0;" width="10" x="436" y="734.457"/><rect fill="#FFFFFF" height="465.1055" style="stroke:#181818;stroke-width:1.0;" width="10" x="617" y="203.7305"/><rect fill="#FFFFFF" height="486.1055" style="stroke:#181818;stroke-width:1.0;" width="10" x="617" y="763.7676"/><rect fill="#FFFFFF" height="409.7949" style="stroke:#181818;stroke-width:1.0;" width="10" x="821" y="295.3516"/><rect fill="#FFFFFF" height="427.4844" style="stroke:#181818;stroke-width:1.0;" width="10" x="821" y="793.0781"/><rect fill="#FFFFFF" height="30" style="stroke:#181818;stroke-width:1.0;" width="10" x="1032" y="236.041"/><rect fill="#FFFFFF" height="30" style="stroke:#181818;stroke-width:1.0;" width="10" x="1032" y="941.0098"/><rect fill="#FFFFFF" height="344.1738" style="stroke:#181818;stroke-width:1.0;" width="10" x="1146" y="324.6621"/><rect fill="#FFFFFF" height="30" style="stroke:#181818;stroke-width:1.0;" width="10" x="1433" y="353.9727"/><rect fill="#FFFFFF" height="30" style="stroke:#181818;stroke-width:1.0;" width="10" x="1433" y="413.2832"/><rect fill="#FFFFFF" height="30" style="stroke:#181818;stroke-width:1.0;" width="10" x="1433" y="472.5938"/><rect fill="#FFFFFF" height="30" style="stroke:#181818;stroke-width:1.0;" width="10" x="1433" y="531.9043"/><rect fill="#FFFFFF" height="77.6211" style="stroke:#181818;stroke-width:1.0;" width="10" x="1554.5" y="591.2148"/><rect fill="#FFFFFF" height="30" style="stroke:#181818;stroke-width:1.0;" width="10" x="1554.5" y="822.3887"/><rect fill="#FFFFFF" height="30" style="stroke:#181818;stroke-width:1.0;" width="10" x="1554.5" y="881.6992"/><rect fill="#FFFFFF" height="30" style="stroke:#181818;stroke-width:1.0;" width="10" x="1731.5" y="1000.3203"/><rect fill="#FFFFFF" height="30" style="stroke:#181818;stroke-width:1.0;" width="10" x="1731.5" y="1118.9414"/><rect fill="#FFFFFF" height="30" style="stroke:#181818;stroke-width:1.0;" width="10" x="1867" y="1059.6309"/><polygon fill="#181818" points="424,108.7988,434,112.7988,424,116.7988,428,112.7988" style="stroke:#181818;stroke-width:1.0;"/><line style="stroke:#181818;stroke-width:1.0;" x1="55" x2="430" y1="112.7988" y2="112.7988"/><text fill="#000000" font-family="sans-serif" font-size="13" font-weight="bold" lengthAdjust="spacing" textLength="9" x="62" y="108.0566">1</text><text fill="#000000" font-family="sans-serif" font-size="13" lengthAdjust="spacing" textLength="185" x="75" y="108.0566">requests to create a new User</text><polygon fill="#181818" points="66,138.1094,56,142.1094,66,146.1094,62,142.1094" style="stroke:#181818;stroke-width:1.0;"/><line style="stroke:#181818;stroke-width:1.0;stroke-dasharray:2.0,2.0;" x1="60" x2="440" y1="142.1094" y2="142.1094"/><text fill="#000000" font-family="sans-serif" font-size="13" font-weight="bold" lengthAdjust="spacing" textLength="9" x="72" y="137.3672">2</text><text fill="#000000" font-family="sans-serif" font-size="13" lengthAdjust="spacing" textLength="344" x="85" y="137.3672">requests data (name,snsNumber,email,smsPermission)</text><polygon fill="#181818" points="424,167.4199,434,171.4199,424,175.4199,428,171.4199" style="stroke:#181818;stroke-width:1.0;"/><line style="stroke:#181818;stroke-width:1.0;" x1="55" x2="430" y1="171.4199" y2="171.4199"/><text fill="#000000" font-family="sans-serif" font-size="13" font-weight="bold" lengthAdjust="spacing" textLength="9" x="62" y="166.6777">3</text><text fill="#000000" font-family="sans-serif" font-size="13" lengthAdjust="spacing" textLength="95" x="75" y="166.6777">inputs the data</text><polygon fill="#181818" points="605,199.7305,615,203.7305,605,207.7305,609,203.7305" style="stroke:#181818;stroke-width:1.0;"/><line style="stroke:#181818;stroke-width:1.0;" x1="446" x2="611" y1="203.7305" y2="203.7305"/><text fill="#000000" font-family="sans-serif" font-size="13" font-weight="bold" lengthAdjust="spacing" textLength="9" x="453" y="198.9883">4</text><text fill="#000000" font-family="sans-serif" font-size="13" lengthAdjust="spacing" textLength="121" x="466" y="198.9883">createSnsUser (dto)</text><path d="M632,184.4199 L632,209.4199 L979,209.4199 L979,194.4199 L969,184.4199 L632,184.4199 " fill="#FEFFDD" style="stroke:#181818;stroke-width:0.5;"/><path d="M969,184.4199 L969,194.4199 L979,194.4199 L969,184.4199 " fill="#FEFFDD" style="stroke:#181818;stroke-width:0.5;"/><text fill="#000000" font-family="sans-serif" font-size="13" lengthAdjust="spacing" textLength="326" x="638" y="201.9883">dto contains all the information inputed by the user</text><polygon fill="#181818" points="1020,232.041,1030,236.041,1020,240.041,1024,236.041" style="stroke:#181818;stroke-width:1.0;"/><line style="stroke:#181818;stroke-width:1.0;" x1="627" x2="1026" y1="236.041" y2="236.041"/><text fill="#000000" font-family="sans-serif" font-size="13" font-weight="bold" lengthAdjust="spacing" textLength="9" x="634" y="231.2988">5</text><text fill="#000000" font-family="sans-serif" font-size="13" lengthAdjust="spacing" textLength="165" x="647" y="231.2988">userStore = getUserStore()</text><polygon fill="#181818" points="809,291.3516,819,295.3516,809,299.3516,813,295.3516" style="stroke:#181818;stroke-width:1.0;"/><line style="stroke:#181818;stroke-width:1.0;" x1="627" x2="815" y1="295.3516" y2="295.3516"/><text fill="#000000" font-family="sans-serif" font-size="13" font-weight="bold" lengthAdjust="spacing" textLength="9" x="634" y="290.6094">6</text><text fill="#000000" font-family="sans-serif" font-size="13" lengthAdjust="spacing" textLength="162" x="647" y="290.6094">user = createSnsUser(dto)</text><polygon fill="#181818" points="1134,320.6621,1144,324.6621,1134,328.6621,1138,324.6621" style="stroke:#181818;stroke-width:1.0;"/><line style="stroke:#181818;stroke-width:1.0;" x1="831" x2="1140" y1="324.6621" y2="324.6621"/><text fill="#000000" font-family="sans-serif" font-size="13" font-weight="bold" lengthAdjust="spacing" textLength="9" x="838" y="319.9199">7</text><text fill="#000000" font-family="sans-serif" font-size="13" lengthAdjust="spacing" textLength="137" x="851" y="319.9199">user = toSnsUser(dto)</text><polygon fill="#181818" points="1421,349.9727,1431,353.9727,1421,357.9727,1425,353.9727" style="stroke:#181818;stroke-width:1.0;"/><line style="stroke:#181818;stroke-width:1.0;" x1="1156" x2="1427" y1="353.9727" y2="353.9727"/><text fill="#000000" font-family="sans-serif" font-size="13" font-weight="bold" lengthAdjust="spacing" textLength="9" x="1163" y="349.2305">8</text><text fill="#000000" font-family="sans-serif" font-size="13" lengthAdjust="spacing" textLength="116" x="1176" y="349.2305">name = getName()</text><polygon fill="#181818" points="1421,409.2832,1431,413.2832,1421,417.2832,1425,413.2832" style="stroke:#181818;stroke-width:1.0;"/><line style="stroke:#181818;stroke-width:1.0;" x1="1156" x2="1427" y1="413.2832" y2="413.2832"/><text fill="#000000" font-family="sans-serif" font-size="13" font-weight="bold" lengthAdjust="spacing" textLength="9" x="1163" y="408.541">9</text><text fill="#000000" font-family="sans-serif" font-size="13" lengthAdjust="spacing" textLength="190" x="1176" y="408.541">snsNumber = getSnsNumber()</text><polygon fill="#181818" points="1421,468.5938,1431,472.5938,1421,476.5938,1425,472.5938" style="stroke:#181818;stroke-width:1.0;"/><line style="stroke:#181818;stroke-width:1.0;" x1="1156" x2="1427" y1="472.5938" y2="472.5938"/><text fill="#000000" font-family="sans-serif" font-size="13" font-weight="bold" lengthAdjust="spacing" textLength="18" x="1163" y="467.8516">10</text><text fill="#000000" font-family="sans-serif" font-size="13" lengthAdjust="spacing" textLength="114" x="1185" y="467.8516">email = getEmail()</text><polygon fill="#181818" points="1421,527.9043,1431,531.9043,1421,535.9043,1425,531.9043" style="stroke:#181818;stroke-width:1.0;"/><line style="stroke:#181818;stroke-width:1.0;" x1="1156" x2="1427" y1="531.9043" y2="531.9043"/><text fill="#000000" font-family="sans-serif" font-size="13" font-weight="bold" lengthAdjust="spacing" textLength="18" x="1163" y="527.1621">11</text><text fill="#000000" font-family="sans-serif" font-size="13" lengthAdjust="spacing" textLength="236" x="1185" y="527.1621">smsPermission = getSmsPermission()</text><polygon fill="#181818" points="1542.5,587.2148,1552.5,591.2148,1542.5,595.2148,1546.5,591.2148" style="stroke:#181818;stroke-width:1.0;"/><line style="stroke:#181818;stroke-width:1.0;stroke-dasharray:2.0,2.0;" x1="1156" x2="1548.5" y1="591.2148" y2="591.2148"/><text fill="#000000" font-family="sans-serif" font-size="13" font-weight="bold" lengthAdjust="spacing" textLength="18" x="1163" y="586.4727">12</text><text fill="#000000" font-family="sans-serif" font-size="13" lengthAdjust="spacing" textLength="293" x="1185" y="586.4727">create(name,snsNumber,email,smsPermission)</text><line style="stroke:#181818;stroke-width:1.0;" x1="1564.5" x2="1606.5" y1="620.5254" y2="620.5254"/><line style="stroke:#181818;stroke-width:1.0;" x1="1606.5" x2="1606.5" y1="620.5254" y2="633.5254"/><line style="stroke:#181818;stroke-width:1.0;" x1="1565.5" x2="1606.5" y1="633.5254" y2="633.5254"/><polygon fill="#181818" points="1575.5,629.5254,1565.5,633.5254,1575.5,637.5254,1571.5,633.5254" style="stroke:#181818;stroke-width:1.0;"/><text fill="#000000" font-family="sans-serif" font-size="13" font-weight="bold" lengthAdjust="spacing" textLength="18" x="1571.5" y="615.7832">13</text><text fill="#000000" font-family="sans-serif" font-size="13" lengthAdjust="spacing" textLength="131" x="1593.5" y="615.7832">validateInformation()</text><line style="stroke:#181818;stroke-width:1.0;" x1="831" x2="873" y1="667.8359" y2="667.8359"/><line style="stroke:#181818;stroke-width:1.0;" x1="873" x2="873" y1="667.8359" y2="680.8359"/><line style="stroke:#181818;stroke-width:1.0;" x1="826" x2="873" y1="680.8359" y2="680.8359"/><polygon fill="#181818" points="836,676.8359,826,680.8359,836,684.8359,832,680.8359" style="stroke:#181818;stroke-width:1.0;"/><text fill="#000000" font-family="sans-serif" font-size="13" font-weight="bold" lengthAdjust="spacing" textLength="18" x="838" y="663.0938">14</text><text fill="#000000" font-family="sans-serif" font-size="13" lengthAdjust="spacing" textLength="134" x="860" y="663.0938">validateSnsUser(user)</text><polygon fill="#181818" points="66,701.1465,56,705.1465,66,709.1465,62,705.1465" style="stroke:#181818;stroke-width:1.0;"/><line style="stroke:#181818;stroke-width:1.0;stroke-dasharray:2.0,2.0;" x1="60" x2="440" y1="705.1465" y2="705.1465"/><text fill="#000000" font-family="sans-serif" font-size="13" font-weight="bold" lengthAdjust="spacing" textLength="18" x="72" y="700.4043">15</text><text fill="#000000" font-family="sans-serif" font-size="13" lengthAdjust="spacing" textLength="262" x="94" y="700.4043">shows the data and asks for confirmation</text><polygon fill="#181818" points="424,730.457,434,734.457,424,738.457,428,734.457" style="stroke:#181818;stroke-width:1.0;"/><line style="stroke:#181818;stroke-width:1.0;" x1="55" x2="430" y1="734.457" y2="734.457"/><text fill="#000000" font-family="sans-serif" font-size="13" font-weight="bold" lengthAdjust="spacing" textLength="18" x="62" y="729.7148">16</text><text fill="#000000" font-family="sans-serif" font-size="13" lengthAdjust="spacing" textLength="195" x="84" y="729.7148">confirms/deny the information</text><polygon fill="#181818" points="605,759.7676,615,763.7676,605,767.7676,609,763.7676" style="stroke:#181818;stroke-width:1.0;"/><line style="stroke:#181818;stroke-width:1.0;" x1="446" x2="611" y1="763.7676" y2="763.7676"/><text fill="#000000" font-family="sans-serif" font-size="13" font-weight="bold" lengthAdjust="spacing" textLength="18" x="453" y="759.0254">17</text><text fill="#000000" font-family="sans-serif" font-size="13" lengthAdjust="spacing" textLength="106" x="475" y="759.0254">registerSnsUser()</text><polygon fill="#181818" points="809,789.0781,819,793.0781,809,797.0781,813,793.0781" style="stroke:#181818;stroke-width:1.0;"/><line style="stroke:#181818;stroke-width:1.0;" x1="627" x2="815" y1="793.0781" y2="793.0781"/><text fill="#000000" font-family="sans-serif" font-size="13" font-weight="bold" lengthAdjust="spacing" textLength="18" x="634" y="788.3359">18</text><text fill="#000000" font-family="sans-serif" font-size="13" lengthAdjust="spacing" textLength="133" x="656" y="788.3359">registerSnsUser(user)</text><polygon fill="#181818" points="1542.5,818.3887,1552.5,822.3887,1542.5,826.3887,1546.5,822.3887" style="stroke:#181818;stroke-width:1.0;"/><line style="stroke:#181818;stroke-width:1.0;" x1="831" x2="1548.5" y1="822.3887" y2="822.3887"/><text fill="#000000" font-family="sans-serif" font-size="13" font-weight="bold" lengthAdjust="spacing" textLength="18" x="838" y="817.6465">19</text><text fill="#000000" font-family="sans-serif" font-size="13" lengthAdjust="spacing" textLength="114" x="860" y="817.6465">email = getEmail()</text><polygon fill="#181818" points="1542.5,877.6992,1552.5,881.6992,1542.5,885.6992,1546.5,881.6992" style="stroke:#181818;stroke-width:1.0;"/><line style="stroke:#181818;stroke-width:1.0;" x1="831" x2="1548.5" y1="881.6992" y2="881.6992"/><text fill="#000000" font-family="sans-serif" font-size="13" font-weight="bold" lengthAdjust="spacing" textLength="18" x="838" y="876.957">20</text><text fill="#000000" font-family="sans-serif" font-size="13" lengthAdjust="spacing" textLength="116" x="860" y="876.957">name = getName()</text><polygon fill="#181818" points="1020,937.0098,1030,941.0098,1020,945.0098,1024,941.0098" style="stroke:#181818;stroke-width:1.0;"/><line style="stroke:#181818;stroke-width:1.0;" x1="831" x2="1026" y1="941.0098" y2="941.0098"/><text fill="#000000" font-family="sans-serif" font-size="13" font-weight="bold" lengthAdjust="spacing" textLength="18" x="838" y="936.2676">21</text><text fill="#000000" font-family="sans-serif" font-size="13" lengthAdjust="spacing" textLength="160" x="860" y="936.2676">facade = getAuthFacade()</text><polygon fill="#181818" points="1719.5,996.3203,1729.5,1000.3203,1719.5,1004.3203,1723.5,1000.3203" style="stroke:#181818;stroke-width:1.0;"/><line style="stroke:#181818;stroke-width:1.0;" x1="831" x2="1725.5" y1="1000.3203" y2="1000.3203"/><text fill="#000000" font-family="sans-serif" font-size="13" font-weight="bold" lengthAdjust="spacing" textLength="18" x="838" y="995.5781">22</text><text fill="#000000" font-family="sans-serif" font-size="13" lengthAdjust="spacing" textLength="108" x="860" y="995.5781">existsUser(email)</text><polygon fill="#181818" points="1855,1055.6309,1865,1059.6309,1855,1063.6309,1859,1059.6309" style="stroke:#181818;stroke-width:1.0;"/><line style="stroke:#181818;stroke-width:1.0;" x1="831" x2="1861" y1="1059.6309" y2="1059.6309"/><text fill="#000000" font-family="sans-serif" font-size="13" font-weight="bold" lengthAdjust="spacing" textLength="18" x="838" y="1054.8887">23</text><text fill="#000000" font-family="sans-serif" font-size="13" lengthAdjust="spacing" textLength="173" x="860" y="1054.8887">password = pwdGenerator()</text><polygon fill="#181818" points="1719.5,1114.9414,1729.5,1118.9414,1719.5,1122.9414,1723.5,1118.9414" style="stroke:#181818;stroke-width:1.0;"/><line style="stroke:#181818;stroke-width:1.0;" x1="831" x2="1725.5" y1="1118.9414" y2="1118.9414"/><text fill="#000000" font-family="sans-serif" font-size="13" font-weight="bold" lengthAdjust="spacing" textLength="18" x="838" y="1114.1992">24</text><text fill="#000000" font-family="sans-serif" font-size="13" lengthAdjust="spacing" textLength="349" x="860" y="1114.1992">result = addUserWithRole(name,email,password,"USER")</text><line style="stroke:#181818;stroke-width:1.0;" x1="831" x2="873" y1="1178.252" y2="1178.252"/><line style="stroke:#181818;stroke-width:1.0;" x1="873" x2="873" y1="1178.252" y2="1191.252"/><line style="stroke:#181818;stroke-width:1.0;" x1="832" x2="873" y1="1191.252" y2="1191.252"/><polygon fill="#181818" points="842,1187.252,832,1191.252,842,1195.252,838,1191.252" style="stroke:#181818;stroke-width:1.0;"/><text fill="#000000" font-family="sans-serif" font-size="13" font-weight="bold" lengthAdjust="spacing" textLength="18" x="838" y="1173.5098">25</text><text fill="#000000" font-family="sans-serif" font-size="13" lengthAdjust="spacing" textLength="108" x="860" y="1173.5098">addSnsUser(user)</text><polygon fill="#181818" points="638,1216.5625,628,1220.5625,638,1224.5625,634,1220.5625" style="stroke:#181818;stroke-width:1.0;"/><line style="stroke:#181818;stroke-width:1.0;stroke-dasharray:2.0,2.0;" x1="632" x2="825" y1="1220.5625" y2="1220.5625"/><text fill="#000000" font-family="sans-serif" font-size="13" font-weight="bold" lengthAdjust="spacing" textLength="18" x="644" y="1215.8203">26</text><text fill="#000000" font-family="sans-serif" font-size="13" lengthAdjust="spacing" textLength="36" x="666" y="1215.8203">result</text><polygon fill="#181818" points="457,1245.873,447,1249.873,457,1253.873,453,1249.873" style="stroke:#181818;stroke-width:1.0;"/><line style="stroke:#181818;stroke-width:1.0;stroke-dasharray:2.0,2.0;" x1="451" x2="621" y1="1249.873" y2="1249.873"/><text fill="#000000" font-family="sans-serif" font-size="13" font-weight="bold" lengthAdjust="spacing" textLength="18" x="463" y="1245.1309">27</text><text fill="#000000" font-family="sans-serif" font-size="13" lengthAdjust="spacing" textLength="36" x="485" y="1245.1309">result</text><polygon fill="#181818" points="66,1275.1836,56,1279.1836,66,1283.1836,62,1279.1836" style="stroke:#181818;stroke-width:1.0;"/><line style="stroke:#181818;stroke-width:1.0;stroke-dasharray:2.0,2.0;" x1="60" x2="435" y1="1279.1836" y2="1279.1836"/><text fill="#000000" font-family="sans-serif" font-size="13" font-weight="bold" lengthAdjust="spacing" textLength="18" x="72" y="1274.4414">28</text><text fill="#000000" font-family="sans-serif" font-size="13" lengthAdjust="spacing" textLength="209" x="94" y="1274.4414">informs success/failure message</text><!--MD5=[764ec5d6b869951da4df165dc26429b1]
@startuml
'https://plantuml.com/sequence-diagram

autonumber

actor "Receptionist" as receptionist

participant ":RegisterSnsUserUi" as ui
participant ":RegisterSnsUserController" as controller

participant "SnsUserStore:UserStore" as store
participant ":Company" as company
participant ":SnsUserMapper" as mapper
participant "dto:SnsUserDto" as dto
participant "user:SnsUser" as user
participant ":AuthFacade" as facade
participant ":PasswordGenerator" as pass


activate receptionist

receptionist -> ui : requests to create a new User
activate ui

ui - -> receptionist : requests data (name,snsNumber,email,smsPermission)
deactivate ui

receptionist -> ui : inputs the data
activate ui

ui -> controller : createSnsUser (dto)
activate controller

note right
    dto contains all the information inputed by the user
end note

controller -> company : userStore = getUserStore()
activate company
deactivate company

controller -> store : user = createSnsUser(dto)
activate store

store -> mapper : user = toSnsUser(dto)
activate mapper

mapper -> dto : name = getName()
activate dto
deactivate dto

mapper -> dto : snsNumber = getSnsNumber()
activate dto
deactivate dto

mapper -> dto : email = getEmail()
activate dto
deactivate dto

mapper -> dto : smsPermission = getSmsPermission()
activate dto
deactivate dto

mapper - -> user : create(name,snsNumber,email,smsPermission)
activate user
user -> user : validateInformation()

store -> store : validateSnsUser(user)
deactivate user
deactivate mapper




deactivate controller

ui - -> receptionist : shows the data and asks for confirmation

deactivate store
deactivate ui

receptionist -> ui : confirms/deny the information

activate ui

ui -> controller : registerSnsUser()

activate controller

controller -> store : registerSnsUser(user)

activate store
store -> user : email = getEmail()
activate user
deactivate user

store -> user : name = getName()
activate user
deactivate user

store -> company : facade = getAuthFacade()
activate company
deactivate company

store -> facade : existsUser(email)
activate facade
deactivate facade

store -> pass : password = pwdGenerator()
activate pass
deactivate pass

store -> facade : result = addUserWithRole(name,email,password,"USER")
activate facade
deactivate facade

store -> store : addSnsUser(user)

store - -> controller : result
deactivate store

controller - -> ui : result
deactivate controller

ui - -> receptionist : informs success/failure message



@enduml

@startuml

autonumber

actor "Receptionist" as receptionist

participant ":RegisterSnsUserUi" as ui
participant ":RegisterSnsUserController" as controller

participant "SnsUserStore:UserStore" as store
participant ":Company" as company
participant ":SnsUserMapper" as mapper
participant "dto:SnsUserDto" as dto
participant "user:SnsUser" as user
participant ":AuthFacade" as facade
participant ":PasswordGenerator" as pass


activate receptionist

receptionist -> ui : requests to create a new User
activate ui

ui - -> receptionist : requests data (name,snsNumber,email,smsPermission)
deactivate ui

receptionist -> ui : inputs the data
activate ui

ui -> controller : createSnsUser (dto)
activate controller

note right
    dto contains all the information inputed by the user
end note

controller -> company : userStore = getUserStore()
activate company
deactivate company

controller -> store : user = createSnsUser(dto)
activate store

store -> mapper : user = toSnsUser(dto)
activate mapper

mapper -> dto : name = getName()
activate dto
deactivate dto

mapper -> dto : snsNumber = getSnsNumber()
activate dto
deactivate dto

mapper -> dto : email = getEmail()
activate dto
deactivate dto

mapper -> dto : smsPermission = getSmsPermission()
activate dto
deactivate dto

mapper - -> user : create(name,snsNumber,email,smsPermission)
activate user
user -> user : validateInformation()

store -> store : validateSnsUser(user)
deactivate user
deactivate mapper




deactivate controller

ui - -> receptionist : shows the data and asks for confirmation

deactivate store
deactivate ui

receptionist -> ui : confirms/deny the information

activate ui

ui -> controller : registerSnsUser()

activate controller

controller -> store : registerSnsUser(user)

activate store
store -> user : email = getEmail()
activate user
deactivate user

store -> user : name = getName()
activate user
deactivate user

store -> company : facade = getAuthFacade()
activate company
deactivate company

store -> facade : existsUser(email)
activate facade
deactivate facade

store -> pass : password = pwdGenerator()
activate pass
deactivate pass

store -> facade : result = addUserWithRole(name,email,password,"USER")
activate facade
deactivate facade

store -> store : addSnsUser(user)

store - -> controller : result
deactivate store

controller - -> ui : result
deactivate controller

ui - -> receptionist : informs success/failure message



@enduml

PlantUML version 1.2022.4(Sat Apr 09 14:29:17 WEST 2022)
(GPL source distribution)
Java Runtime: OpenJDK Runtime Environment
JVM: OpenJDK 64-Bit Server VM
Default Encoding: UTF-8
Language: pt
Country: PT
--></g></svg>