<?xml version="1.0" encoding="UTF-8" standalone="no"?><svg xmlns="http://www.w3.org/2000/svg" xmlns:xlink="http://www.w3.org/1999/xlink" contentStyleType="text/css" height="317px" preserveAspectRatio="none" style="width:455px;height:317px;background:#FFFFFF;" version="1.1" viewBox="0 0 455 317" width="455px" zoomAndPan="magnify"><defs/><g><rect fill="#FFFFFF" height="86.6211" style="stroke:#181818;stroke-width:1.0;" width="10" x="59" y="107.9766"/><rect fill="#FFFFFF" height="81.3105" style="stroke:#181818;stroke-width:1.0;" width="10" x="310" y="129.2871"/><rect fill="#FFFFFF" height="28" style="stroke:#181818;stroke-width:1.0;" width="10" x="315" y="166.5977"/><line style="stroke:#181818;stroke-width:0.5;stroke-dasharray:5.0,5.0;" x1="64" x2="64" y1="97.9766" y2="219.5977"/><line style="stroke:#181818;stroke-width:0.5;stroke-dasharray:5.0,5.0;" x1="315" x2="315" y1="97.9766" y2="219.5977"/><text fill="#000000" font-family="sans-serif" font-size="14" lengthAdjust="spacing" textLength="112" x="5" y="78.5352">&lt;&lt;automatic&gt;&gt;</text><text fill="#000000" font-family="sans-serif" font-size="14" lengthAdjust="spacing" textLength="85" x="18.5" y="95.0234">Timer/Clock</text><ellipse cx="64" cy="13.5" fill="#E2E2F0" rx="8" ry="8" style="stroke:#181818;stroke-width:0.5;"/><path d="M64,21.5 L64,48.5 M51,29.5 L77,29.5 M64,48.5 L51,63.5 M64,48.5 L77,63.5 " fill="none" style="stroke:#181818;stroke-width:0.5;"/><text fill="#000000" font-family="sans-serif" font-size="14" lengthAdjust="spacing" textLength="112" x="5" y="232.1328">&lt;&lt;automatic&gt;&gt;</text><text fill="#000000" font-family="sans-serif" font-size="14" lengthAdjust="spacing" textLength="85" x="18.5" y="248.6211">Timer/Clock</text><ellipse cx="64" cy="260.0742" fill="#E2E2F0" rx="8" ry="8" style="stroke:#181818;stroke-width:0.5;"/><path d="M64,268.0742 L64,295.0742 M51,276.0742 L77,276.0742 M64,295.0742 L51,310.0742 M64,295.0742 L77,310.0742 " fill="none" style="stroke:#181818;stroke-width:0.5;"/><rect fill="#E2E2F0" height="30.4883" rx="2.5" ry="2.5" style="stroke:#181818;stroke-width:0.5;" width="66" x="282" y="66.4883"/><text fill="#000000" font-family="sans-serif" font-size="14" lengthAdjust="spacing" textLength="52" x="289" y="87.0234">:System</text><rect fill="#E2E2F0" height="30.4883" rx="2.5" ry="2.5" style="stroke:#181818;stroke-width:0.5;" width="66" x="282" y="218.5977"/><text fill="#000000" font-family="sans-serif" font-size="14" lengthAdjust="spacing" textLength="52" x="289" y="239.1328">:System</text><rect fill="#FFFFFF" height="86.6211" style="stroke:#181818;stroke-width:1.0;" width="10" x="59" y="107.9766"/><rect fill="#FFFFFF" height="81.3105" style="stroke:#181818;stroke-width:1.0;" width="10" x="310" y="129.2871"/><rect fill="#FFFFFF" height="28" style="stroke:#181818;stroke-width:1.0;" width="10" x="315" y="166.5977"/><polygon fill="#181818" points="298,125.2871,308,129.2871,298,133.2871,302,129.2871" style="stroke:#181818;stroke-width:1.0;"/><line style="stroke:#181818;stroke-width:1.0;" x1="69" x2="304" y1="129.2871" y2="129.2871"/><text fill="#000000" font-family="sans-serif" font-size="13" font-weight="bold" lengthAdjust="spacing" textLength="9" x="76" y="124.5449">1</text><text fill="#000000" font-family="sans-serif" font-size="13" lengthAdjust="spacing" textLength="209" x="89" y="124.5449">starts the exportation of the data</text><line style="stroke:#181818;stroke-width:1.0;stroke-dasharray:2.0,2.0;" x1="325" x2="367" y1="158.5977" y2="158.5977"/><line style="stroke:#181818;stroke-width:1.0;stroke-dasharray:2.0,2.0;" x1="367" x2="367" y1="158.5977" y2="171.5977"/><line style="stroke:#181818;stroke-width:1.0;stroke-dasharray:2.0,2.0;" x1="326" x2="367" y1="171.5977" y2="171.5977"/><polygon fill="#181818" points="336,167.5977,326,171.5977,336,175.5977,332,171.5977" style="stroke:#181818;stroke-width:1.0;"/><text fill="#000000" font-family="sans-serif" font-size="13" font-weight="bold" lengthAdjust="spacing" textLength="9" x="332" y="153.8555">2</text><text fill="#000000" font-family="sans-serif" font-size="13" lengthAdjust="spacing" textLength="103" x="345" y="153.8555">exports the data</text><!--MD5=[8b9b5f2d054ce6cfd7b5d2e1cc3ca2ee]
@startuml

autonumber

actor "<<automatic>>\nTimer/Clock" as timer

activate timer
timer -> ":System" : starts the exportation of the data
activate ":System"
":System" - -> ":System" : exports the data
activate ":System"
deactivate ":System"

deactivate timer


@enduml

PlantUML version 1.2022.4(Sat Apr 09 14:29:17 WEST 2022)
(GPL source distribution)
Java Runtime: OpenJDK Runtime Environment
JVM: OpenJDK 64-Bit Server VM
Default Encoding: UTF-8
Language: pt
Country: PT
--></g></svg>