<?xml version="1.0" encoding="UTF-8" standalone="no"?><svg xmlns="http://www.w3.org/2000/svg" xmlns:xlink="http://www.w3.org/1999/xlink" contentStyleType="text/css" height="571px" preserveAspectRatio="none" style="width:783px;height:571px;background:#FFFFFF;" version="1.1" viewBox="0 0 783 571" width="783px" zoomAndPan="magnify"><defs/><g><rect fill="#FFFFFF" height="390.0371" style="stroke:#181818;stroke-width:1.0;" width="10" x="48.5" y="91.4883"/><rect fill="#FFFFFF" height="29.3105" style="stroke:#181818;stroke-width:1.0;" width="10" x="379.5" y="112.7988"/><rect fill="#FFFFFF" height="53.6211" style="stroke:#181818;stroke-width:1.0;" width="10" x="379.5" y="206.7305"/><rect fill="#FFFFFF" height="29.3105" style="stroke:#181818;stroke-width:1.0;" width="10" x="379.5" y="355.2832"/><rect fill="#FFFFFF" height="58.6211" style="stroke:#181818;stroke-width:1.0;" width="10" x="379.5" y="413.9043"/><rect height="75.9316" style="stroke:#000000;stroke-width:1.5;fill:none;" width="417.5" x="10" y="221.7305"/><line style="stroke:#181818;stroke-width:0.5;fill:none;stroke-dasharray:5.0,5.0;" x1="53" x2="53" y1="81.4883" y2="490.5254"/><line style="stroke:#181818;stroke-width:0.5;fill:none;stroke-dasharray:5.0,5.0;" x1="384.5" x2="384.5" y1="81.4883" y2="490.5254"/><text fill="#000000" font-family="sans-serif" font-size="14" lengthAdjust="spacing" textLength="61" x="20" y="78.5352">SNS User</text><ellipse cx="53.5" cy="13.5" fill="#E2E2F0" rx="8" ry="8" style="stroke:#181818;stroke-width:0.5;"/><path d="M53.5,21.5 L53.5,48.5 M40.5,29.5 L66.5,29.5 M53.5,48.5 L40.5,63.5 M53.5,48.5 L66.5,63.5 " fill="none" style="stroke:#181818;stroke-width:0.5;"/><text fill="#000000" font-family="sans-serif" font-size="14" lengthAdjust="spacing" textLength="61" x="20" y="503.0605">SNS User</text><ellipse cx="53.5" cy="514.5137" fill="#E2E2F0" rx="8" ry="8" style="stroke:#181818;stroke-width:0.5;"/><path d="M53.5,522.5137 L53.5,549.5137 M40.5,530.5137 L66.5,530.5137 M53.5,549.5137 L40.5,564.5137 M53.5,549.5137 L66.5,564.5137 " fill="none" style="stroke:#181818;stroke-width:0.5;"/><rect fill="#E2E2F0" height="30.4883" rx="2.5" ry="2.5" style="stroke:#181818;stroke-width:0.5;" width="66" x="351.5" y="50"/><text fill="#000000" font-family="sans-serif" font-size="14" lengthAdjust="spacing" textLength="52" x="358.5" y="70.5352">:System</text><rect fill="#E2E2F0" height="30.4883" rx="2.5" ry="2.5" style="stroke:#181818;stroke-width:0.5;" width="66" x="351.5" y="489.5254"/><text fill="#000000" font-family="sans-serif" font-size="14" lengthAdjust="spacing" textLength="52" x="358.5" y="510.0605">:System</text><rect fill="#FFFFFF" height="390.0371" style="stroke:#181818;stroke-width:1.0;" width="10" x="48.5" y="91.4883"/><rect fill="#FFFFFF" height="29.3105" style="stroke:#181818;stroke-width:1.0;" width="10" x="379.5" y="112.7988"/><rect fill="#FFFFFF" height="53.6211" style="stroke:#181818;stroke-width:1.0;" width="10" x="379.5" y="206.7305"/><rect fill="#FFFFFF" height="29.3105" style="stroke:#181818;stroke-width:1.0;" width="10" x="379.5" y="355.2832"/><rect fill="#FFFFFF" height="58.6211" style="stroke:#181818;stroke-width:1.0;" width="10" x="379.5" y="413.9043"/><polygon fill="#181818" points="367.5,108.7988,377.5,112.7988,367.5,116.7988,371.5,112.7988" style="stroke:#181818;stroke-width:1.0;"/><line style="stroke:#181818;stroke-width:1.0;" x1="58.5" x2="373.5" y1="112.7988" y2="112.7988"/><text fill="#000000" font-family="sans-serif" font-size="13" font-weight="bold" lengthAdjust="spacing" textLength="9" x="65.5" y="108.0566">1</text><text fill="#000000" font-family="sans-serif" font-size="13" lengthAdjust="spacing" textLength="289" x="78.5" y="108.0566">requests to schedule a vaccine administration</text><polygon fill="#181818" points="69.5,138.1094,59.5,142.1094,69.5,146.1094,65.5,142.1094" style="stroke:#181818;stroke-width:1.0;"/><line style="stroke:#181818;stroke-width:1.0;stroke-dasharray:2.0,2.0;" x1="63.5" x2="383.5" y1="142.1094" y2="142.1094"/><text fill="#000000" font-family="sans-serif" font-size="13" font-weight="bold" lengthAdjust="spacing" textLength="9" x="75.5" y="137.3672">2</text><text fill="#000000" font-family="sans-serif" font-size="13" lengthAdjust="spacing" textLength="190" x="88.5" y="137.3672">shows the vaccination centers</text><path d="M389,155.1094 L389,180.1094 L776,180.1094 L776,165.1094 L766,155.1094 L389,155.1094 " fill="#FEFFDD" style="stroke:#181818;stroke-width:0.5;"/><path d="M766,155.1094 L766,165.1094 L776,165.1094 L766,155.1094 " fill="#FEFFDD" style="stroke:#181818;stroke-width:0.5;"/><text fill="#000000" font-family="sans-serif" font-size="13" lengthAdjust="spacing" textLength="366" x="395" y="172.6777">The system will sugest the ongoing outbreak vaccine type</text><polygon fill="#181818" points="367.5,202.7305,377.5,206.7305,367.5,210.7305,371.5,206.7305" style="stroke:#181818;stroke-width:1.0;"/><line style="stroke:#181818;stroke-width:1.0;" x1="58.5" x2="373.5" y1="206.7305" y2="206.7305"/><text fill="#000000" font-family="sans-serif" font-size="13" font-weight="bold" lengthAdjust="spacing" textLength="9" x="65.5" y="201.9883">3</text><text fill="#000000" font-family="sans-serif" font-size="13" lengthAdjust="spacing" textLength="237" x="78.5" y="201.9883">selects the desired vaccination center</text><path d="M10,221.7305 L72,221.7305 L72,229.041 L62,239.041 L10,239.041 L10,221.7305 " fill="#EEEEEE" style="stroke:#000000;stroke-width:1.5;"/><rect fill="none" height="75.9316" style="stroke:#000000;stroke-width:1.5;" width="417.5" x="10" y="221.7305"/><text fill="#000000" font-family="sans-serif" font-size="13" font-weight="bold" lengthAdjust="spacing" textLength="17" x="25" y="235.2988">alt</text><text fill="#000000" font-family="sans-serif" font-size="11" font-weight="bold" lengthAdjust="spacing" textLength="176" x="87" y="234.3652">[wants a different vaccine type]</text><polygon fill="#181818" points="69.5,256.3516,59.5,260.3516,69.5,264.3516,65.5,260.3516" style="stroke:#181818;stroke-width:1.0;"/><line style="stroke:#181818;stroke-width:1.0;stroke-dasharray:2.0,2.0;" x1="63.5" x2="383.5" y1="260.3516" y2="260.3516"/><text fill="#000000" font-family="sans-serif" font-size="13" font-weight="bold" lengthAdjust="spacing" textLength="9" x="75.5" y="255.6094">4</text><text fill="#000000" font-family="sans-serif" font-size="13" lengthAdjust="spacing" textLength="153" x="88.5" y="255.6094">shows the vaccine types</text><polygon fill="#181818" points="372.5,285.6621,382.5,289.6621,372.5,293.6621,376.5,289.6621" style="stroke:#181818;stroke-width:1.0;"/><line style="stroke:#181818;stroke-width:1.0;" x1="58.5" x2="378.5" y1="289.6621" y2="289.6621"/><text fill="#000000" font-family="sans-serif" font-size="13" font-weight="bold" lengthAdjust="spacing" textLength="9" x="65.5" y="284.9199">5</text><text fill="#000000" font-family="sans-serif" font-size="13" lengthAdjust="spacing" textLength="200" x="78.5" y="284.9199">selects the desired vaccine type</text><polygon fill="#181818" points="69.5,321.9727,59.5,325.9727,69.5,329.9727,65.5,325.9727" style="stroke:#181818;stroke-width:1.0;"/><line style="stroke:#181818;stroke-width:1.0;stroke-dasharray:2.0,2.0;" x1="63.5" x2="383.5" y1="325.9727" y2="325.9727"/><text fill="#000000" font-family="sans-serif" font-size="13" font-weight="bold" lengthAdjust="spacing" textLength="9" x="75.5" y="321.2305">6</text><text fill="#000000" font-family="sans-serif" font-size="13" lengthAdjust="spacing" textLength="157" x="88.5" y="321.2305">requests data (date,hour)</text><polygon fill="#181818" points="367.5,351.2832,377.5,355.2832,367.5,359.2832,371.5,355.2832" style="stroke:#181818;stroke-width:1.0;"/><line style="stroke:#181818;stroke-width:1.0;" x1="58.5" x2="373.5" y1="355.2832" y2="355.2832"/><text fill="#000000" font-family="sans-serif" font-size="13" font-weight="bold" lengthAdjust="spacing" textLength="9" x="65.5" y="350.541">7</text><text fill="#000000" font-family="sans-serif" font-size="13" lengthAdjust="spacing" textLength="95" x="78.5" y="350.541">inputs the data</text><polygon fill="#181818" points="69.5,380.5938,59.5,384.5938,69.5,388.5938,65.5,384.5938" style="stroke:#181818;stroke-width:1.0;"/><line style="stroke:#181818;stroke-width:1.0;stroke-dasharray:2.0,2.0;" x1="63.5" x2="383.5" y1="384.5938" y2="384.5938"/><text fill="#000000" font-family="sans-serif" font-size="13" font-weight="bold" lengthAdjust="spacing" textLength="9" x="75.5" y="379.8516">8</text><text fill="#000000" font-family="sans-serif" font-size="13" lengthAdjust="spacing" textLength="262" x="88.5" y="379.8516">shows the data and asks for confirmation</text><polygon fill="#181818" points="367.5,409.9043,377.5,413.9043,367.5,417.9043,371.5,413.9043" style="stroke:#181818;stroke-width:1.0;"/><line style="stroke:#181818;stroke-width:1.0;" x1="58.5" x2="373.5" y1="413.9043" y2="413.9043"/><text fill="#000000" font-family="sans-serif" font-size="13" font-weight="bold" lengthAdjust="spacing" textLength="9" x="65.5" y="409.1621">9</text><text fill="#000000" font-family="sans-serif" font-size="13" lengthAdjust="spacing" textLength="111" x="78.5" y="409.1621">confirms the data</text><polygon fill="#181818" points="69.5,439.2148,59.5,443.2148,69.5,447.2148,65.5,443.2148" style="stroke:#181818;stroke-width:1.0;"/><line style="stroke:#181818;stroke-width:1.0;stroke-dasharray:2.0,2.0;" x1="63.5" x2="378.5" y1="443.2148" y2="443.2148"/><text fill="#000000" font-family="sans-serif" font-size="13" font-weight="bold" lengthAdjust="spacing" textLength="18" x="75.5" y="438.4727">10</text><text fill="#000000" font-family="sans-serif" font-size="13" lengthAdjust="spacing" textLength="209" x="97.5" y="438.4727">informs success/failure message</text><polygon fill="#181818" points="69.5,468.5254,59.5,472.5254,69.5,476.5254,65.5,472.5254" style="stroke:#181818;stroke-width:1.0;"/><line style="stroke:#181818;stroke-width:1.0;stroke-dasharray:2.0,2.0;" x1="63.5" x2="383.5" y1="472.5254" y2="472.5254"/><text fill="#000000" font-family="sans-serif" font-size="13" font-weight="bold" lengthAdjust="spacing" textLength="18" x="75.5" y="467.7832">11</text><text fill="#000000" font-family="sans-serif" font-size="13" lengthAdjust="spacing" textLength="185" x="97.5" y="467.7832">sends SMS in case of success</text><!--MD5=[f111aaa22fbb08d934ab66cd11877236]
@startuml
'https://plantuml.com/sequence-diagram

autonumber

actor "SNS User" as user

activate user

user -> ":System" : requests to schedule a vaccine administration
activate ":System"
":System" - -> user : shows the vaccination centers
note right ":System" : The system will sugest the ongoing outbreak vaccine type

deactivate ":System"

user -> ":System" : selects the desired vaccination center

activate ":System"
alt wants a different vaccine type

":System" - -> user: shows the vaccine types
deactivate ":System"
user -> ":System" : selects the desired vaccine type
end 
activate ":System"
":System" - -> user : requests data (date,hour)
deactivate ":System"
user -> ":System" : inputs the data

activate ":System"
":System" - -> user : shows the data and asks for confirmation

deactivate ":System"


user -> ":System" : confirms the data
activate ":System"

":System" - -> user : informs success/failure message
":System" - -> user : sends SMS in case of success

deactivate ":System"



@enduml

@startuml

autonumber

actor "SNS User" as user

activate user

user -> ":System" : requests to schedule a vaccine administration
activate ":System"
":System" - -> user : shows the vaccination centers
note right ":System" : The system will sugest the ongoing outbreak vaccine type

deactivate ":System"

user -> ":System" : selects the desired vaccination center

activate ":System"
alt wants a different vaccine type

":System" - -> user: shows the vaccine types
deactivate ":System"
user -> ":System" : selects the desired vaccine type
end 
activate ":System"
":System" - -> user : requests data (date,hour)
deactivate ":System"
user -> ":System" : inputs the data

activate ":System"
":System" - -> user : shows the data and asks for confirmation

deactivate ":System"


user -> ":System" : confirms the data
activate ":System"

":System" - -> user : informs success/failure message
":System" - -> user : sends SMS in case of success

deactivate ":System"



@enduml

PlantUML version 1.2022.4(Sat Apr 09 14:29:17 WEST 2022)
(GPL source distribution)
Java Runtime: OpenJDK Runtime Environment
JVM: OpenJDK 64-Bit Server VM
Default Encoding: UTF-8
Language: pt
Country: PT
--></g></svg>