<?xml version="1.0" encoding="UTF-8" standalone="no"?><svg xmlns="http://www.w3.org/2000/svg" xmlns:xlink="http://www.w3.org/1999/xlink" contentScriptType="application/ecmascript" contentStyleType="text/css" height="678px" preserveAspectRatio="none" style="width:528px;height:678px;background:#FFFFFF;" version="1.1" viewBox="0 0 528 678" width="528px" zoomAndPan="magnify"><defs><filter height="300%" id="fys76kbmpfvas" width="300%" x="-1" y="-1"><feGaussianBlur result="blurOut" stdDeviation="2.0"/><feColorMatrix in="blurOut" result="blurOut2" type="matrix" values="0 0 0 0 0 0 0 0 0 0 0 0 0 0 0 0 0 0 .4 0"/><feOffset dx="4.0" dy="4.0" in="blurOut2" result="blurOut3"/><feBlend in="SourceGraphic" in2="blurOut3" mode="normal"/></filter></defs><g><!--MD5=[b8ebbe4f4f56ca22b65020cb6809caac]
class AdminListEmployeesUi--><rect codeLine="2" fill="#FEFECE" filter="url(#fys76kbmpfvas)" height="61.8359" id="AdminListEmployeesUi" style="stroke:#A80036;stroke-width:1.5;" width="161" x="161" y="7"/><ellipse cx="176" cy="23" fill="#ADD1B2" rx="11" ry="11" style="stroke:#A80036;stroke-width:1.0;"/><path d="M178,19.5 Q178.2031,19 178.4375,18.75 Q178.6719,18.5 178.9375,18.5 Q179.4063,18.5 179.7031,18.7813 Q180,19.0625 180,19.7188 L180,21.2813 Q180,21.9375 179.7188,22.2188 Q179.4375,22.5 179,22.5 Q178.6094,22.5 178.3594,22.3281 Q178.1094,22.1563 178,21.7031 Q177.9531,21.3906 177.7813,21.2188 Q177.4688,20.8906 176.9063,20.7031 Q176.3438,20.5 175.7813,20.5 Q175.0781,20.5 174.4844,20.7813 Q173.9063,21.0625 173.4531,21.6875 Q173,22.3125 173,23.1719 L173,24.0938 Q173,25.125 173.8438,25.8125 Q174.6875,26.5 176.1875,26.5 Q177.0781,26.5 177.7031,26.2969 Q178.0625,26.1875 178.4688,25.8281 Q178.7344,25.625 178.875,25.5625 Q179.0156,25.5 179.1875,25.5 Q179.5156,25.5 179.75,25.7656 Q180,26.0156 180,26.375 Q180,26.7188 179.6563,27.125 Q179.1563,27.7188 178.3594,28.0469 Q177.3125,28.5 176.0313,28.5 Q174.5313,28.5 173.3281,27.9063 Q172.3594,27.4375 171.6719,26.4219 Q171,25.4063 171,24.2031 L171,23.1094 Q171,21.8594 171.5938,20.7656 Q172.2031,19.6719 173.25,19.0938 Q174.3125,18.5 175.5,18.5 Q176.2188,18.5 176.8438,18.75 Q177.4688,19 178,19.5 Z " fill="#000000"/><text fill="#000000" font-family="sans-serif" font-size="12" lengthAdjust="spacing" textLength="129" x="190" y="27.9102">AdminListEmployeesUi</text><line style="stroke:#A80036;stroke-width:1.5;" x1="162" x2="321" y1="39" y2="39"/><rect fill="none" height="6" style="stroke:#C82930;stroke-width:1.0;" width="6" x="169" y="47"/><text fill="#000000" font-family="sans-serif" font-size="11" lengthAdjust="spacing" textLength="98" x="181" y="54.4189">String employeeRole</text><line style="stroke:#A80036;stroke-width:1.5;" x1="162" x2="321" y1="60.8359" y2="60.8359"/><!--MD5=[c965f96328c76f4a67994668cc18633e]
class ListEmployeesController--><rect codeLine="7" fill="#FEFECE" filter="url(#fys76kbmpfvas)" height="89.5078" id="ListEmployeesController" style="stroke:#A80036;stroke-width:1.5;" width="173" x="155" y="130"/><ellipse cx="172.25" cy="146" fill="#ADD1B2" rx="11" ry="11" style="stroke:#A80036;stroke-width:1.0;"/><path d="M174.25,142.5 Q174.4531,142 174.6875,141.75 Q174.9219,141.5 175.1875,141.5 Q175.6563,141.5 175.9531,141.7813 Q176.25,142.0625 176.25,142.7188 L176.25,144.2813 Q176.25,144.9375 175.9688,145.2188 Q175.6875,145.5 175.25,145.5 Q174.8594,145.5 174.6094,145.3281 Q174.3594,145.1563 174.25,144.7031 Q174.2031,144.3906 174.0313,144.2188 Q173.7188,143.8906 173.1563,143.7031 Q172.5938,143.5 172.0313,143.5 Q171.3281,143.5 170.7344,143.7813 Q170.1563,144.0625 169.7031,144.6875 Q169.25,145.3125 169.25,146.1719 L169.25,147.0938 Q169.25,148.125 170.0938,148.8125 Q170.9375,149.5 172.4375,149.5 Q173.3281,149.5 173.9531,149.2969 Q174.3125,149.1875 174.7188,148.8281 Q174.9844,148.625 175.125,148.5625 Q175.2656,148.5 175.4375,148.5 Q175.7656,148.5 176,148.7656 Q176.25,149.0156 176.25,149.375 Q176.25,149.7188 175.9063,150.125 Q175.4063,150.7188 174.6094,151.0469 Q173.5625,151.5 172.2813,151.5 Q170.7813,151.5 169.5781,150.9063 Q168.6094,150.4375 167.9219,149.4219 Q167.25,148.4063 167.25,147.2031 L167.25,146.1094 Q167.25,144.8594 167.8438,143.7656 Q168.4531,142.6719 169.5,142.0938 Q170.5625,141.5 171.75,141.5 Q172.4688,141.5 173.0938,141.75 Q173.7188,142 174.25,142.5 Z " fill="#000000"/><text fill="#000000" font-family="sans-serif" font-size="12" lengthAdjust="spacing" textLength="136" x="186.75" y="150.9102">ListEmployeesController</text><line style="stroke:#A80036;stroke-width:1.5;" x1="156" x2="327" y1="162" y2="162"/><rect fill="none" height="6" style="stroke:#C82930;stroke-width:1.0;" width="6" x="163" y="170"/><text fill="#000000" font-family="sans-serif" font-size="11" lengthAdjust="spacing" textLength="49" x="175" y="177.4189">String role</text><rect fill="none" height="6" style="stroke:#C82930;stroke-width:1.0;" width="6" x="163" y="183.8359"/><text fill="#000000" font-family="sans-serif" font-size="11" lengthAdjust="spacing" textLength="147" x="175" y="191.2549">EmployeeStore employeeStore</text><line style="stroke:#A80036;stroke-width:1.5;" x1="156" x2="327" y1="197.6719" y2="197.6719"/><ellipse cx="166" cy="208.6719" fill="#84BE84" rx="3" ry="3" style="stroke:#038048;stroke-width:1.0;"/><text fill="#000000" font-family="sans-serif" font-size="11" lengthAdjust="spacing" textLength="135" x="175" y="213.0908">getEmployeeList(String role)</text><!--MD5=[02e4b9b7573f1156f41e60aa5b4e25a4]
class Company--><rect codeLine="15" fill="#FEFECE" filter="url(#fys76kbmpfvas)" height="117.1797" id="Company" style="stroke:#A80036;stroke-width:1.5;" width="173" x="7" y="442"/><ellipse cx="62.75" cy="458" fill="#ADD1B2" rx="11" ry="11" style="stroke:#A80036;stroke-width:1.0;"/><path d="M64.75,454.5 Q64.9531,454 65.1875,453.75 Q65.4219,453.5 65.6875,453.5 Q66.1563,453.5 66.4531,453.7813 Q66.75,454.0625 66.75,454.7188 L66.75,456.2813 Q66.75,456.9375 66.4688,457.2188 Q66.1875,457.5 65.75,457.5 Q65.3594,457.5 65.1094,457.3281 Q64.8594,457.1563 64.75,456.7031 Q64.7031,456.3906 64.5313,456.2188 Q64.2188,455.8906 63.6563,455.7031 Q63.0938,455.5 62.5313,455.5 Q61.8281,455.5 61.2344,455.7813 Q60.6563,456.0625 60.2031,456.6875 Q59.75,457.3125 59.75,458.1719 L59.75,459.0938 Q59.75,460.125 60.5938,460.8125 Q61.4375,461.5 62.9375,461.5 Q63.8281,461.5 64.4531,461.2969 Q64.8125,461.1875 65.2188,460.8281 Q65.4844,460.625 65.625,460.5625 Q65.7656,460.5 65.9375,460.5 Q66.2656,460.5 66.5,460.7656 Q66.75,461.0156 66.75,461.375 Q66.75,461.7188 66.4063,462.125 Q65.9063,462.7188 65.1094,463.0469 Q64.0625,463.5 62.7813,463.5 Q61.2813,463.5 60.0781,462.9063 Q59.1094,462.4375 58.4219,461.4219 Q57.75,460.4063 57.75,459.2031 L57.75,458.1094 Q57.75,456.8594 58.3438,455.7656 Q58.9531,454.6719 60,454.0938 Q61.0625,453.5 62.25,453.5 Q62.9688,453.5 63.5938,453.75 Q64.2188,454 64.75,454.5 Z " fill="#000000"/><text fill="#000000" font-family="sans-serif" font-size="12" lengthAdjust="spacing" textLength="53" x="83.25" y="462.9102">Company</text><line style="stroke:#A80036;stroke-width:1.5;" x1="8" x2="179" y1="474" y2="474"/><rect fill="none" height="6" style="stroke:#C82930;stroke-width:1.0;" width="6" x="15" y="482"/><text fill="#000000" font-family="sans-serif" font-size="11" lengthAdjust="spacing" textLength="86" x="27" y="489.4189">String designation</text><rect fill="none" height="6" style="stroke:#C82930;stroke-width:1.0;" width="6" x="15" y="495.8359"/><text fill="#000000" font-family="sans-serif" font-size="11" lengthAdjust="spacing" textLength="119" x="27" y="503.2549">AuthFacade authFacade</text><rect fill="none" height="6" style="stroke:#C82930;stroke-width:1.0;" width="6" x="15" y="509.6719"/><text fill="#000000" font-family="sans-serif" font-size="11" lengthAdjust="spacing" textLength="147" x="27" y="517.0908">EmployeeStore employeeStore</text><line style="stroke:#A80036;stroke-width:1.5;" x1="8" x2="179" y1="523.5078" y2="523.5078"/><ellipse cx="18" cy="534.5078" fill="#84BE84" rx="3" ry="3" style="stroke:#038048;stroke-width:1.0;"/><text fill="#000000" font-family="sans-serif" font-size="11" lengthAdjust="spacing" textLength="82" x="27" y="538.9268">getAuthFacade()</text><ellipse cx="18" cy="548.3438" fill="#84BE84" rx="3" ry="3" style="stroke:#038048;stroke-width:1.0;"/><text fill="#000000" font-family="sans-serif" font-size="11" lengthAdjust="spacing" textLength="95" x="27" y="552.7627">getEmployeeStore()</text><!--MD5=[829fb52c07ade3ad64ef85b99d1fca10]
class EmployeeStore--><rect codeLine="26" fill="#FEFECE" filter="url(#fys76kbmpfvas)" height="75.6719" id="EmployeeStore" style="stroke:#A80036;stroke-width:1.5;" width="156" x="70.5" y="589"/><ellipse cx="103.5" cy="605" fill="#ADD1B2" rx="11" ry="11" style="stroke:#A80036;stroke-width:1.0;"/><path d="M105.5,601.5 Q105.7031,601 105.9375,600.75 Q106.1719,600.5 106.4375,600.5 Q106.9063,600.5 107.2031,600.7813 Q107.5,601.0625 107.5,601.7188 L107.5,603.2813 Q107.5,603.9375 107.2188,604.2188 Q106.9375,604.5 106.5,604.5 Q106.1094,604.5 105.8594,604.3281 Q105.6094,604.1563 105.5,603.7031 Q105.4531,603.3906 105.2813,603.2188 Q104.9688,602.8906 104.4063,602.7031 Q103.8438,602.5 103.2813,602.5 Q102.5781,602.5 101.9844,602.7813 Q101.4063,603.0625 100.9531,603.6875 Q100.5,604.3125 100.5,605.1719 L100.5,606.0938 Q100.5,607.125 101.3438,607.8125 Q102.1875,608.5 103.6875,608.5 Q104.5781,608.5 105.2031,608.2969 Q105.5625,608.1875 105.9688,607.8281 Q106.2344,607.625 106.375,607.5625 Q106.5156,607.5 106.6875,607.5 Q107.0156,607.5 107.25,607.7656 Q107.5,608.0156 107.5,608.375 Q107.5,608.7188 107.1563,609.125 Q106.6563,609.7188 105.8594,610.0469 Q104.8125,610.5 103.5313,610.5 Q102.0313,610.5 100.8281,609.9063 Q99.8594,609.4375 99.1719,608.4219 Q98.5,607.4063 98.5,606.2031 L98.5,605.1094 Q98.5,603.8594 99.0938,602.7656 Q99.7031,601.6719 100.75,601.0938 Q101.8125,600.5 103,600.5 Q103.7188,600.5 104.3438,600.75 Q104.9688,601 105.5,601.5 Z " fill="#000000"/><text fill="#000000" font-family="sans-serif" font-size="12" lengthAdjust="spacing" textLength="84" x="121.5" y="609.9102">EmployeeStore</text><line style="stroke:#A80036;stroke-width:1.5;" x1="71.5" x2="225.5" y1="621" y2="621"/><rect fill="none" height="6" style="stroke:#C82930;stroke-width:1.0;" width="6" x="78.5" y="629"/><text fill="#000000" font-family="sans-serif" font-size="11" lengthAdjust="spacing" textLength="130" x="90.5" y="636.4189">List&lt;Employee&gt; employees</text><ellipse cx="81.5" cy="645.8359" fill="none" rx="3" ry="3" style="stroke:#038048;stroke-width:1.0;"/><text fill="#000000" font-family="sans-serif" font-size="11" lengthAdjust="spacing" textLength="67" x="90.5" y="650.2549">getEmployees</text><line style="stroke:#A80036;stroke-width:1.5;" x1="71.5" x2="225.5" y1="656.6719" y2="656.6719"/><!--MD5=[4543091c387f147fceabade6c180ba98]
class EmployeeMapper--><rect codeLine="32" fill="#FEFECE" filter="url(#fys76kbmpfvas)" height="75.6719" id="EmployeeMapper" style="stroke:#A80036;stroke-width:1.5;" width="263" x="110" y="308.5"/><ellipse cx="189.25" cy="324.5" fill="#ADD1B2" rx="11" ry="11" style="stroke:#A80036;stroke-width:1.0;"/><path d="M191.25,321 Q191.4531,320.5 191.6875,320.25 Q191.9219,320 192.1875,320 Q192.6563,320 192.9531,320.2813 Q193.25,320.5625 193.25,321.2188 L193.25,322.7813 Q193.25,323.4375 192.9688,323.7188 Q192.6875,324 192.25,324 Q191.8594,324 191.6094,323.8281 Q191.3594,323.6563 191.25,323.2031 Q191.2031,322.8906 191.0313,322.7188 Q190.7188,322.3906 190.1563,322.2031 Q189.5938,322 189.0313,322 Q188.3281,322 187.7344,322.2813 Q187.1563,322.5625 186.7031,323.1875 Q186.25,323.8125 186.25,324.6719 L186.25,325.5938 Q186.25,326.625 187.0938,327.3125 Q187.9375,328 189.4375,328 Q190.3281,328 190.9531,327.7969 Q191.3125,327.6875 191.7188,327.3281 Q191.9844,327.125 192.125,327.0625 Q192.2656,327 192.4375,327 Q192.7656,327 193,327.2656 Q193.25,327.5156 193.25,327.875 Q193.25,328.2188 192.9063,328.625 Q192.4063,329.2188 191.6094,329.5469 Q190.5625,330 189.2813,330 Q187.7813,330 186.5781,329.4063 Q185.6094,328.9375 184.9219,327.9219 Q184.25,326.9063 184.25,325.7031 L184.25,324.6094 Q184.25,323.3594 184.8438,322.2656 Q185.4531,321.1719 186.5,320.5938 Q187.5625,320 188.75,320 Q189.4688,320 190.0938,320.25 Q190.7188,320.5 191.25,321 Z " fill="#000000"/><text fill="#000000" font-family="sans-serif" font-size="12" lengthAdjust="spacing" textLength="96" x="209.75" y="329.4102">EmployeeMapper</text><line style="stroke:#A80036;stroke-width:1.5;" x1="111" x2="372" y1="340.5" y2="340.5"/><line style="stroke:#A80036;stroke-width:1.5;" x1="111" x2="372" y1="348.5" y2="348.5"/><ellipse cx="121" cy="359.5" fill="#84BE84" rx="3" ry="3" style="stroke:#038048;stroke-width:1.0;"/><text fill="#000000" font-family="sans-serif" font-size="11" lengthAdjust="spacing" textLength="174" x="130" y="363.9189">toEmployeeDto(Employee employee)</text><ellipse cx="121" cy="373.3359" fill="#84BE84" rx="3" ry="3" style="stroke:#038048;stroke-width:1.0;"/><text fill="#000000" font-family="sans-serif" font-size="11" lengthAdjust="spacing" textLength="237" x="130" y="377.7549">toEmployeeDtoList(List&lt;Employee&gt; employeeList)</text><!--MD5=[38bc9548dd9b3552396f9d08e2f99d94]
class EmployeeDto--><rect codeLine="38" fill="#FEFECE" filter="url(#fys76kbmpfvas)" height="131.0156" id="EmployeeDto" style="stroke:#A80036;stroke-width:1.5;" width="106" x="408.5" y="281"/><ellipse cx="423.5" cy="297" fill="#ADD1B2" rx="11" ry="11" style="stroke:#A80036;stroke-width:1.0;"/><path d="M425.5,293.5 Q425.7031,293 425.9375,292.75 Q426.1719,292.5 426.4375,292.5 Q426.9063,292.5 427.2031,292.7813 Q427.5,293.0625 427.5,293.7188 L427.5,295.2813 Q427.5,295.9375 427.2188,296.2188 Q426.9375,296.5 426.5,296.5 Q426.1094,296.5 425.8594,296.3281 Q425.6094,296.1563 425.5,295.7031 Q425.4531,295.3906 425.2813,295.2188 Q424.9688,294.8906 424.4063,294.7031 Q423.8438,294.5 423.2813,294.5 Q422.5781,294.5 421.9844,294.7813 Q421.4063,295.0625 420.9531,295.6875 Q420.5,296.3125 420.5,297.1719 L420.5,298.0938 Q420.5,299.125 421.3438,299.8125 Q422.1875,300.5 423.6875,300.5 Q424.5781,300.5 425.2031,300.2969 Q425.5625,300.1875 425.9688,299.8281 Q426.2344,299.625 426.375,299.5625 Q426.5156,299.5 426.6875,299.5 Q427.0156,299.5 427.25,299.7656 Q427.5,300.0156 427.5,300.375 Q427.5,300.7188 427.1563,301.125 Q426.6563,301.7188 425.8594,302.0469 Q424.8125,302.5 423.5313,302.5 Q422.0313,302.5 420.8281,301.9063 Q419.8594,301.4375 419.1719,300.4219 Q418.5,299.4063 418.5,298.2031 L418.5,297.1094 Q418.5,295.8594 419.0938,294.7656 Q419.7031,293.6719 420.75,293.0938 Q421.8125,292.5 423,292.5 Q423.7188,292.5 424.3438,292.75 Q424.9688,293 425.5,293.5 Z " fill="#000000"/><text fill="#000000" font-family="sans-serif" font-size="12" lengthAdjust="spacing" textLength="74" x="437.5" y="301.9102">EmployeeDto</text><line style="stroke:#A80036;stroke-width:1.5;" x1="409.5" x2="513.5" y1="313" y2="313"/><rect fill="none" height="6" style="stroke:#C82930;stroke-width:1.0;" width="6" x="416.5" y="321"/><text fill="#000000" font-family="sans-serif" font-size="11" lengthAdjust="spacing" textLength="55" x="428.5" y="328.4189">String email</text><rect fill="none" height="6" style="stroke:#C82930;stroke-width:1.0;" width="6" x="416.5" y="334.8359"/><text fill="#000000" font-family="sans-serif" font-size="11" lengthAdjust="spacing" textLength="57" x="428.5" y="342.2549">String name</text><rect fill="none" height="6" style="stroke:#C82930;stroke-width:1.0;" width="6" x="416.5" y="348.6719"/><text fill="#000000" font-family="sans-serif" font-size="11" lengthAdjust="spacing" textLength="49" x="428.5" y="356.0908">String role</text><line style="stroke:#A80036;stroke-width:1.5;" x1="409.5" x2="513.5" y1="362.5078" y2="362.5078"/><ellipse cx="419.5" cy="373.5078" fill="#84BE84" rx="3" ry="3" style="stroke:#038048;stroke-width:1.0;"/><text fill="#000000" font-family="sans-serif" font-size="11" lengthAdjust="spacing" textLength="47" x="428.5" y="377.9268">getEmail()</text><ellipse cx="419.5" cy="387.3438" fill="#84BE84" rx="3" ry="3" style="stroke:#038048;stroke-width:1.0;"/><text fill="#000000" font-family="sans-serif" font-size="11" lengthAdjust="spacing" textLength="50" x="428.5" y="391.7627">getName()</text><ellipse cx="419.5" cy="401.1797" fill="#84BE84" rx="3" ry="3" style="stroke:#038048;stroke-width:1.0;"/><text fill="#000000" font-family="sans-serif" font-size="11" lengthAdjust="spacing" textLength="44" x="428.5" y="405.5986">getRole()</text><!--MD5=[2d7d8f839b11dd67a71c2565eb94db9a]
link AdminListEmployeesUi to ListEmployeesController--><path codeLine="49" d="M241.5,69.3 C241.5,85.64 241.5,106.22 241.5,124.79 " fill="none" id="AdminListEmployeesUi-to-ListEmployeesController" style="stroke:#A80036;stroke-width:1.0;stroke-dasharray:7.0,7.0;"/><polygon fill="#A80036" points="241.5,129.97,245.5,120.97,241.5,124.97,237.5,120.97,241.5,129.97" style="stroke:#A80036;stroke-width:1.0;"/><!--MD5=[a132349728275be400c8947f68dc1735]
link ListEmployeesController to Company--><path codeLine="50" d="M154.86,216.94 C130.18,233.2 106.27,254.45 92.5,281 C67.64,328.92 70.73,391.09 78.38,436.85 " fill="none" id="ListEmployeesController-to-Company" style="stroke:#A80036;stroke-width:1.0;stroke-dasharray:7.0,7.0;"/><polygon fill="#A80036" points="79.23,441.79,81.6288,432.2377,78.3733,436.8639,73.7471,433.6085,79.23,441.79" style="stroke:#A80036;stroke-width:1.0;"/><!--MD5=[9889d8c124de19e7b05f90e97fc65852]
link ListEmployeesController to EmployeeMapper--><path codeLine="51" d="M241.5,220.09 C241.5,245.64 241.5,277.65 241.5,302.94 " fill="none" id="ListEmployeesController-to-EmployeeMapper" style="stroke:#A80036;stroke-width:1.0;stroke-dasharray:7.0,7.0;"/><polygon fill="#A80036" points="241.5,308.23,245.5,299.23,241.5,303.23,237.5,299.23,241.5,308.23" style="stroke:#A80036;stroke-width:1.0;"/><!--MD5=[9fda936fe22e877ddc0693ba417938b5]
link EmployeeMapper to EmployeeStore--><path codeLine="52" d="M238.55,384.88 C234.04,428.33 223.09,501.42 197.5,559 C193.65,567.67 188.54,576.3 183.07,584.36 " fill="none" id="EmployeeMapper-to-EmployeeStore" style="stroke:#A80036;stroke-width:1.0;stroke-dasharray:7.0,7.0;"/><polygon fill="#A80036" points="180,588.77,188.419,583.6593,182.852,584.6632,181.8481,579.0961,180,588.77" style="stroke:#A80036;stroke-width:1.0;"/><!--MD5=[ce859576cba61219b3cb4d2d23fdcd81]
link Company to EmployeeStore--><path codeLine="53" d="M118.91,559.01 C122.59,567.35 126.32,575.8 129.84,583.76 " fill="none" id="Company-to-EmployeeStore" style="stroke:#A80036;stroke-width:1.0;"/><polygon fill="#A80036" points="132,588.65,132.0315,578.8012,129.9839,584.0745,124.7106,582.0269,132,588.65" style="stroke:#A80036;stroke-width:1.0;"/><!--MD5=[f971457f3a0bc2f57a543463b6bcf0af]
link EmployeeMapper to EmployeeDto--><path codeLine="54" d="M373.41,346.5 C383.28,346.5 393.14,346.5 403.01,346.5 " fill="none" id="EmployeeMapper-to-EmployeeDto" style="stroke:#A80036;stroke-width:1.0;"/><polygon fill="#A80036" points="408.17,346.5,399.17,342.5,403.17,346.5,399.17,350.5,408.17,346.5" style="stroke:#A80036;stroke-width:1.0;"/><!--MD5=[be8f6aeb7f6f775e653b192f747d0996]
link ListEmployeesController to EmployeeDto--><path codeLine="55" d="M307.69,220.04 C334,238.21 364.2,259.92 390.5,281 C395.07,284.66 399.72,288.53 404.35,292.49 " fill="none" id="ListEmployeesController-to-EmployeeDto" style="stroke:#A80036;stroke-width:1.0;stroke-dasharray:7.0,7.0;"/><polygon fill="#A80036" points="408.23,295.83,404.0164,286.928,404.4398,292.569,398.7988,292.9923,408.23,295.83" style="stroke:#A80036;stroke-width:1.0;"/><!--MD5=[302bfa9611e19bc811d4eb077aee6da1]
@startuml

class AdminListEmployeesUi
{
  -String employeeRole
}

class ListEmployeesController
{
-String role
-EmployeeStore employeeStore
  +getEmployeeList(String role)

}

class Company {
- String designation
- AuthFacade authFacade
- EmployeeStore employeeStore


+ getAuthFacade()
+ getEmployeeStore()

}

class EmployeeStore {
-List<Employee> employees
+getEmployees

}

class EmployeeMapper {

+ toEmployeeDto(Employee employee)
+ toEmployeeDtoList(List<Employee> employeeList)
}

class EmployeeDto {
-String email
-String name
-String role

+ getEmail()
+ getName()
+ getRole()
}


AdminListEmployeesUi ..> ListEmployeesController
ListEmployeesController ..> Company
ListEmployeesController ..> EmployeeMapper
EmployeeMapper ..> EmployeeStore
Company -> EmployeeStore : contains >
EmployeeMapper -> EmployeeDto
ListEmployeesController ..> EmployeeDto






@enduml

PlantUML version 1.2022.1(Tue Feb 01 18:19:58 GMT 2022)
(GPL source distribution)
Java Runtime: OpenJDK Runtime Environment
JVM: OpenJDK 64-Bit Server VM
Default Encoding: Cp1252
Language: en
Country: GB
--></g></svg>