<?xml version="1.0" encoding="UTF-8" standalone="no"?><svg xmlns="http://www.w3.org/2000/svg" xmlns:xlink="http://www.w3.org/1999/xlink" contentStyleType="text/css" height="1258px" preserveAspectRatio="none" style="width:1247px;height:1258px;background:#FFFFFF;" version="1.1" viewBox="0 0 1247 1258" width="1247px" zoomAndPan="magnify"><defs/><g><!--MD5=[9cd9efbd20aad851a39fa74c05ad646f]
class ImportFileSnsUsersUI--><g id="elem_ImportFileSnsUsersUI"><rect codeLine="3" fill="#F1F1F1" height="259.3125" id="ImportFileSnsUsersUI" rx="2.5" ry="2.5" style="stroke:#181818;stroke-width:0.5;" width="311" x="652.5" y="7"/><ellipse cx="736.75" cy="23" fill="#ADD1B2" rx="11" ry="11" style="stroke:#181818;stroke-width:1.0;"/><path d="M738.75,19.5 Q738.9531,19 739.1875,18.75 Q739.4219,18.5 739.6875,18.5 Q740.1563,18.5 740.4531,18.7813 Q740.75,19.0625 740.75,19.7188 L740.75,21.2813 Q740.75,21.9375 740.4688,22.2188 Q740.1875,22.5 739.75,22.5 Q739.3594,22.5 739.1094,22.3281 Q738.8594,22.1563 738.75,21.7031 Q738.7031,21.3906 738.5313,21.2188 Q738.2188,20.8906 737.6563,20.7031 Q737.0938,20.5 736.5313,20.5 Q735.8281,20.5 735.2344,20.7813 Q734.6563,21.0625 734.2031,21.6875 Q733.75,22.3125 733.75,23.1719 L733.75,24.0938 Q733.75,25.125 734.5938,25.8125 Q735.4375,26.5 736.9375,26.5 Q737.8281,26.5 738.4531,26.2969 Q738.8125,26.1875 739.2188,25.8281 Q739.4844,25.625 739.625,25.5625 Q739.7656,25.5 739.9375,25.5 Q740.2656,25.5 740.5,25.7656 Q740.75,26.0156 740.75,26.375 Q740.75,26.7188 740.4063,27.125 Q739.9063,27.7188 739.1094,28.0469 Q738.0625,28.5 736.7813,28.5 Q735.2813,28.5 734.0781,27.9063 Q733.1094,27.4375 732.4219,26.4219 Q731.75,25.4063 731.75,24.2031 L731.75,23.1094 Q731.75,21.8594 732.3438,20.7656 Q732.9531,19.6719 734,19.0938 Q735.0625,18.5 736.25,18.5 Q736.9688,18.5 737.5938,18.75 Q738.2188,19 738.75,19.5 Z " fill="#000000"/><text fill="#000000" font-family="sans-serif" font-size="14" lengthAdjust="spacing" textLength="134" x="757.25" y="28.7285">ImportFileSnsUsersUI</text><line style="stroke:#181818;stroke-width:0.5;" x1="653.5" x2="962.5" y1="39" y2="39"/><rect fill="none" height="6" style="stroke:#C82930;stroke-width:1.0;" width="6" x="660.5" y="47"/><text fill="#000000" font-family="sans-serif" font-size="14" lengthAdjust="spacing" textLength="247" x="672.5" y="57.5332">ImportFileSnsUsersController controller</text><rect fill="none" height="6" style="stroke:#C82930;stroke-width:1.0;" width="6" x="660.5" y="64.6094"/><text fill="#000000" font-family="sans-serif" font-size="14" lengthAdjust="spacing" textLength="285" x="672.5" y="75.1426">RegisterSnsUserController snsUserController</text><rect fill="none" height="6" style="stroke:#C82930;stroke-width:1.0;" width="6" x="660.5" y="82.2188"/><text fill="#000000" font-family="sans-serif" font-size="14" lengthAdjust="spacing" textLength="76" x="672.5" y="92.752">String name</text><rect fill="none" height="6" style="stroke:#C82930;stroke-width:1.0;" width="6" x="660.5" y="99.8281"/><text fill="#000000" font-family="sans-serif" font-size="14" lengthAdjust="spacing" textLength="92" x="672.5" y="110.3613">String address</text><rect fill="none" height="6" style="stroke:#C82930;stroke-width:1.0;" width="6" x="660.5" y="117.4375"/><text fill="#000000" font-family="sans-serif" font-size="14" lengthAdjust="spacing" textLength="62" x="672.5" y="127.9707">String sex</text><rect fill="none" height="6" style="stroke:#C82930;stroke-width:1.0;" width="6" x="660.5" y="135.0469"/><text fill="#000000" font-family="sans-serif" font-size="14" lengthAdjust="spacing" textLength="130" x="672.5" y="145.5801">String phoneNumber</text><rect fill="none" height="6" style="stroke:#C82930;stroke-width:1.0;" width="6" x="660.5" y="152.6563"/><text fill="#000000" font-family="sans-serif" font-size="14" lengthAdjust="spacing" textLength="74" x="672.5" y="163.1895">String email</text><rect fill="none" height="6" style="stroke:#C82930;stroke-width:1.0;" width="6" x="660.5" y="170.2656"/><text fill="#000000" font-family="sans-serif" font-size="14" lengthAdjust="spacing" textLength="97" x="672.5" y="180.7988">String birthdate</text><rect fill="none" height="6" style="stroke:#C82930;stroke-width:1.0;" width="6" x="660.5" y="187.875"/><text fill="#000000" font-family="sans-serif" font-size="14" lengthAdjust="spacing" textLength="112" x="672.5" y="198.4082">String snsNumber</text><rect fill="none" height="6" style="stroke:#C82930;stroke-width:1.0;" width="6" x="660.5" y="205.4844"/><text fill="#000000" font-family="sans-serif" font-size="14" lengthAdjust="spacing" textLength="160" x="672.5" y="216.0176">String citizenCardNumber</text><rect fill="none" height="6" style="stroke:#C82930;stroke-width:1.0;" width="6" x="660.5" y="223.0938"/><text fill="#000000" font-family="sans-serif" font-size="14" lengthAdjust="spacing" textLength="135" x="672.5" y="233.627">String smsPermission</text><rect fill="none" height="6" style="stroke:#C82930;stroke-width:1.0;" width="6" x="660.5" y="240.7031"/><text fill="#000000" font-family="sans-serif" font-size="14" lengthAdjust="spacing" textLength="70" x="672.5" y="251.2363">String valid</text><line style="stroke:#181818;stroke-width:0.5;" x1="653.5" x2="962.5" y1="258.3125" y2="258.3125"/></g><!--MD5=[c6ea38b145f3c555054a527773589e37]
class ImportFileSnsUsersController--><g id="elem_ImportFileSnsUsersController"><rect codeLine="19" fill="#F1F1F1" height="83.2188" id="ImportFileSnsUsersController" rx="2.5" ry="2.5" style="stroke:#181818;stroke-width:0.5;" width="245" x="950.5" y="344.5"/><ellipse cx="978.55" cy="360.5" fill="#ADD1B2" rx="11" ry="11" style="stroke:#181818;stroke-width:1.0;"/><path d="M980.55,357 Q980.7531,356.5 980.9875,356.25 Q981.2219,356 981.4875,356 Q981.9563,356 982.2531,356.2813 Q982.55,356.5625 982.55,357.2188 L982.55,358.7813 Q982.55,359.4375 982.2688,359.7188 Q981.9875,360 981.55,360 Q981.1594,360 980.9094,359.8281 Q980.6594,359.6563 980.55,359.2031 Q980.5031,358.8906 980.3313,358.7188 Q980.0188,358.3906 979.4563,358.2031 Q978.8938,358 978.3313,358 Q977.6281,358 977.0344,358.2813 Q976.4563,358.5625 976.0031,359.1875 Q975.55,359.8125 975.55,360.6719 L975.55,361.5938 Q975.55,362.625 976.3938,363.3125 Q977.2375,364 978.7375,364 Q979.6281,364 980.2531,363.7969 Q980.6125,363.6875 981.0188,363.3281 Q981.2844,363.125 981.425,363.0625 Q981.5656,363 981.7375,363 Q982.0656,363 982.3,363.2656 Q982.55,363.5156 982.55,363.875 Q982.55,364.2188 982.2063,364.625 Q981.7063,365.2188 980.9094,365.5469 Q979.8625,366 978.5813,366 Q977.0813,366 975.8781,365.4063 Q974.9094,364.9375 974.2219,363.9219 Q973.55,362.9063 973.55,361.7031 L973.55,360.6094 Q973.55,359.3594 974.1438,358.2656 Q974.7531,357.1719 975.8,356.5938 Q976.8625,356 978.05,356 Q978.7688,356 979.3938,356.25 Q980.0188,356.5 980.55,357 Z " fill="#000000"/><text fill="#000000" font-family="sans-serif" font-size="14" lengthAdjust="spacing" textLength="184" x="995.45" y="366.2285">ImportFileSnsUsersController</text><line style="stroke:#181818;stroke-width:0.5;" x1="951.5" x2="1194.5" y1="376.5" y2="376.5"/><rect fill="none" height="6" style="stroke:#C82930;stroke-width:1.0;" width="6" x="958.5" y="384.5"/><text fill="#000000" font-family="sans-serif" font-size="14" lengthAdjust="spacing" textLength="219" x="970.5" y="395.0332">FileSnsUserStore fileSnsUserStore</text><line style="stroke:#181818;stroke-width:0.5;" x1="951.5" x2="1194.5" y1="402.1094" y2="402.1094"/><ellipse cx="961.5" cy="413.1094" fill="#84BE84" rx="3" ry="3" style="stroke:#038048;stroke-width:1.0;"/><text fill="#000000" font-family="sans-serif" font-size="14" lengthAdjust="spacing" textLength="215" x="970.5" y="420.6426">String[][] SeparateUsers(fileUsers)</text></g><!--MD5=[3f10aea81f6f124cc88e2171218038a1]
class FileSnsUserStore--><g id="elem_FileSnsUserStore"><rect codeLine="24" fill="#F1F1F1" height="100.8281" id="FileSnsUserStore" rx="2.5" ry="2.5" style="stroke:#181818;stroke-width:0.5;" width="270" x="970" y="532.5"/><ellipse cx="1045.75" cy="548.5" fill="#ADD1B2" rx="11" ry="11" style="stroke:#181818;stroke-width:1.0;"/><path d="M1047.75,545 Q1047.9531,544.5 1048.1875,544.25 Q1048.4219,544 1048.6875,544 Q1049.1563,544 1049.4531,544.2813 Q1049.75,544.5625 1049.75,545.2188 L1049.75,546.7813 Q1049.75,547.4375 1049.4688,547.7188 Q1049.1875,548 1048.75,548 Q1048.3594,548 1048.1094,547.8281 Q1047.8594,547.6563 1047.75,547.2031 Q1047.7031,546.8906 1047.5313,546.7188 Q1047.2188,546.3906 1046.6563,546.2031 Q1046.0938,546 1045.5313,546 Q1044.8281,546 1044.2344,546.2813 Q1043.6563,546.5625 1043.2031,547.1875 Q1042.75,547.8125 1042.75,548.6719 L1042.75,549.5938 Q1042.75,550.625 1043.5938,551.3125 Q1044.4375,552 1045.9375,552 Q1046.8281,552 1047.4531,551.7969 Q1047.8125,551.6875 1048.2188,551.3281 Q1048.4844,551.125 1048.625,551.0625 Q1048.7656,551 1048.9375,551 Q1049.2656,551 1049.5,551.2656 Q1049.75,551.5156 1049.75,551.875 Q1049.75,552.2188 1049.4063,552.625 Q1048.9063,553.2188 1048.1094,553.5469 Q1047.0625,554 1045.7813,554 Q1044.2813,554 1043.0781,553.4063 Q1042.1094,552.9375 1041.4219,551.9219 Q1040.75,550.9063 1040.75,549.7031 L1040.75,548.6094 Q1040.75,547.3594 1041.3438,546.2656 Q1041.9531,545.1719 1043,544.5938 Q1044.0625,544 1045.25,544 Q1045.9688,544 1046.5938,544.25 Q1047.2188,544.5 1047.75,545 Z " fill="#000000"/><text fill="#000000" font-family="sans-serif" font-size="14" lengthAdjust="spacing" textLength="110" x="1066.25" y="554.2285">FileSnsUserStore</text><line style="stroke:#181818;stroke-width:0.5;" x1="971" x2="1239" y1="564.5" y2="564.5"/><rect fill="none" height="6" style="stroke:#C82930;stroke-width:1.0;" width="6" x="978" y="572.5"/><text fill="#000000" font-family="sans-serif" font-size="14" lengthAdjust="spacing" textLength="65" x="990" y="583.0332">Int qtLines</text><line style="stroke:#181818;stroke-width:0.5;" x1="971" x2="1239" y1="590.1094" y2="590.1094"/><ellipse cx="981" cy="601.1094" fill="#84BE84" rx="3" ry="3" style="stroke:#038048;stroke-width:1.0;"/><text fill="#000000" font-family="sans-serif" font-size="14" lengthAdjust="spacing" textLength="192" x="990" y="608.6426">void countUsers(File fileUsers)</text><ellipse cx="981" cy="618.7188" fill="#84BE84" rx="3" ry="3" style="stroke:#038048;stroke-width:1.0;"/><text fill="#000000" font-family="sans-serif" font-size="14" lengthAdjust="spacing" textLength="244" x="990" y="626.252">String[][] separateUsers (File fileUsers)</text></g><!--MD5=[ff85329911965e0e6f0d50c4d491f5fd]
class RegisterSnsUserController--><g id="elem_RegisterSnsUserController"><rect codeLine="37" fill="#F1F1F1" height="118.4375" id="RegisterSnsUserController" rx="2.5" ry="2.5" style="stroke:#181818;stroke-width:0.5;" width="228" x="559" y="327"/><ellipse cx="586.6" cy="343" fill="#ADD1B2" rx="11" ry="11" style="stroke:#181818;stroke-width:1.0;"/><path d="M588.6,339.5 Q588.8031,339 589.0375,338.75 Q589.2719,338.5 589.5375,338.5 Q590.0063,338.5 590.3031,338.7813 Q590.6,339.0625 590.6,339.7188 L590.6,341.2813 Q590.6,341.9375 590.3188,342.2188 Q590.0375,342.5 589.6,342.5 Q589.2094,342.5 588.9594,342.3281 Q588.7094,342.1563 588.6,341.7031 Q588.5531,341.3906 588.3813,341.2188 Q588.0688,340.8906 587.5063,340.7031 Q586.9438,340.5 586.3813,340.5 Q585.6781,340.5 585.0844,340.7813 Q584.5063,341.0625 584.0531,341.6875 Q583.6,342.3125 583.6,343.1719 L583.6,344.0938 Q583.6,345.125 584.4438,345.8125 Q585.2875,346.5 586.7875,346.5 Q587.6781,346.5 588.3031,346.2969 Q588.6625,346.1875 589.0688,345.8281 Q589.3344,345.625 589.475,345.5625 Q589.6156,345.5 589.7875,345.5 Q590.1156,345.5 590.35,345.7656 Q590.6,346.0156 590.6,346.375 Q590.6,346.7188 590.2563,347.125 Q589.7563,347.7188 588.9594,348.0469 Q587.9125,348.5 586.6313,348.5 Q585.1313,348.5 583.9281,347.9063 Q582.9594,347.4375 582.2719,346.4219 Q581.6,345.4063 581.6,344.2031 L581.6,343.1094 Q581.6,341.8594 582.1938,340.7656 Q582.8031,339.6719 583.85,339.0938 Q584.9125,338.5 586.1,338.5 Q586.8188,338.5 587.4438,338.75 Q588.0688,339 588.6,339.5 Z " fill="#000000"/><text fill="#000000" font-family="sans-serif" font-size="14" lengthAdjust="spacing" textLength="168" x="603.4" y="348.7285">RegisterSnsUserController</text><line style="stroke:#181818;stroke-width:0.5;" x1="560" x2="786" y1="359" y2="359"/><rect fill="none" height="6" style="stroke:#C82930;stroke-width:1.0;" width="6" x="567" y="367"/><text fill="#000000" font-family="sans-serif" font-size="14" lengthAdjust="spacing" textLength="176" x="579" y="377.5332">SnsUserStore snsUserStore</text><rect fill="none" height="6" style="stroke:#C82930;stroke-width:1.0;" width="6" x="567" y="384.6094"/><text fill="#000000" font-family="sans-serif" font-size="14" lengthAdjust="spacing" textLength="108" x="579" y="395.1426">SnsUser snsUser</text><line style="stroke:#181818;stroke-width:0.5;" x1="560" x2="786" y1="402.2188" y2="402.2188"/><ellipse cx="570" cy="413.2188" fill="#84BE84" rx="3" ry="3" style="stroke:#038048;stroke-width:1.0;"/><text fill="#000000" font-family="sans-serif" font-size="14" lengthAdjust="spacing" textLength="202" x="579" y="420.752">createSnsUser(SnsUserDto dto)</text><ellipse cx="570" cy="430.8281" fill="#84BE84" rx="3" ry="3" style="stroke:#038048;stroke-width:1.0;"/><text fill="#000000" font-family="sans-serif" font-size="14" lengthAdjust="spacing" textLength="166" x="579" y="438.3613">boolean registerSnsUser()</text></g><!--MD5=[9fe762efc8b9cd0ebfcd4120396959e0]
class SnsUserStore--><g id="elem_SnsUserStore"><rect codeLine="44" fill="#F1F1F1" height="153.6563" id="SnsUserStore" rx="2.5" ry="2.5" style="stroke:#181818;stroke-width:0.5;" width="245" x="453.5" y="506"/><ellipse cx="528.25" cy="522" fill="#ADD1B2" rx="11" ry="11" style="stroke:#181818;stroke-width:1.0;"/><path d="M530.25,518.5 Q530.4531,518 530.6875,517.75 Q530.9219,517.5 531.1875,517.5 Q531.6563,517.5 531.9531,517.7813 Q532.25,518.0625 532.25,518.7188 L532.25,520.2813 Q532.25,520.9375 531.9688,521.2188 Q531.6875,521.5 531.25,521.5 Q530.8594,521.5 530.6094,521.3281 Q530.3594,521.1563 530.25,520.7031 Q530.2031,520.3906 530.0313,520.2188 Q529.7188,519.8906 529.1563,519.7031 Q528.5938,519.5 528.0313,519.5 Q527.3281,519.5 526.7344,519.7813 Q526.1563,520.0625 525.7031,520.6875 Q525.25,521.3125 525.25,522.1719 L525.25,523.0938 Q525.25,524.125 526.0938,524.8125 Q526.9375,525.5 528.4375,525.5 Q529.3281,525.5 529.9531,525.2969 Q530.3125,525.1875 530.7188,524.8281 Q530.9844,524.625 531.125,524.5625 Q531.2656,524.5 531.4375,524.5 Q531.7656,524.5 532,524.7656 Q532.25,525.0156 532.25,525.375 Q532.25,525.7188 531.9063,526.125 Q531.4063,526.7188 530.6094,527.0469 Q529.5625,527.5 528.2813,527.5 Q526.7813,527.5 525.5781,526.9063 Q524.6094,526.4375 523.9219,525.4219 Q523.25,524.4063 523.25,523.2031 L523.25,522.1094 Q523.25,520.8594 523.8438,519.7656 Q524.4531,518.6719 525.5,518.0938 Q526.5625,517.5 527.75,517.5 Q528.4688,517.5 529.0938,517.75 Q529.7188,518 530.25,518.5 Z " fill="#000000"/><text fill="#000000" font-family="sans-serif" font-size="14" lengthAdjust="spacing" textLength="87" x="548.75" y="527.7285">SnsUserStore</text><line style="stroke:#181818;stroke-width:0.5;" x1="454.5" x2="697.5" y1="538" y2="538"/><rect fill="none" height="6" style="stroke:#C82930;stroke-width:1.0;" width="6" x="461.5" y="546"/><text fill="#000000" font-family="sans-serif" font-size="14" lengthAdjust="spacing" textLength="210" x="473.5" y="556.5332">Map&lt;Integer, SnsUser&gt; snsUsers</text><line style="stroke:#181818;stroke-width:0.5;" x1="454.5" x2="697.5" y1="563.6094" y2="563.6094"/><ellipse cx="464.5" cy="574.6094" fill="#84BE84" rx="3" ry="3" style="stroke:#038048;stroke-width:1.0;"/><text fill="#000000" font-family="sans-serif" font-size="14" lengthAdjust="spacing" textLength="202" x="473.5" y="582.1426">createSnsUser(SnsUserDto dto)</text><rect fill="#F24D5C" height="6" style="stroke:#C82930;stroke-width:1.0;" width="6" x="461.5" y="589.2188"/><text fill="#000000" font-family="sans-serif" font-size="14" lengthAdjust="spacing" textLength="173" x="473.5" y="599.752">validateUser(SnsUser user)</text><ellipse cx="464.5" cy="609.8281" fill="#84BE84" rx="3" ry="3" style="stroke:#038048;stroke-width:1.0;"/><text fill="#000000" font-family="sans-serif" font-size="14" lengthAdjust="spacing" textLength="219" x="473.5" y="617.3613">registerSnsUser(SnsUser snsUser)</text><rect fill="#F24D5C" height="6" style="stroke:#C82930;stroke-width:1.0;" width="6" x="461.5" y="624.4375"/><text fill="#000000" font-family="sans-serif" font-size="14" lengthAdjust="spacing" textLength="199" x="473.5" y="634.9707">addSnsUser (SnsUser snsUser)</text><ellipse cx="464.5" cy="645.0469" fill="#84BE84" rx="3" ry="3" style="stroke:#038048;stroke-width:1.0;"/><text fill="#000000" font-family="sans-serif" font-size="14" lengthAdjust="spacing" textLength="90" x="473.5" y="652.5801">getSnsUsers()</text></g><!--MD5=[76e6a35c5da8e7eae8828a71bc622a44]
class SnsUserMapper--><g id="elem_SnsUserMapper"><rect codeLine="55" fill="#F1F1F1" height="65.6094" id="SnsUserMapper" rx="2.5" ry="2.5" style="stroke:#181818;stroke-width:0.5;" width="200" x="664" y="721"/><ellipse cx="709.25" cy="737" fill="#ADD1B2" rx="11" ry="11" style="stroke:#181818;stroke-width:1.0;"/><path d="M711.25,733.5 Q711.4531,733 711.6875,732.75 Q711.9219,732.5 712.1875,732.5 Q712.6563,732.5 712.9531,732.7813 Q713.25,733.0625 713.25,733.7188 L713.25,735.2813 Q713.25,735.9375 712.9688,736.2188 Q712.6875,736.5 712.25,736.5 Q711.8594,736.5 711.6094,736.3281 Q711.3594,736.1563 711.25,735.7031 Q711.2031,735.3906 711.0313,735.2188 Q710.7188,734.8906 710.1563,734.7031 Q709.5938,734.5 709.0313,734.5 Q708.3281,734.5 707.7344,734.7813 Q707.1563,735.0625 706.7031,735.6875 Q706.25,736.3125 706.25,737.1719 L706.25,738.0938 Q706.25,739.125 707.0938,739.8125 Q707.9375,740.5 709.4375,740.5 Q710.3281,740.5 710.9531,740.2969 Q711.3125,740.1875 711.7188,739.8281 Q711.9844,739.625 712.125,739.5625 Q712.2656,739.5 712.4375,739.5 Q712.7656,739.5 713,739.7656 Q713.25,740.0156 713.25,740.375 Q713.25,740.7188 712.9063,741.125 Q712.4063,741.7188 711.6094,742.0469 Q710.5625,742.5 709.2813,742.5 Q707.7813,742.5 706.5781,741.9063 Q705.6094,741.4375 704.9219,740.4219 Q704.25,739.4063 704.25,738.2031 L704.25,737.1094 Q704.25,735.8594 704.8438,734.7656 Q705.4531,733.6719 706.5,733.0938 Q707.5625,732.5 708.75,732.5 Q709.4688,732.5 710.0938,732.75 Q710.7188,733 711.25,733.5 Z " fill="#000000"/><text fill="#000000" font-family="sans-serif" font-size="14" lengthAdjust="spacing" textLength="101" x="729.75" y="742.7285">SnsUserMapper</text><line style="stroke:#181818;stroke-width:0.5;" x1="665" x2="863" y1="753" y2="753"/><line style="stroke:#181818;stroke-width:0.5;" x1="665" x2="863" y1="761" y2="761"/><ellipse cx="675" cy="772" fill="#84BE84" rx="3" ry="3" style="stroke:#038048;stroke-width:1.0;"/><text fill="#000000" font-family="sans-serif" font-size="14" lengthAdjust="spacing" textLength="174" x="684" y="779.5332">toSnsUser(SnsUserDto dto)</text></g><!--MD5=[c4593935f45e4a2a0cefc4788932b53f]
class SnsUser--><g id="elem_SnsUser"><rect codeLine="60" fill="#F1F1F1" height="136.0469" id="SnsUser" rx="2.5" ry="2.5" style="stroke:#181818;stroke-width:0.5;" width="528" x="100" y="1115"/><ellipse cx="333.25" cy="1131" fill="#ADD1B2" rx="11" ry="11" style="stroke:#181818;stroke-width:1.0;"/><path d="M335.25,1127.5 Q335.4531,1127 335.6875,1126.75 Q335.9219,1126.5 336.1875,1126.5 Q336.6563,1126.5 336.9531,1126.7813 Q337.25,1127.0625 337.25,1127.7188 L337.25,1129.2813 Q337.25,1129.9375 336.9688,1130.2188 Q336.6875,1130.5 336.25,1130.5 Q335.8594,1130.5 335.6094,1130.3281 Q335.3594,1130.1563 335.25,1129.7031 Q335.2031,1129.3906 335.0313,1129.2188 Q334.7188,1128.8906 334.1563,1128.7031 Q333.5938,1128.5 333.0313,1128.5 Q332.3281,1128.5 331.7344,1128.7813 Q331.1563,1129.0625 330.7031,1129.6875 Q330.25,1130.3125 330.25,1131.1719 L330.25,1132.0938 Q330.25,1133.125 331.0938,1133.8125 Q331.9375,1134.5 333.4375,1134.5 Q334.3281,1134.5 334.9531,1134.2969 Q335.3125,1134.1875 335.7188,1133.8281 Q335.9844,1133.625 336.125,1133.5625 Q336.2656,1133.5 336.4375,1133.5 Q336.7656,1133.5 337,1133.7656 Q337.25,1134.0156 337.25,1134.375 Q337.25,1134.7188 336.9063,1135.125 Q336.4063,1135.7188 335.6094,1136.0469 Q334.5625,1136.5 333.2813,1136.5 Q331.7813,1136.5 330.5781,1135.9063 Q329.6094,1135.4375 328.9219,1134.4219 Q328.25,1133.4063 328.25,1132.2031 L328.25,1131.1094 Q328.25,1129.8594 328.8438,1128.7656 Q329.4531,1127.6719 330.5,1127.0938 Q331.5625,1126.5 332.75,1126.5 Q333.4688,1126.5 334.0938,1126.75 Q334.7188,1127 335.25,1127.5 Z " fill="#000000"/><text fill="#000000" font-family="sans-serif" font-size="14" lengthAdjust="spacing" textLength="53" x="353.75" y="1136.7285">SnsUser</text><line style="stroke:#181818;stroke-width:0.5;" x1="101" x2="627" y1="1147" y2="1147"/><rect fill="none" height="6" style="stroke:#C82930;stroke-width:1.0;" width="6" x="108" y="1155"/><text fill="#000000" font-family="sans-serif" font-size="14" lengthAdjust="spacing" textLength="76" x="120" y="1165.5332">String name</text><rect fill="none" height="6" style="stroke:#C82930;stroke-width:1.0;" width="6" x="108" y="1172.6094"/><text fill="#000000" font-family="sans-serif" font-size="14" lengthAdjust="spacing" textLength="90" x="120" y="1183.1426">int snsNumber</text><rect fill="none" height="6" style="stroke:#C82930;stroke-width:1.0;" width="6" x="108" y="1190.2188"/><text fill="#000000" font-family="sans-serif" font-size="14" lengthAdjust="spacing" textLength="71" x="120" y="1200.752">Email email</text><rect fill="none" height="6" style="stroke:#C82930;stroke-width:1.0;" width="6" x="108" y="1207.8281"/><text fill="#000000" font-family="sans-serif" font-size="14" lengthAdjust="spacing" textLength="113" x="120" y="1218.3613">int smsPermission</text><line style="stroke:#181818;stroke-width:0.5;" x1="101" x2="627" y1="1225.4375" y2="1225.4375"/><rect fill="#F24D5C" height="6" style="stroke:#C82930;stroke-width:1.0;" width="6" x="108" y="1233.4375"/><text fill="#000000" font-family="sans-serif" font-size="14" lengthAdjust="spacing" textLength="502" x="120" y="1243.9707">validateInformation(String name,int snsNumber,String email, int smsPermission )</text></g><!--MD5=[675fc936b7ba9340739d9069ceb8fc94]
class SnsUserDto--><g id="elem_SnsUserDto"><rect codeLine="71" fill="#F1F1F1" height="188.875" id="SnsUserDto" rx="2.5" ry="2.5" style="stroke:#181818;stroke-width:0.5;" width="152" x="794" y="865"/><ellipse cx="829.25" cy="881" fill="#ADD1B2" rx="11" ry="11" style="stroke:#181818;stroke-width:1.0;"/><path d="M831.25,877.5 Q831.4531,877 831.6875,876.75 Q831.9219,876.5 832.1875,876.5 Q832.6563,876.5 832.9531,876.7813 Q833.25,877.0625 833.25,877.7188 L833.25,879.2813 Q833.25,879.9375 832.9688,880.2188 Q832.6875,880.5 832.25,880.5 Q831.8594,880.5 831.6094,880.3281 Q831.3594,880.1563 831.25,879.7031 Q831.2031,879.3906 831.0313,879.2188 Q830.7188,878.8906 830.1563,878.7031 Q829.5938,878.5 829.0313,878.5 Q828.3281,878.5 827.7344,878.7813 Q827.1563,879.0625 826.7031,879.6875 Q826.25,880.3125 826.25,881.1719 L826.25,882.0938 Q826.25,883.125 827.0938,883.8125 Q827.9375,884.5 829.4375,884.5 Q830.3281,884.5 830.9531,884.2969 Q831.3125,884.1875 831.7188,883.8281 Q831.9844,883.625 832.125,883.5625 Q832.2656,883.5 832.4375,883.5 Q832.7656,883.5 833,883.7656 Q833.25,884.0156 833.25,884.375 Q833.25,884.7188 832.9063,885.125 Q832.4063,885.7188 831.6094,886.0469 Q830.5625,886.5 829.2813,886.5 Q827.7813,886.5 826.5781,885.9063 Q825.6094,885.4375 824.9219,884.4219 Q824.25,883.4063 824.25,882.2031 L824.25,881.1094 Q824.25,879.8594 824.8438,878.7656 Q825.4531,877.6719 826.5,877.0938 Q827.5625,876.5 828.75,876.5 Q829.4688,876.5 830.0938,876.75 Q830.7188,877 831.25,877.5 Z " fill="#000000"/><text fill="#000000" font-family="sans-serif" font-size="14" lengthAdjust="spacing" textLength="75" x="847.75" y="886.7285">SnsUserDto</text><line style="stroke:#181818;stroke-width:0.5;" x1="795" x2="945" y1="897" y2="897"/><rect fill="none" height="6" style="stroke:#C82930;stroke-width:1.0;" width="6" x="802" y="905"/><text fill="#000000" font-family="sans-serif" font-size="14" lengthAdjust="spacing" textLength="76" x="814" y="915.5332">String name</text><rect fill="none" height="6" style="stroke:#C82930;stroke-width:1.0;" width="6" x="802" y="922.6094"/><text fill="#000000" font-family="sans-serif" font-size="14" lengthAdjust="spacing" textLength="90" x="814" y="933.1426">int snsNumber</text><rect fill="none" height="6" style="stroke:#C82930;stroke-width:1.0;" width="6" x="802" y="940.2188"/><text fill="#000000" font-family="sans-serif" font-size="14" lengthAdjust="spacing" textLength="71" x="814" y="950.752">Email email</text><rect fill="none" height="6" style="stroke:#C82930;stroke-width:1.0;" width="6" x="802" y="957.8281"/><text fill="#000000" font-family="sans-serif" font-size="14" lengthAdjust="spacing" textLength="113" x="814" y="968.3613">int smsPermission</text><line style="stroke:#181818;stroke-width:0.5;" x1="795" x2="945" y1="975.4375" y2="975.4375"/><ellipse cx="805" cy="986.4375" fill="#84BE84" rx="3" ry="3" style="stroke:#038048;stroke-width:1.0;"/><text fill="#000000" font-family="sans-serif" font-size="14" lengthAdjust="spacing" textLength="66" x="814" y="993.9707">getName()</text><ellipse cx="805" cy="1004.0469" fill="#84BE84" rx="3" ry="3" style="stroke:#038048;stroke-width:1.0;"/><text fill="#000000" font-family="sans-serif" font-size="14" lengthAdjust="spacing" textLength="103" x="814" y="1011.5801">getSnsNumber()</text><ellipse cx="805" cy="1021.6563" fill="#84BE84" rx="3" ry="3" style="stroke:#038048;stroke-width:1.0;"/><text fill="#000000" font-family="sans-serif" font-size="14" lengthAdjust="spacing" textLength="64" x="814" y="1029.1895">getEmail()</text><ellipse cx="805" cy="1039.2656" fill="#84BE84" rx="3" ry="3" style="stroke:#038048;stroke-width:1.0;"/><text fill="#000000" font-family="sans-serif" font-size="14" lengthAdjust="spacing" textLength="126" x="814" y="1046.7988">getSmsPermission()</text></g><!--MD5=[9a2889027d1a5f59ee05c53124f224f8]
class PasswordGenerator--><g id="elem_PasswordGenerator"><rect codeLine="84" fill="#F1F1F1" height="136.0469" id="PasswordGenerator" rx="2.5" ry="2.5" style="stroke:#181818;stroke-width:0.5;" width="341" x="417.5" y="891.5"/><ellipse cx="520.75" cy="907.5" fill="#ADD1B2" rx="11" ry="11" style="stroke:#181818;stroke-width:1.0;"/><path d="M522.75,904 Q522.9531,903.5 523.1875,903.25 Q523.4219,903 523.6875,903 Q524.1563,903 524.4531,903.2813 Q524.75,903.5625 524.75,904.2188 L524.75,905.7813 Q524.75,906.4375 524.4688,906.7188 Q524.1875,907 523.75,907 Q523.3594,907 523.1094,906.8281 Q522.8594,906.6563 522.75,906.2031 Q522.7031,905.8906 522.5313,905.7188 Q522.2188,905.3906 521.6563,905.2031 Q521.0938,905 520.5313,905 Q519.8281,905 519.2344,905.2813 Q518.6563,905.5625 518.2031,906.1875 Q517.75,906.8125 517.75,907.6719 L517.75,908.5938 Q517.75,909.625 518.5938,910.3125 Q519.4375,911 520.9375,911 Q521.8281,911 522.4531,910.7969 Q522.8125,910.6875 523.2188,910.3281 Q523.4844,910.125 523.625,910.0625 Q523.7656,910 523.9375,910 Q524.2656,910 524.5,910.2656 Q524.75,910.5156 524.75,910.875 Q524.75,911.2188 524.4063,911.625 Q523.9063,912.2188 523.1094,912.5469 Q522.0625,913 520.7813,913 Q519.2813,913 518.0781,912.4063 Q517.1094,911.9375 516.4219,910.9219 Q515.75,909.9063 515.75,908.7031 L515.75,907.6094 Q515.75,906.3594 516.3438,905.2656 Q516.9531,904.1719 518,903.5938 Q519.0625,903 520.25,903 Q520.9688,903 521.5938,903.25 Q522.2188,903.5 522.75,904 Z " fill="#000000"/><text fill="#000000" font-family="sans-serif" font-size="14" lengthAdjust="spacing" textLength="126" x="541.25" y="913.2285">PasswordGenerator</text><line style="stroke:#181818;stroke-width:0.5;" x1="418.5" x2="757.5" y1="923.5" y2="923.5"/><rect fill="none" height="6" style="stroke:#C82930;stroke-width:1.0;" width="6" x="425.5" y="931.5"/><text fill="#000000" font-family="sans-serif" font-size="14" lengthAdjust="spacing" textLength="117" x="437.5" y="942.0332">Random RANDOM</text><rect fill="none" height="6" style="stroke:#C82930;stroke-width:1.0;" width="6" x="425.5" y="949.1094"/><text fill="#000000" font-family="sans-serif" font-size="14" lengthAdjust="spacing" textLength="98" x="437.5" y="959.6426">String CAPITAL</text><rect fill="none" height="6" style="stroke:#C82930;stroke-width:1.0;" width="6" x="425.5" y="966.7188"/><text fill="#000000" font-family="sans-serif" font-size="14" lengthAdjust="spacing" textLength="112" x="437.5" y="977.252">String ALPHABET</text><rect fill="none" height="6" style="stroke:#C82930;stroke-width:1.0;" width="6" x="425.5" y="984.3281"/><text fill="#000000" font-family="sans-serif" font-size="14" lengthAdjust="spacing" textLength="107" x="437.5" y="994.8613">String NUMBERS</text><line style="stroke:#181818;stroke-width:0.5;" x1="418.5" x2="757.5" y1="1001.9375" y2="1001.9375"/><ellipse cx="428.5" cy="1012.9375" fill="#84BE84" rx="3" ry="3" style="stroke:#038048;stroke-width:1.0;"/><text fill="#000000" font-family="sans-serif" font-size="14" lengthAdjust="spacing" textLength="315" x="437.5" y="1020.4707">pwdGenerator (int length,int capitals, int numbers)</text></g><!--MD5=[02e4b9b7573f1156f41e60aa5b4e25a4]
class Company--><g id="elem_Company"><rect codeLine="94" fill="#F1F1F1" height="136.0469" id="Company" rx="2.5" ry="2.5" style="stroke:#181818;stroke-width:0.5;" width="202" x="153" y="515"/><ellipse cx="219.75" cy="531" fill="#ADD1B2" rx="11" ry="11" style="stroke:#181818;stroke-width:1.0;"/><path d="M221.75,527.5 Q221.9531,527 222.1875,526.75 Q222.4219,526.5 222.6875,526.5 Q223.1563,526.5 223.4531,526.7813 Q223.75,527.0625 223.75,527.7188 L223.75,529.2813 Q223.75,529.9375 223.4688,530.2188 Q223.1875,530.5 222.75,530.5 Q222.3594,530.5 222.1094,530.3281 Q221.8594,530.1563 221.75,529.7031 Q221.7031,529.3906 221.5313,529.2188 Q221.2188,528.8906 220.6563,528.7031 Q220.0938,528.5 219.5313,528.5 Q218.8281,528.5 218.2344,528.7813 Q217.6563,529.0625 217.2031,529.6875 Q216.75,530.3125 216.75,531.1719 L216.75,532.0938 Q216.75,533.125 217.5938,533.8125 Q218.4375,534.5 219.9375,534.5 Q220.8281,534.5 221.4531,534.2969 Q221.8125,534.1875 222.2188,533.8281 Q222.4844,533.625 222.625,533.5625 Q222.7656,533.5 222.9375,533.5 Q223.2656,533.5 223.5,533.7656 Q223.75,534.0156 223.75,534.375 Q223.75,534.7188 223.4063,535.125 Q222.9063,535.7188 222.1094,536.0469 Q221.0625,536.5 219.7813,536.5 Q218.2813,536.5 217.0781,535.9063 Q216.1094,535.4375 215.4219,534.4219 Q214.75,533.4063 214.75,532.2031 L214.75,531.1094 Q214.75,529.8594 215.3438,528.7656 Q215.9531,527.6719 217,527.0938 Q218.0625,526.5 219.25,526.5 Q219.9688,526.5 220.5938,526.75 Q221.2188,527 221.75,527.5 Z " fill="#000000"/><text fill="#000000" font-family="sans-serif" font-size="14" lengthAdjust="spacing" textLength="60" x="240.25" y="536.7285">Company</text><line style="stroke:#181818;stroke-width:0.5;" x1="154" x2="354" y1="547" y2="547"/><rect fill="none" height="6" style="stroke:#C82930;stroke-width:1.0;" width="6" x="161" y="555"/><text fill="#000000" font-family="sans-serif" font-size="14" lengthAdjust="spacing" textLength="114" x="173" y="565.5332">String designation</text><rect fill="none" height="6" style="stroke:#C82930;stroke-width:1.0;" width="6" x="161" y="572.6094"/><text fill="#000000" font-family="sans-serif" font-size="14" lengthAdjust="spacing" textLength="157" x="173" y="583.1426">AuthFacade authFacade</text><rect fill="none" height="6" style="stroke:#C82930;stroke-width:1.0;" width="6" x="161" y="590.2188"/><text fill="#000000" font-family="sans-serif" font-size="14" lengthAdjust="spacing" textLength="176" x="173" y="600.752">SnsUserStore snsUserStore</text><line style="stroke:#181818;stroke-width:0.5;" x1="154" x2="354" y1="607.8281" y2="607.8281"/><ellipse cx="164" cy="618.8281" fill="#84BE84" rx="3" ry="3" style="stroke:#038048;stroke-width:1.0;"/><text fill="#000000" font-family="sans-serif" font-size="14" lengthAdjust="spacing" textLength="107" x="173" y="626.3613">getAuthFacade()</text><ellipse cx="164" cy="636.4375" fill="#84BE84" rx="3" ry="3" style="stroke:#038048;stroke-width:1.0;"/><text fill="#000000" font-family="sans-serif" font-size="14" lengthAdjust="spacing" textLength="117" x="173" y="643.9707">getSnsUserStore()</text></g><!--MD5=[8ae808d068a8995f06b9b3ec51357f0b]
class AuthFacade--><g id="elem_AuthFacade"><rect codeLine="104" fill="#F1F1F1" height="83.2188" id="AuthFacade" rx="2.5" ry="2.5" style="stroke:#181818;stroke-width:0.5;" width="304" x="7" y="918"/><ellipse cx="116.25" cy="934" fill="#ADD1B2" rx="11" ry="11" style="stroke:#181818;stroke-width:1.0;"/><path d="M118.25,930.5 Q118.4531,930 118.6875,929.75 Q118.9219,929.5 119.1875,929.5 Q119.6563,929.5 119.9531,929.7813 Q120.25,930.0625 120.25,930.7188 L120.25,932.2813 Q120.25,932.9375 119.9688,933.2188 Q119.6875,933.5 119.25,933.5 Q118.8594,933.5 118.6094,933.3281 Q118.3594,933.1563 118.25,932.7031 Q118.2031,932.3906 118.0313,932.2188 Q117.7188,931.8906 117.1563,931.7031 Q116.5938,931.5 116.0313,931.5 Q115.3281,931.5 114.7344,931.7813 Q114.1563,932.0625 113.7031,932.6875 Q113.25,933.3125 113.25,934.1719 L113.25,935.0938 Q113.25,936.125 114.0938,936.8125 Q114.9375,937.5 116.4375,937.5 Q117.3281,937.5 117.9531,937.2969 Q118.3125,937.1875 118.7188,936.8281 Q118.9844,936.625 119.125,936.5625 Q119.2656,936.5 119.4375,936.5 Q119.7656,936.5 120,936.7656 Q120.25,937.0156 120.25,937.375 Q120.25,937.7188 119.9063,938.125 Q119.4063,938.7188 118.6094,939.0469 Q117.5625,939.5 116.2813,939.5 Q114.7813,939.5 113.5781,938.9063 Q112.6094,938.4375 111.9219,937.4219 Q111.25,936.4063 111.25,935.2031 L111.25,934.1094 Q111.25,932.8594 111.8438,931.7656 Q112.4531,930.6719 113.5,930.0938 Q114.5625,929.5 115.75,929.5 Q116.4688,929.5 117.0938,929.75 Q117.7188,930 118.25,930.5 Z " fill="#000000"/><text fill="#000000" font-family="sans-serif" font-size="14" lengthAdjust="spacing" textLength="77" x="136.75" y="939.7285">AuthFacade</text><line style="stroke:#181818;stroke-width:0.5;" x1="8" x2="310" y1="950" y2="950"/><line style="stroke:#181818;stroke-width:0.5;" x1="8" x2="310" y1="958" y2="958"/><ellipse cx="18" cy="969" fill="#84BE84" rx="3" ry="3" style="stroke:#038048;stroke-width:1.0;"/><text fill="#000000" font-family="sans-serif" font-size="14" lengthAdjust="spacing" textLength="107" x="27" y="976.5332">existsUser(email)</text><ellipse cx="18" cy="986.6094" fill="#84BE84" rx="3" ry="3" style="stroke:#038048;stroke-width:1.0;"/><text fill="#000000" font-family="sans-serif" font-size="14" lengthAdjust="spacing" textLength="278" x="27" y="994.1426">addUserWithRole(name,email,pwd,"CLIENT"</text></g><!--MD5=[17d337e93645898dbfc0422ec66e999a]
link ImportFileSnsUsersUI to ImportFileSnsUsersController--><g id="link_ImportFileSnsUsersUI_ImportFileSnsUsersController"><path codeLine="111" d="M945.93,266.32 C974.58,293.08 1002.9,319.53 1025.5,340.64 " fill="none" id="ImportFileSnsUsersUI-to-ImportFileSnsUsersController" style="stroke:#181818;stroke-width:1.0;stroke-dasharray:7.0,7.0;"/><polygon fill="#181818" points="1029.36,344.24,1025.511,335.1744,1025.7052,340.8279,1020.0517,341.0221,1029.36,344.24" style="stroke:#181818;stroke-width:1.0;"/></g><!--MD5=[eb9b81aef53d51d49f614aed7844ab27]
link ImportFileSnsUsersController to FileSnsUserStore--><g id="link_ImportFileSnsUsersController_FileSnsUserStore"><path codeLine="112" d="M1079.71,427.88 C1084.44,456.71 1090.83,495.66 1096,527.18 " fill="none" id="ImportFileSnsUsersController-to-FileSnsUserStore" style="stroke:#181818;stroke-width:1.0;stroke-dasharray:7.0,7.0;"/><polygon fill="#181818" points="1096.82,532.18,1099.2994,522.6483,1096.005,527.2469,1091.4064,523.9524,1096.82,532.18" style="stroke:#181818;stroke-width:1.0;"/></g><!--MD5=[866d6688535945ae38ade681597a58b1]
link ImportFileSnsUsersUI to RegisterSnsUserController--><g id="link_ImportFileSnsUsersUI_RegisterSnsUserController"><path codeLine="113" d="M737.73,266.32 C727.13,285.76 716.62,305.02 707.25,322.2 " fill="none" id="ImportFileSnsUsersUI-to-RegisterSnsUserController" style="stroke:#181818;stroke-width:1.0;stroke-dasharray:7.0,7.0;"/><polygon fill="#181818" points="704.64,326.99,712.4694,321.0151,707.0403,322.6038,705.4515,317.1746,704.64,326.99" style="stroke:#181818;stroke-width:1.0;"/></g><!--MD5=[1d71627a5841e4fd2d2fabcc8ea27ee0]
link RegisterSnsUserController to SnsUserStore--><g id="link_RegisterSnsUserController_SnsUserStore"><path codeLine="114" d="M644.03,445.24 C635.28,462.83 625.51,482.46 616.17,501.24 " fill="none" id="RegisterSnsUserController-to-SnsUserStore" style="stroke:#181818;stroke-width:1.0;stroke-dasharray:7.0,7.0;"/><polygon fill="#181818" points="613.81,506,621.4046,499.7293,616.0403,501.525,614.2446,496.1607,613.81,506" style="stroke:#181818;stroke-width:1.0;"/></g><!--MD5=[57e08d303abaf7c6fa768c00910dd53f]
link RegisterSnsUserController to Company--><g id="link_RegisterSnsUserController_Company"><path codeLine="115" d="M558.78,440.16 C496.79,469.01 420.65,504.44 359.98,532.68 " fill="none" id="RegisterSnsUserController-to-Company" style="stroke:#181818;stroke-width:1.0;stroke-dasharray:7.0,7.0;"/><polygon fill="#181818" points="355.27,534.87,365.1172,534.6871,359.8006,532.7548,361.7328,527.4382,355.27,534.87" style="stroke:#181818;stroke-width:1.0;"/></g><!--MD5=[69afbce4f71f39f6b542aa9506b8b812]
link RegisterSnsUserController to SnsUserDto--><g id="link_RegisterSnsUserController_SnsUserDto"><path codeLine="116" d="M723.76,445.07 C775.15,508.05 851.28,614 882,721 C894.78,765.51 894.06,816.62 889.21,859.99 " fill="none" id="RegisterSnsUserController-to-SnsUserDto" style="stroke:#181818;stroke-width:1.0;stroke-dasharray:7.0,7.0;"/><polygon fill="#181818" points="888.63,864.97,893.6584,856.5015,889.2167,860.0045,885.7137,855.5628,888.63,864.97" style="stroke:#181818;stroke-width:1.0;"/></g><!--MD5=[73578e536d3cad610b43d7274c432f2a]
link Company to SnsUserStore--><g id="link_Company_SnsUserStore"><path codeLine="117" d="M355.44,583 C384.8,583 417.24,583 448.01,583 " fill="none" id="Company-to-SnsUserStore" style="stroke:#181818;stroke-width:1.0;"/><polygon fill="#181818" points="453.33,583,444.33,579,448.33,583,444.33,587,453.33,583" style="stroke:#181818;stroke-width:1.0;"/><polygon fill="#000000" points="382.25,571.1758,373.2049,568.2369,373.2049,574.1147,382.25,571.1758" style="stroke:#000000;stroke-width:1.0;"/><text fill="#000000" font-family="sans-serif" font-size="13" lengthAdjust="spacing" textLength="49" x="386.25" y="576.4951">contains</text></g><!--MD5=[717d4b03d3c4372f4eafe5e342a0a7dd]
link Company to AuthFacade--><g id="link_Company_AuthFacade"><path codeLine="118" d="M223.64,651.29 C214.68,673.18 205.53,697.81 199,721 C180.59,786.44 169.43,864.55 163.74,912.84 " fill="none" id="Company-to-AuthFacade" style="stroke:#181818;stroke-width:1.0;"/><polygon fill="#181818" points="163.14,918,168.1443,909.5173,163.7126,913.0329,160.197,908.6011,163.14,918" style="stroke:#181818;stroke-width:1.0;"/><polygon fill="#000000" points="202.8838,759.0496,207.7678,750.8889,202.0383,749.5767,202.8838,759.0496" style="stroke:#000000;stroke-width:1.0;"/><text fill="#000000" font-family="sans-serif" font-size="13" lengthAdjust="spacing" textLength="49" x="213" y="759.4951">contains</text></g><!--MD5=[53951f8a9b2cddf0db4c74202f36091c]
link SnsUserStore to SnsUserMapper--><g id="link_SnsUserStore_SnsUserMapper"><path codeLine="119" d="M660.65,660.1 C682.76,679.97 705.56,700.47 724.11,717.14 " fill="none" id="SnsUserStore-to-SnsUserMapper" style="stroke:#181818;stroke-width:1.0;stroke-dasharray:7.0,7.0;"/><polygon fill="#181818" points="728.24,720.86,724.2262,711.8661,724.5235,717.5152,718.8745,717.8125,728.24,720.86" style="stroke:#181818;stroke-width:1.0;"/></g><!--MD5=[0f2ca2e89f2c3c3e2d7abc1cfeda2de1]
link SnsUserStore to SnsUserDto--><g id="link_SnsUserStore_SnsUserDto"><path codeLine="120" d="M589.52,660.11 C599.83,701.12 617.47,750.62 647,787 C689.22,839.02 723.21,823.75 776,865 C780.68,868.65 785.36,872.52 790.01,876.52 " fill="none" id="SnsUserStore-to-SnsUserDto" style="stroke:#181818;stroke-width:1.0;stroke-dasharray:7.0,7.0;"/><polygon fill="#181818" points="793.91,879.91,789.7324,870.9911,790.133,876.6337,784.4903,877.0343,793.91,879.91" style="stroke:#181818;stroke-width:1.0;"/></g><!--MD5=[b4ed821083d79b2e54fffd2eacc7a8f1]
link SnsUserStore to PasswordGenerator--><g id="link_SnsUserStore_PasswordGenerator"><path codeLine="121" d="M578.44,660.24 C580.56,726.41 583.61,821.55 585.69,886.46 " fill="none" id="SnsUserStore-to-PasswordGenerator" style="stroke:#181818;stroke-width:1.0;stroke-dasharray:7.0,7.0;"/><polygon fill="#181818" points="585.85,891.47,589.5653,882.3488,585.6929,886.4725,581.5693,882.6001,585.85,891.47" style="stroke:#181818;stroke-width:1.0;"/></g><!--MD5=[d642304e5b0be02cb4fbb640ed46028f]
link SnsUserStore to AuthFacade--><g id="link_SnsUserStore_AuthFacade"><path codeLine="122" d="M453.42,623.13 C413.82,639.63 371.53,661.7 338,690 C318.07,706.82 232.47,841.16 187.25,913.21 " fill="none" id="SnsUserStore-to-AuthFacade" style="stroke:#181818;stroke-width:1.0;stroke-dasharray:7.0,7.0;"/><polygon fill="#181818" points="184.33,917.86,192.497,912.3554,186.9838,913.6224,185.7168,908.1093,184.33,917.86" style="stroke:#181818;stroke-width:1.0;"/></g><!--MD5=[36ff57e04b445edb1aaa7eeb03a93ced]
link SnsUserStore to SnsUser--><g id="link_SnsUserStore_SnsUser"><path codeLine="123" d="M515,660.27 C475.31,714.22 426.22,790.01 400,865 C371.81,945.64 364.52,1044.18 363.18,1109.77 " fill="none" id="SnsUserStore-to-SnsUser" style="stroke:#181818;stroke-width:1.0;"/><polygon fill="#181818" points="363.09,1114.83,367.2437,1105.8999,363.1757,1109.8307,359.2449,1105.7628,363.09,1114.83" style="stroke:#181818;stroke-width:1.0;"/><polygon fill="#000000" points="423.4,830.9129,429.0788,823.2838,423.51,821.403,423.4,830.9129" style="stroke:#000000;stroke-width:1.0;"/><text fill="#000000" font-family="sans-serif" font-size="13" lengthAdjust="spacing" textLength="49" x="434" y="831.4951">contains</text></g><!--MD5=[7640bddd01128eef993c2aaea78256eb]
link SnsUserMapper to SnsUserDto--><g id="link_SnsUserMapper_SnsUserDto"><path codeLine="124" d="M780.8,787.25 C791.17,807.16 805.09,833.89 818.84,860.29 " fill="none" id="SnsUserMapper-to-SnsUserDto" style="stroke:#181818;stroke-width:1.0;stroke-dasharray:7.0,7.0;"/><polygon fill="#181818" points="821.23,864.87,820.6317,855.0393,818.9255,860.4327,813.5321,858.7265,821.23,864.87" style="stroke:#181818;stroke-width:1.0;"/></g><!--MD5=[ee8a508b46b5ccb03bdeda44ddc74d67]
@startuml
'https://plantuml.com/class-diagram

class ImportFileSnsUsersUI
{
- ImportFileSnsUsersController controller
- RegisterSnsUserController snsUserController
- String name
- String address
- String sex
- String phoneNumber
- String email
- String birthdate
- String snsNumber
- String citizenCardNumber
- String smsPermission
- String valid
}

class ImportFileSnsUsersController{
- FileSnsUserStore fileSnsUserStore
+ String[][] SeparateUsers(fileUsers)
}

class FileSnsUserStore{
- Int qtLines
+ void countUsers(File fileUsers)
+ String[][] separateUsers (File fileUsers)
}








class RegisterSnsUserController {
- SnsUserStore snsUserStore
- SnsUser snsUser
+ createSnsUser(SnsUserDto dto)
+ boolean registerSnsUser()
}

class SnsUserStore {
- Map<Integer, SnsUser> snsUsers
+ createSnsUser(SnsUserDto dto)
- validateUser(SnsUser user)
+ registerSnsUser(SnsUser snsUser)
- addSnsUser (SnsUser snsUser)
+ getSnsUsers()

}


class SnsUserMapper {

+ toSnsUser(SnsUserDto dto)
}

class SnsUser {

- String name
- int snsNumber
- Email email
- int smsPermission

- validateInformation(String name,int snsNumber,String email, int smsPermission )

}

class SnsUserDto {
- String name
- int snsNumber
- Email email
- int smsPermission
+ getName()
+ getSnsNumber()
+ getEmail()
+ getSmsPermission()

}


class PasswordGenerator {
- Random RANDOM
- String CAPITAL
- String ALPHABET
- String NUMBERS

+ pwdGenerator (int length,int capitals, int numbers)

}

class Company {
- String designation
- AuthFacade authFacade
- SnsUserStore snsUserStore

+ getAuthFacade()
+ getSnsUserStore()

}

class AuthFacade {
+existsUser(email)
+addUserWithRole(name,email,pwd,"CLIENT"

}


ImportFileSnsUsersUI .-> ImportFileSnsUsersController
ImportFileSnsUsersController .-> FileSnsUserStore
ImportFileSnsUsersUI .-> RegisterSnsUserController
RegisterSnsUserController .-> SnsUserStore
RegisterSnsUserController.-> Company
RegisterSnsUserController.-> SnsUserDto
Company -> SnsUserStore : contains >
Company -> AuthFacade : contains >
SnsUserStore .-> SnsUserMapper
SnsUserStore .- -> SnsUserDto
SnsUserStore .- -> PasswordGenerator
SnsUserStore .- -> AuthFacade
SnsUserStore - - - -> SnsUser : contains >
SnsUserMapper .-> SnsUserDto


@enduml

@startuml

class ImportFileSnsUsersUI
{
- ImportFileSnsUsersController controller
- RegisterSnsUserController snsUserController
- String name
- String address
- String sex
- String phoneNumber
- String email
- String birthdate
- String snsNumber
- String citizenCardNumber
- String smsPermission
- String valid
}

class ImportFileSnsUsersController{
- FileSnsUserStore fileSnsUserStore
+ String[][] SeparateUsers(fileUsers)
}

class FileSnsUserStore{
- Int qtLines
+ void countUsers(File fileUsers)
+ String[][] separateUsers (File fileUsers)
}








class RegisterSnsUserController {
- SnsUserStore snsUserStore
- SnsUser snsUser
+ createSnsUser(SnsUserDto dto)
+ boolean registerSnsUser()
}

class SnsUserStore {
- Map<Integer, SnsUser> snsUsers
+ createSnsUser(SnsUserDto dto)
- validateUser(SnsUser user)
+ registerSnsUser(SnsUser snsUser)
- addSnsUser (SnsUser snsUser)
+ getSnsUsers()

}


class SnsUserMapper {

+ toSnsUser(SnsUserDto dto)
}

class SnsUser {

- String name
- int snsNumber
- Email email
- int smsPermission

- validateInformation(String name,int snsNumber,String email, int smsPermission )

}

class SnsUserDto {
- String name
- int snsNumber
- Email email
- int smsPermission
+ getName()
+ getSnsNumber()
+ getEmail()
+ getSmsPermission()

}


class PasswordGenerator {
- Random RANDOM
- String CAPITAL
- String ALPHABET
- String NUMBERS

+ pwdGenerator (int length,int capitals, int numbers)

}

class Company {
- String designation
- AuthFacade authFacade
- SnsUserStore snsUserStore

+ getAuthFacade()
+ getSnsUserStore()

}

class AuthFacade {
+existsUser(email)
+addUserWithRole(name,email,pwd,"CLIENT"

}


ImportFileSnsUsersUI .-> ImportFileSnsUsersController
ImportFileSnsUsersController .-> FileSnsUserStore
ImportFileSnsUsersUI .-> RegisterSnsUserController
RegisterSnsUserController .-> SnsUserStore
RegisterSnsUserController.-> Company
RegisterSnsUserController.-> SnsUserDto
Company -> SnsUserStore : contains >
Company -> AuthFacade : contains >
SnsUserStore .-> SnsUserMapper
SnsUserStore .- -> SnsUserDto
SnsUserStore .- -> PasswordGenerator
SnsUserStore .- -> AuthFacade
SnsUserStore - - - -> SnsUser : contains >
SnsUserMapper .-> SnsUserDto


@enduml

PlantUML version 1.2022.4(Sat Apr 09 14:29:17 BST 2022)
(GPL source distribution)
Java Runtime: OpenJDK Runtime Environment
JVM: OpenJDK 64-Bit Server VM
Default Encoding: Cp1252
Language: en
Country: US
--></g></svg>