<?xml version="1.0" encoding="UTF-8" standalone="no"?><svg xmlns="http://www.w3.org/2000/svg" xmlns:xlink="http://www.w3.org/1999/xlink" contentStyleType="text/css" height="1365px" preserveAspectRatio="none" style="width:3146px;height:1365px;background:#FFFFFF;" version="1.1" viewBox="0 0 3146 1365" width="3146px" zoomAndPan="magnify"><defs/><g><rect fill="#FFFFFF" height="1174.8691" style="stroke:#181818;stroke-width:1.0;" width="10" x="45" y="91.4883"/><rect fill="#FFFFFF" height="1153.5586" style="stroke:#181818;stroke-width:1.0;" width="10" x="394" y="112.7988"/><rect fill="#FFFFFF" height="1036.3164" style="stroke:#181818;stroke-width:1.0;" width="10" x="836" y="200.7305"/><rect fill="#FFFFFF" height="443.416" style="stroke:#181818;stroke-width:1.0;" width="10" x="1455" y="611.7676"/><rect fill="#FFFFFF" height="30" style="stroke:#181818;stroke-width:1.0;" width="10" x="1800" y="611.7676"/><rect fill="#FFFFFF" height="30" style="stroke:#181818;stroke-width:1.0;" width="10" x="2000" y="730.6992"/><rect fill="#FFFFFF" height="87.9316" style="stroke:#181818;stroke-width:1.0;" width="10" x="2256.5" y="435.2148"/><rect fill="#FFFFFF" height="30" style="stroke:#181818;stroke-width:1.0;" width="10" x="2344.5" y="814.3203"/><rect fill="#FFFFFF" height="29.3105" style="stroke:#181818;stroke-width:1.0;" width="10" x="2456" y="996.5625"/><rect fill="#FFFFFF" height="58.6211" style="stroke:#181818;stroke-width:1.0;" width="10" x="2667.5" y="230.041"/><rect fill="#FFFFFF" height="30" style="stroke:#181818;stroke-width:1.0;" width="10" x="3076" y="552.457"/><rect fill="#FFFF00" height="311.4844" style="stroke:#000000;stroke-width:1.5;" width="1033" x="1373" y="656.7676"/><rect fill="#C0C0C0" height="185.5527" style="stroke:#000000;stroke-width:1.5;" width="1013" x="1383" y="775.6992"/><rect fill="#2E8B57" height="94.9316" style="stroke:#000000;stroke-width:1.5;" width="555" x="1393" y="859.3203"/><line style="stroke:#181818;stroke-width:0.5;stroke-dasharray:5.0,5.0;" x1="50" x2="50" y1="81.4883" y2="1284.3574"/><line style="stroke:#181818;stroke-width:0.5;stroke-dasharray:5.0,5.0;" x1="399" x2="399" y1="81.4883" y2="1284.3574"/><line style="stroke:#181818;stroke-width:0.5;stroke-dasharray:5.0,5.0;" x1="841" x2="841" y1="81.4883" y2="1284.3574"/><line style="stroke:#181818;stroke-width:0.5;stroke-dasharray:5.0,5.0;" x1="1460" x2="1460" y1="81.4883" y2="1284.3574"/><line style="stroke:#181818;stroke-width:0.5;stroke-dasharray:5.0,5.0;" x1="1805" x2="1805" y1="81.4883" y2="1284.3574"/><line style="stroke:#181818;stroke-width:0.5;stroke-dasharray:5.0,5.0;" x1="2005" x2="2005" y1="81.4883" y2="1284.3574"/><line style="stroke:#181818;stroke-width:0.5;stroke-dasharray:5.0,5.0;" x1="2155" x2="2155" y1="81.4883" y2="1284.3574"/><line style="stroke:#181818;stroke-width:0.5;stroke-dasharray:5.0,5.0;" x1="2261" x2="2261" y1="81.4883" y2="1284.3574"/><line style="stroke:#181818;stroke-width:0.5;stroke-dasharray:5.0,5.0;" x1="2349" x2="2349" y1="81.4883" y2="1284.3574"/><line style="stroke:#181818;stroke-width:0.5;stroke-dasharray:5.0,5.0;" x1="2461" x2="2461" y1="81.4883" y2="1284.3574"/><line style="stroke:#181818;stroke-width:0.5;stroke-dasharray:5.0,5.0;" x1="2587" x2="2587" y1="81.4883" y2="1284.3574"/><line style="stroke:#181818;stroke-width:0.5;stroke-dasharray:5.0,5.0;" x1="2672" x2="2672" y1="81.4883" y2="1284.3574"/><line style="stroke:#181818;stroke-width:0.5;stroke-dasharray:5.0,5.0;" x1="2796" x2="2796" y1="81.4883" y2="1284.3574"/><line style="stroke:#181818;stroke-width:0.5;stroke-dasharray:5.0,5.0;" x1="2954" x2="2954" y1="81.4883" y2="1284.3574"/><line style="stroke:#181818;stroke-width:0.5;stroke-dasharray:5.0,5.0;" x1="3081" x2="3081" y1="81.4883" y2="1284.3574"/><text fill="#000000" font-family="sans-serif" font-size="14" lengthAdjust="spacing" textLength="84" x="5" y="78.5352">Coordinator</text><ellipse cx="50" cy="13.5" fill="#E2E2F0" rx="8" ry="8" style="stroke:#181818;stroke-width:0.5;"/><path d="M50,21.5 L50,48.5 M37,29.5 L63,29.5 M50,48.5 L37,63.5 M50,48.5 L63,63.5 " fill="none" style="stroke:#181818;stroke-width:0.5;"/><text fill="#000000" font-family="sans-serif" font-size="14" lengthAdjust="spacing" textLength="84" x="5" y="1296.8926">Coordinator</text><ellipse cx="50" cy="1308.3457" fill="#E2E2F0" rx="8" ry="8" style="stroke:#181818;stroke-width:0.5;"/><path d="M50,1316.3457 L50,1343.3457 M37,1324.3457 L63,1324.3457 M50,1343.3457 L37,1358.3457 M50,1343.3457 L63,1358.3457 " fill="none" style="stroke:#181818;stroke-width:0.5;"/><rect fill="#E2E2F0" height="30.4883" rx="2.5" ry="2.5" style="stroke:#181818;stroke-width:0.5;" width="92" x="353" y="50"/><text fill="#000000" font-family="sans-serif" font-size="14" lengthAdjust="spacing" textLength="78" x="360" y="70.5352">:StatisticsUI</text><rect fill="#E2E2F0" height="30.4883" rx="2.5" ry="2.5" style="stroke:#181818;stroke-width:0.5;" width="92" x="353" y="1283.3574"/><text fill="#000000" font-family="sans-serif" font-size="14" lengthAdjust="spacing" textLength="78" x="360" y="1303.8926">:StatisticsUI</text><rect fill="#E2E2F0" height="30.4883" rx="2.5" ry="2.5" style="stroke:#181818;stroke-width:0.5;" width="148" x="767" y="50"/><text fill="#000000" font-family="sans-serif" font-size="14" lengthAdjust="spacing" textLength="134" x="774" y="70.5352">:StatisticsController</text><rect fill="#E2E2F0" height="30.4883" rx="2.5" ry="2.5" style="stroke:#181818;stroke-width:0.5;" width="148" x="767" y="1283.3574"/><text fill="#000000" font-family="sans-serif" font-size="14" lengthAdjust="spacing" textLength="134" x="774" y="1303.8926">:StatisticsController</text><rect fill="#E2E2F0" height="30.4883" rx="2.5" ry="2.5" style="stroke:#181818;stroke-width:0.5;" width="114" x="1403" y="50"/><text fill="#000000" font-family="sans-serif" font-size="14" lengthAdjust="spacing" textLength="100" x="1410" y="70.5352">:StatisticsStore</text><rect fill="#E2E2F0" height="30.4883" rx="2.5" ry="2.5" style="stroke:#181818;stroke-width:0.5;" width="114" x="1403" y="1283.3574"/><text fill="#000000" font-family="sans-serif" font-size="14" lengthAdjust="spacing" textLength="100" x="1410" y="1303.8926">:StatisticsStore</text><rect fill="#E2E2F0" height="30.4883" rx="2.5" ry="2.5" style="stroke:#181818;stroke-width:0.5;" width="208" x="1701" y="50"/><text fill="#000000" font-family="sans-serif" font-size="14" lengthAdjust="spacing" textLength="194" x="1708" y="70.5352">:VaccineAdministrationStore</text><rect fill="#E2E2F0" height="30.4883" rx="2.5" ry="2.5" style="stroke:#181818;stroke-width:0.5;" width="208" x="1701" y="1283.3574"/><text fill="#000000" font-family="sans-serif" font-size="14" lengthAdjust="spacing" textLength="194" x="1708" y="1303.8926">:VaccineAdministrationStore</text><rect fill="#E2E2F0" height="30.4883" rx="2.5" ry="2.5" style="stroke:#181818;stroke-width:0.5;" width="172" x="1919" y="50"/><text fill="#000000" font-family="sans-serif" font-size="14" lengthAdjust="spacing" textLength="158" x="1926" y="70.5352">:VaccineAdministration</text><rect fill="#E2E2F0" height="30.4883" rx="2.5" ry="2.5" style="stroke:#181818;stroke-width:0.5;" width="172" x="1919" y="1283.3574"/><text fill="#000000" font-family="sans-serif" font-size="14" lengthAdjust="spacing" textLength="158" x="1926" y="1303.8926">:VaccineAdministration</text><rect fill="#E2E2F0" height="30.4883" rx="2.5" ry="2.5" style="stroke:#181818;stroke-width:0.5;" width="109" x="2101" y="50"/><text fill="#000000" font-family="sans-serif" font-size="14" lengthAdjust="spacing" textLength="95" x="2108" y="70.5352">:SnsUserStore</text><rect fill="#E2E2F0" height="30.4883" rx="2.5" ry="2.5" style="stroke:#181818;stroke-width:0.5;" width="109" x="2101" y="1283.3574"/><text fill="#000000" font-family="sans-serif" font-size="14" lengthAdjust="spacing" textLength="95" x="2108" y="1303.8926">:SnsUserStore</text><rect fill="#E2E2F0" height="30.4883" rx="2.5" ry="2.5" style="stroke:#181818;stroke-width:0.5;" width="83" x="2220" y="50"/><text fill="#000000" font-family="sans-serif" font-size="14" lengthAdjust="spacing" textLength="69" x="2227" y="70.5352">:Company</text><rect fill="#E2E2F0" height="30.4883" rx="2.5" ry="2.5" style="stroke:#181818;stroke-width:0.5;" width="83" x="2220" y="1283.3574"/><text fill="#000000" font-family="sans-serif" font-size="14" lengthAdjust="spacing" textLength="69" x="2227" y="1303.8926">:Company</text><rect fill="#E2E2F0" height="30.4883" rx="2.5" ry="2.5" style="stroke:#181818;stroke-width:0.5;" width="73" x="2313" y="50"/><text fill="#000000" font-family="sans-serif" font-size="14" lengthAdjust="spacing" textLength="59" x="2320" y="70.5352">:SnsUser</text><rect fill="#E2E2F0" height="30.4883" rx="2.5" ry="2.5" style="stroke:#181818;stroke-width:0.5;" width="73" x="2313" y="1283.3574"/><text fill="#000000" font-family="sans-serif" font-size="14" lengthAdjust="spacing" textLength="59" x="2320" y="1303.8926">:SnsUser</text><rect fill="#E2E2F0" height="30.4883" rx="2.5" ry="2.5" style="stroke:#181818;stroke-width:0.5;" width="130" x="2396" y="50"/><text fill="#000000" font-family="sans-serif" font-size="14" lengthAdjust="spacing" textLength="116" x="2403" y="70.5352">:StatisticsMapper</text><rect fill="#E2E2F0" height="30.4883" rx="2.5" ry="2.5" style="stroke:#181818;stroke-width:0.5;" width="130" x="2396" y="1283.3574"/><text fill="#000000" font-family="sans-serif" font-size="14" lengthAdjust="spacing" textLength="116" x="2403" y="1303.8926">:StatisticsMapper</text><rect fill="#E2E2F0" height="30.4883" rx="2.5" ry="2.5" style="stroke:#181818;stroke-width:0.5;" width="102" x="2536" y="50"/><text fill="#000000" font-family="sans-serif" font-size="14" lengthAdjust="spacing" textLength="88" x="2543" y="70.5352">:StatisticsDto</text><rect fill="#E2E2F0" height="30.4883" rx="2.5" ry="2.5" style="stroke:#181818;stroke-width:0.5;" width="102" x="2536" y="1283.3574"/><text fill="#000000" font-family="sans-serif" font-size="14" lengthAdjust="spacing" textLength="88" x="2543" y="1303.8926">:StatisticsDto</text><rect fill="#E2E2F0" height="30.4883" rx="2.5" ry="2.5" style="stroke:#181818;stroke-width:0.5;" width="49" x="2648" y="50"/><text fill="#000000" font-family="sans-serif" font-size="14" lengthAdjust="spacing" textLength="35" x="2655" y="70.5352">:Date</text><rect fill="#E2E2F0" height="30.4883" rx="2.5" ry="2.5" style="stroke:#181818;stroke-width:0.5;" width="49" x="2648" y="1283.3574"/><text fill="#000000" font-family="sans-serif" font-size="14" lengthAdjust="spacing" textLength="35" x="2655" y="1303.8926">:Date</text><rect fill="#E2E2F0" height="30.4883" rx="2.5" ry="2.5" style="stroke:#181818;stroke-width:0.5;" width="179" x="2707" y="50"/><text fill="#000000" font-family="sans-serif" font-size="14" lengthAdjust="spacing" textLength="165" x="2714" y="70.5352">:VaccinationCenterStore</text><rect fill="#E2E2F0" height="30.4883" rx="2.5" ry="2.5" style="stroke:#181818;stroke-width:0.5;" width="179" x="2707" y="1283.3574"/><text fill="#000000" font-family="sans-serif" font-size="14" lengthAdjust="spacing" textLength="165" x="2714" y="1303.8926">:VaccinationCenterStore</text><rect fill="#E2E2F0" height="30.4883" rx="2.5" ry="2.5" style="stroke:#181818;stroke-width:0.5;" width="116" x="2896" y="50"/><text fill="#000000" font-family="sans-serif" font-size="14" lengthAdjust="spacing" textLength="102" x="2903" y="70.5352">:ScheduleStore</text><rect fill="#E2E2F0" height="30.4883" rx="2.5" ry="2.5" style="stroke:#181818;stroke-width:0.5;" width="116" x="2896" y="1283.3574"/><text fill="#000000" font-family="sans-serif" font-size="14" lengthAdjust="spacing" textLength="102" x="2903" y="1303.8926">:ScheduleStore</text><rect fill="#E2E2F0" height="30.4883" rx="2.5" ry="2.5" style="stroke:#181818;stroke-width:0.5;" width="118" x="3022" y="50"/><text fill="#000000" font-family="sans-serif" font-size="14" lengthAdjust="spacing" textLength="104" x="3029" y="70.5352">vacCenterStore</text><rect fill="#E2E2F0" height="30.4883" rx="2.5" ry="2.5" style="stroke:#181818;stroke-width:0.5;" width="118" x="3022" y="1283.3574"/><text fill="#000000" font-family="sans-serif" font-size="14" lengthAdjust="spacing" textLength="104" x="3029" y="1303.8926">vacCenterStore</text><rect fill="#FFFFFF" height="1174.8691" style="stroke:#181818;stroke-width:1.0;" width="10" x="45" y="91.4883"/><rect fill="#FFFFFF" height="1153.5586" style="stroke:#181818;stroke-width:1.0;" width="10" x="394" y="112.7988"/><rect fill="#FFFFFF" height="1036.3164" style="stroke:#181818;stroke-width:1.0;" width="10" x="836" y="200.7305"/><rect fill="#FFFFFF" height="443.416" style="stroke:#181818;stroke-width:1.0;" width="10" x="1455" y="611.7676"/><rect fill="#FFFFFF" height="30" style="stroke:#181818;stroke-width:1.0;" width="10" x="1800" y="611.7676"/><rect fill="#FFFFFF" height="30" style="stroke:#181818;stroke-width:1.0;" width="10" x="2000" y="730.6992"/><rect fill="#FFFFFF" height="87.9316" style="stroke:#181818;stroke-width:1.0;" width="10" x="2256.5" y="435.2148"/><rect fill="#FFFFFF" height="30" style="stroke:#181818;stroke-width:1.0;" width="10" x="2344.5" y="814.3203"/><rect fill="#FFFFFF" height="29.3105" style="stroke:#181818;stroke-width:1.0;" width="10" x="2456" y="996.5625"/><rect fill="#FFFFFF" height="58.6211" style="stroke:#181818;stroke-width:1.0;" width="10" x="2667.5" y="230.041"/><rect fill="#FFFFFF" height="30" style="stroke:#181818;stroke-width:1.0;" width="10" x="3076" y="552.457"/><polygon fill="#181818" points="382,108.7988,392,112.7988,382,116.7988,386,112.7988" style="stroke:#181818;stroke-width:1.0;"/><line style="stroke:#181818;stroke-width:1.0;" x1="55" x2="388" y1="112.7988" y2="112.7988"/><text fill="#000000" font-family="sans-serif" font-size="13" font-weight="bold" lengthAdjust="spacing" textLength="9" x="62" y="108.0566">1</text><text fill="#000000" font-family="sans-serif" font-size="13" lengthAdjust="spacing" textLength="298" x="75" y="108.0566">requests to check/export vaccination statistics</text><polygon fill="#181818" points="66,138.1094,56,142.1094,66,146.1094,62,142.1094" style="stroke:#181818;stroke-width:1.0;"/><line style="stroke:#181818;stroke-width:1.0;stroke-dasharray:2.0,2.0;" x1="60" x2="393" y1="142.1094" y2="142.1094"/><text fill="#000000" font-family="sans-serif" font-size="13" font-weight="bold" lengthAdjust="spacing" textLength="9" x="72" y="137.3672">2</text><text fill="#000000" font-family="sans-serif" font-size="13" lengthAdjust="spacing" textLength="302" x="85" y="137.3672">requests data(name of the file and time interval)</text><polygon fill="#181818" points="382,167.4199,392,171.4199,382,175.4199,386,171.4199" style="stroke:#181818;stroke-width:1.0;"/><line style="stroke:#181818;stroke-width:1.0;" x1="55" x2="388" y1="171.4199" y2="171.4199"/><text fill="#000000" font-family="sans-serif" font-size="13" font-weight="bold" lengthAdjust="spacing" textLength="9" x="62" y="166.6777">3</text><text fill="#000000" font-family="sans-serif" font-size="13" lengthAdjust="spacing" textLength="95" x="75" y="166.6777">inputs the data</text><polygon fill="#181818" points="824,196.7305,834,200.7305,824,204.7305,828,200.7305" style="stroke:#181818;stroke-width:1.0;"/><line style="stroke:#181818;stroke-width:1.0;" x1="404" x2="830" y1="200.7305" y2="200.7305"/><text fill="#000000" font-family="sans-serif" font-size="13" font-weight="bold" lengthAdjust="spacing" textLength="9" x="411" y="195.9883">4</text><text fill="#000000" font-family="sans-serif" font-size="13" lengthAdjust="spacing" textLength="196" x="424" y="195.9883">verifyTimeInterval(timeInterval)</text><polygon fill="#181818" points="2655.5,226.041,2665.5,230.041,2655.5,234.041,2659.5,230.041" style="stroke:#181818;stroke-width:1.0;"/><line style="stroke:#181818;stroke-width:1.0;" x1="846" x2="2661.5" y1="230.041" y2="230.041"/><text fill="#000000" font-family="sans-serif" font-size="13" font-weight="bold" lengthAdjust="spacing" textLength="9" x="853" y="225.2988">5</text><text fill="#000000" font-family="sans-serif" font-size="13" lengthAdjust="spacing" textLength="123" x="866" y="225.2988">validateDate(Date1)</text><polygon fill="#181818" points="2655.5,255.3516,2665.5,259.3516,2655.5,263.3516,2659.5,259.3516" style="stroke:#181818;stroke-width:1.0;"/><line style="stroke:#181818;stroke-width:1.0;" x1="846" x2="2661.5" y1="259.3516" y2="259.3516"/><text fill="#000000" font-family="sans-serif" font-size="13" font-weight="bold" lengthAdjust="spacing" textLength="9" x="853" y="254.6094">6</text><text fill="#000000" font-family="sans-serif" font-size="13" lengthAdjust="spacing" textLength="94" x="866" y="254.6094">validate(Date2)</text><polygon fill="#181818" points="2660.5,284.6621,2670.5,288.6621,2660.5,292.6621,2664.5,288.6621" style="stroke:#181818;stroke-width:1.0;"/><line style="stroke:#181818;stroke-width:1.0;" x1="846" x2="2666.5" y1="288.6621" y2="288.6621"/><text fill="#000000" font-family="sans-serif" font-size="13" font-weight="bold" lengthAdjust="spacing" textLength="9" x="853" y="283.9199">7</text><text fill="#000000" font-family="sans-serif" font-size="13" lengthAdjust="spacing" textLength="157" x="866" y="283.9199">Date1.morerecent(Date2)</text><polygon fill="#181818" points="824,313.9727,834,317.9727,824,321.9727,828,317.9727" style="stroke:#181818;stroke-width:1.0;"/><line style="stroke:#181818;stroke-width:1.0;" x1="404" x2="830" y1="317.9727" y2="317.9727"/><text fill="#000000" font-family="sans-serif" font-size="13" font-weight="bold" lengthAdjust="spacing" textLength="9" x="411" y="313.2305">8</text><text fill="#000000" font-family="sans-serif" font-size="13" lengthAdjust="spacing" textLength="162" x="424" y="313.2305">veriftyFileName(fileName)</text><polygon fill="#181818" points="66,343.2832,56,347.2832,66,351.2832,62,347.2832" style="stroke:#181818;stroke-width:1.0;"/><line style="stroke:#181818;stroke-width:1.0;stroke-dasharray:2.0,2.0;" x1="60" x2="393" y1="347.2832" y2="347.2832"/><text fill="#000000" font-family="sans-serif" font-size="13" font-weight="bold" lengthAdjust="spacing" textLength="9" x="72" y="342.541">9</text><text fill="#000000" font-family="sans-serif" font-size="13" lengthAdjust="spacing" textLength="241" x="85" y="342.541">shows data and requests confirmation</text><polygon fill="#181818" points="382,372.5938,392,376.5938,382,380.5938,386,376.5938" style="stroke:#181818;stroke-width:1.0;"/><line style="stroke:#181818;stroke-width:1.0;" x1="55" x2="388" y1="376.5938" y2="376.5938"/><text fill="#000000" font-family="sans-serif" font-size="13" font-weight="bold" lengthAdjust="spacing" textLength="18" x="62" y="371.8516">10</text><text fill="#000000" font-family="sans-serif" font-size="13" lengthAdjust="spacing" textLength="87" x="84" y="371.8516">confirms data</text><polygon fill="#181818" points="824,401.9043,834,405.9043,824,409.9043,828,405.9043" style="stroke:#181818;stroke-width:1.0;"/><line style="stroke:#181818;stroke-width:1.0;" x1="404" x2="830" y1="405.9043" y2="405.9043"/><text fill="#000000" font-family="sans-serif" font-size="13" font-weight="bold" lengthAdjust="spacing" textLength="18" x="411" y="401.1621">11</text><text fill="#000000" font-family="sans-serif" font-size="13" lengthAdjust="spacing" textLength="386" x="433" y="401.1621">checkVaccinationStatistics(fileName,VaccinationCenterName)</text><polygon fill="#181818" points="2244.5,431.2148,2254.5,435.2148,2244.5,439.2148,2248.5,435.2148" style="stroke:#181818;stroke-width:1.0;"/><line style="stroke:#181818;stroke-width:1.0;" x1="846" x2="2250.5" y1="435.2148" y2="435.2148"/><text fill="#000000" font-family="sans-serif" font-size="13" font-weight="bold" lengthAdjust="spacing" textLength="18" x="853" y="430.4727">12</text><text fill="#000000" font-family="sans-serif" font-size="13" lengthAdjust="spacing" textLength="202" x="875" y="430.4727">getVaccineAdministrationStore()</text><polygon fill="#181818" points="2244.5,460.5254,2254.5,464.5254,2244.5,468.5254,2248.5,464.5254" style="stroke:#181818;stroke-width:1.0;"/><line style="stroke:#181818;stroke-width:1.0;" x1="846" x2="2250.5" y1="464.5254" y2="464.5254"/><text fill="#000000" font-family="sans-serif" font-size="13" font-weight="bold" lengthAdjust="spacing" textLength="18" x="853" y="459.7832">13</text><text fill="#000000" font-family="sans-serif" font-size="13" lengthAdjust="spacing" textLength="110" x="875" y="459.7832">getSnsUserStore()</text><polygon fill="#181818" points="2244.5,489.8359,2254.5,493.8359,2244.5,497.8359,2248.5,493.8359" style="stroke:#181818;stroke-width:1.0;"/><line style="stroke:#181818;stroke-width:1.0;" x1="846" x2="2250.5" y1="493.8359" y2="493.8359"/><text fill="#000000" font-family="sans-serif" font-size="13" font-weight="bold" lengthAdjust="spacing" textLength="18" x="853" y="489.0938">14</text><text fill="#000000" font-family="sans-serif" font-size="13" lengthAdjust="spacing" textLength="118" x="875" y="489.0938">getStatisticsStore()</text><polygon fill="#181818" points="2249.5,519.1465,2259.5,523.1465,2249.5,527.1465,2253.5,523.1465" style="stroke:#181818;stroke-width:1.0;"/><line style="stroke:#181818;stroke-width:1.0;" x1="846" x2="2255.5" y1="523.1465" y2="523.1465"/><text fill="#000000" font-family="sans-serif" font-size="13" font-weight="bold" lengthAdjust="spacing" textLength="18" x="853" y="518.4043">15</text><text fill="#000000" font-family="sans-serif" font-size="13" lengthAdjust="spacing" textLength="178" x="875" y="518.4043">getVaccinationCenterStore();</text><polygon fill="#181818" points="3064,548.457,3074,552.457,3064,556.457,3068,552.457" style="stroke:#181818;stroke-width:1.0;"/><line style="stroke:#181818;stroke-width:1.0;" x1="846" x2="3070" y1="552.457" y2="552.457"/><text fill="#000000" font-family="sans-serif" font-size="13" font-weight="bold" lengthAdjust="spacing" textLength="18" x="853" y="547.7148">16</text><text fill="#000000" font-family="sans-serif" font-size="13" lengthAdjust="spacing" textLength="421" x="875" y="547.7148">VaccinationCenter=findVaccinationCenter(VaccinationCenterName)</text><polygon fill="#181818" points="1443,607.7676,1453,611.7676,1443,615.7676,1447,611.7676" style="stroke:#181818;stroke-width:1.0;"/><line style="stroke:#181818;stroke-width:1.0;" x1="846" x2="1449" y1="611.7676" y2="611.7676"/><text fill="#000000" font-family="sans-serif" font-size="13" font-weight="bold" lengthAdjust="spacing" textLength="18" x="853" y="607.0254">17</text><text fill="#000000" font-family="sans-serif" font-size="13" lengthAdjust="spacing" textLength="568" x="875" y="607.0254">getFullyVaccinatedUsers(administrationstore,timeInterval,snsUserStore,VaccinationCenter)</text><path d="M1373,656.7676 L1447,656.7676 L1447,664.0781 L1437,674.0781 L1373,674.0781 L1373,656.7676 " fill="#EEEEEE" style="stroke:#000000;stroke-width:1.5;"/><rect fill="none" height="311.4844" style="stroke:#000000;stroke-width:1.5;" width="1033" x="1373" y="656.7676"/><text fill="#000000" font-family="sans-serif" font-size="13" font-weight="bold" lengthAdjust="spacing" textLength="29" x="1388" y="670.3359">loop</text><text fill="#000000" font-family="sans-serif" font-size="11" font-weight="bold" lengthAdjust="spacing" textLength="200" x="1462" y="669.4023">[Vaccineadminstrations length size]</text><path d="M1470,679.0781 L1470,704.0781 L1788,704.0781 L1788,689.0781 L1778,679.0781 L1470,679.0781 " fill="#FEFFDD" style="stroke:#181818;stroke-width:0.5;"/><path d="M1778,679.0781 L1778,689.0781 L1788,689.0781 L1778,679.0781 " fill="#FEFFDD" style="stroke:#181818;stroke-width:0.5;"/><text fill="#000000" font-family="sans-serif" font-size="13" lengthAdjust="spacing" textLength="297" x="1476" y="696.6465">Loop goes through Vaccineadministrations List</text><polygon fill="#181818" points="1988,726.6992,1998,730.6992,1988,734.6992,1992,730.6992" style="stroke:#181818;stroke-width:1.0;"/><line style="stroke:#181818;stroke-width:1.0;" x1="1465" x2="1994" y1="730.6992" y2="730.6992"/><text fill="#000000" font-family="sans-serif" font-size="13" font-weight="bold" lengthAdjust="spacing" textLength="18" x="1472" y="725.957">18</text><text fill="#000000" font-family="sans-serif" font-size="13" lengthAdjust="spacing" textLength="94" x="1494" y="725.957">date=getDate()</text><path d="M1383,775.6992 L1445,775.6992 L1445,783.0098 L1435,793.0098 L1383,793.0098 L1383,775.6992 " fill="#EEEEEE" style="stroke:#000000;stroke-width:1.5;"/><rect fill="none" height="185.5527" style="stroke:#000000;stroke-width:1.5;" width="1013" x="1383" y="775.6992"/><text fill="#000000" font-family="sans-serif" font-size="13" font-weight="bold" lengthAdjust="spacing" textLength="17" x="1398" y="789.2676">alt</text><text fill="#000000" font-family="sans-serif" font-size="11" font-weight="bold" lengthAdjust="spacing" textLength="177" x="1460" y="788.334">[date is within the timeInterval]</text><polygon fill="#181818" points="2332.5,810.3203,2342.5,814.3203,2332.5,818.3203,2336.5,814.3203" style="stroke:#181818;stroke-width:1.0;"/><line style="stroke:#181818;stroke-width:1.0;" x1="1465" x2="2338.5" y1="814.3203" y2="814.3203"/><text fill="#000000" font-family="sans-serif" font-size="13" font-weight="bold" lengthAdjust="spacing" textLength="18" x="1472" y="809.5781">19</text><text fill="#000000" font-family="sans-serif" font-size="13" lengthAdjust="spacing" textLength="150" x="1494" y="809.5781">state=getState(snsUser)</text><path d="M1393,859.3203 L1455,859.3203 L1455,866.6309 L1445,876.6309 L1393,876.6309 L1393,859.3203 " fill="#EEEEEE" style="stroke:#000000;stroke-width:1.5;"/><rect fill="none" height="94.9316" style="stroke:#000000;stroke-width:1.5;" width="555" x="1393" y="859.3203"/><text fill="#000000" font-family="sans-serif" font-size="13" font-weight="bold" lengthAdjust="spacing" textLength="17" x="1408" y="872.8887">alt</text><text fill="#000000" font-family="sans-serif" font-size="11" font-weight="bold" lengthAdjust="spacing" textLength="50" x="1470" y="871.9551">[state=1]</text><path d="M1470,881.6309 L1470,906.6309 L1938,906.6309 L1938,891.6309 L1928,881.6309 L1470,881.6309 " fill="#FEFFDD" style="stroke:#181818;stroke-width:0.5;"/><path d="M1928,881.6309 L1928,891.6309 L1938,891.6309 L1928,881.6309 " fill="#FEFFDD" style="stroke:#181818;stroke-width:0.5;"/><text fill="#000000" font-family="sans-serif" font-size="13" lengthAdjust="spacing" textLength="447" x="1476" y="899.1992">state  is 1 when the snsUser has taken all the doses/is fully vaccinated</text><line style="stroke:#181818;stroke-width:1.0;" x1="1465" x2="1507" y1="933.252" y2="933.252"/><line style="stroke:#181818;stroke-width:1.0;" x1="1507" x2="1507" y1="933.252" y2="946.252"/><line style="stroke:#181818;stroke-width:1.0;" x1="1466" x2="1507" y1="946.252" y2="946.252"/><polygon fill="#181818" points="1476,942.252,1466,946.252,1476,950.252,1472,946.252" style="stroke:#181818;stroke-width:1.0;"/><text fill="#000000" font-family="sans-serif" font-size="13" font-weight="bold" lengthAdjust="spacing" textLength="18" x="1472" y="928.5098">20</text><text fill="#000000" font-family="sans-serif" font-size="13" lengthAdjust="spacing" textLength="299" x="1494" y="928.5098">addFullyVaccinatedUser(VaccineAdministration)</text><polygon fill="#181818" points="2444,992.5625,2454,996.5625,2444,1000.5625,2448,996.5625" style="stroke:#181818;stroke-width:1.0;"/><line style="stroke:#181818;stroke-width:1.0;" x1="1465" x2="2450" y1="996.5625" y2="996.5625"/><text fill="#000000" font-family="sans-serif" font-size="13" font-weight="bold" lengthAdjust="spacing" textLength="18" x="1472" y="991.8203">21</text><text fill="#000000" font-family="sans-serif" font-size="13" lengthAdjust="spacing" textLength="306" x="1494" y="991.8203">fullyVaccinatedUserstoDto(fullyVaccinatedUsers)</text><polygon fill="#181818" points="1476,1021.873,1466,1025.873,1476,1029.873,1472,1025.873" style="stroke:#181818;stroke-width:1.0;"/><line style="stroke:#181818;stroke-width:1.0;stroke-dasharray:2.0,2.0;" x1="1470" x2="2460" y1="1025.873" y2="1025.873"/><text fill="#000000" font-family="sans-serif" font-size="13" font-weight="bold" lengthAdjust="spacing" textLength="18" x="1482" y="1021.1309">22</text><text fill="#000000" font-family="sans-serif" font-size="13" lengthAdjust="spacing" textLength="180" x="1504" y="1021.1309">Dtolist FullyVaccinatedUsers</text><polygon fill="#181818" points="857,1051.1836,847,1055.1836,857,1059.1836,853,1055.1836" style="stroke:#181818;stroke-width:1.0;"/><line style="stroke:#181818;stroke-width:1.0;stroke-dasharray:2.0,2.0;" x1="851" x2="1459" y1="1055.1836" y2="1055.1836"/><text fill="#000000" font-family="sans-serif" font-size="13" font-weight="bold" lengthAdjust="spacing" textLength="18" x="863" y="1050.4414">23</text><text fill="#000000" font-family="sans-serif" font-size="13" lengthAdjust="spacing" textLength="180" x="885" y="1050.4414">Dtolist FullyVaccinatedUsers</text><polygon fill="#181818" points="415,1080.4941,405,1084.4941,415,1088.4941,411,1084.4941" style="stroke:#181818;stroke-width:1.0;"/><line style="stroke:#181818;stroke-width:1.0;stroke-dasharray:2.0,2.0;" x1="409" x2="835" y1="1084.4941" y2="1084.4941"/><text fill="#000000" font-family="sans-serif" font-size="13" font-weight="bold" lengthAdjust="spacing" textLength="18" x="421" y="1079.752">24</text><text fill="#000000" font-family="sans-serif" font-size="13" lengthAdjust="spacing" textLength="180" x="443" y="1079.752">Dtolist FullyVaccinatedUsers</text><path d="M409,1097.4941 L409,1122.4941 L736,1122.4941 L736,1107.4941 L726,1097.4941 L409,1097.4941 " fill="#FEFFDD" style="stroke:#181818;stroke-width:0.5;"/><path d="M726,1097.4941 L726,1107.4941 L736,1107.4941 L726,1097.4941 " fill="#FEFFDD" style="stroke:#181818;stroke-width:0.5;"/><text fill="#000000" font-family="sans-serif" font-size="13" lengthAdjust="spacing" textLength="306" x="415" y="1115.0625">Loop goes through DtoList FullyVaccinatedUsers</text><polygon fill="#181818" points="2575,1145.1152,2585,1149.1152,2575,1153.1152,2579,1149.1152" style="stroke:#181818;stroke-width:1.0;"/><line style="stroke:#181818;stroke-width:1.0;" x1="404" x2="2581" y1="1149.1152" y2="1149.1152"/><text fill="#000000" font-family="sans-serif" font-size="13" font-weight="bold" lengthAdjust="spacing" textLength="18" x="411" y="1144.373">25</text><text fill="#000000" font-family="sans-serif" font-size="13" lengthAdjust="spacing" textLength="216" x="433" y="1144.373">UserNumber=getSnsUserNumber()</text><polygon fill="#181818" points="66,1174.4258,56,1178.4258,66,1182.4258,62,1178.4258" style="stroke:#181818;stroke-width:1.0;"/><line style="stroke:#181818;stroke-width:1.0;stroke-dasharray:2.0,2.0;" x1="60" x2="393" y1="1178.4258" y2="1178.4258"/><text fill="#000000" font-family="sans-serif" font-size="13" font-weight="bold" lengthAdjust="spacing" textLength="18" x="72" y="1173.6836">26</text><text fill="#000000" font-family="sans-serif" font-size="13" lengthAdjust="spacing" textLength="191" x="94" y="1173.6836">displays Vaccination Statistics</text><polygon fill="#181818" points="824,1203.7363,834,1207.7363,824,1211.7363,828,1207.7363" style="stroke:#181818;stroke-width:1.0;"/><line style="stroke:#181818;stroke-width:1.0;" x1="404" x2="830" y1="1207.7363" y2="1207.7363"/><text fill="#000000" font-family="sans-serif" font-size="13" font-weight="bold" lengthAdjust="spacing" textLength="18" x="411" y="1202.9941">27</text><text fill="#000000" font-family="sans-serif" font-size="13" lengthAdjust="spacing" textLength="360" x="433" y="1202.9941">exportVaccinationStatistics(Dtolist FullyVaccinatedUsers)</text><polygon fill="#181818" points="415,1233.0469,405,1237.0469,415,1241.0469,411,1237.0469" style="stroke:#181818;stroke-width:1.0;"/><line style="stroke:#181818;stroke-width:1.0;stroke-dasharray:2.0,2.0;" x1="409" x2="840" y1="1237.0469" y2="1237.0469"/><text fill="#000000" font-family="sans-serif" font-size="13" font-weight="bold" lengthAdjust="spacing" textLength="18" x="421" y="1232.3047">28</text><text fill="#000000" font-family="sans-serif" font-size="13" lengthAdjust="spacing" textLength="36" x="443" y="1232.3047">result</text><polygon fill="#181818" points="61,1262.3574,51,1266.3574,61,1270.3574,57,1266.3574" style="stroke:#181818;stroke-width:1.0;"/><line style="stroke:#181818;stroke-width:1.0;stroke-dasharray:2.0,2.0;" x1="55" x2="398" y1="1266.3574" y2="1266.3574"/><text fill="#000000" font-family="sans-serif" font-size="13" font-weight="bold" lengthAdjust="spacing" textLength="18" x="67" y="1261.6152">29</text><text fill="#000000" font-family="sans-serif" font-size="13" lengthAdjust="spacing" textLength="167" x="89" y="1261.6152">informs operation success</text><!--MD5=[58937f0a6f96013097c5449c3ce3767c]
@startuml
'https://plantuml.com/sequence-diagram

autonumber

actor "Coordinator" as coordinator

participant ":StatisticsUI" as ui
participant ":StatisticsController" as controller

participant ":StatisticsStore" as statisticsstore
participant ":VaccineAdministrationStore" as administrationstore
participant ":VaccineAdministration" as administration
participant ":SnsUserStore" as userStore
participant ":Company" as company
participant ":SnsUser" as user
participant ":StatisticsMapper" as mapper
participant ":StatisticsDto" as statisticsdto
participant ":Date" as Date
participant ":VaccinationCenterStore" as VacCenterstore
participant ":ScheduleStore" as scheduleStore

activate coordinator
coordinator->ui:requests to check/export vaccination statistics
activate ui
ui- ->coordinator:requests data(name of the file and time interval)
coordinator->ui:inputs the data
ui->controller:verifyTimeInterval(timeInterval)
activate controller
controller->Date:validateDate(Date1)
activate Date
controller->Date:validate(Date2)
controller->Date:Date1.morerecent(Date2)
deactivate Date
ui->controller:veriftyFileName(fileName)
ui- ->coordinator:shows data and requests confirmation
coordinator->ui:confirms data
ui->controller:checkVaccinationStatistics(fileName,VaccinationCenterName)
controller->company:getVaccineAdministrationStore()
activate company
controller->company:getSnsUserStore()
controller->company:getStatisticsStore()
controller->company:getVaccinationCenterStore();
deactivate company
controller->vacCenterStore:VaccinationCenter=findVaccinationCenter(VaccinationCenterName)
activate vacCenterStore
deactivate vacCenterStore
controller->statisticsstore:getFullyVaccinatedUsers(administrationstore,timeInterval,snsUserStore,VaccinationCenter)
activate administrationstore
deactivate administrationstore
activate statisticsstore
loop #Yellow Vaccineadminstrations length size
note right statisticsstore
Loop goes through Vaccineadministrations List
end note
statisticsstore->administration:date=getDate()
activate administration
deactivate administration
alt #Silver date is within the timeInterval
statisticsstore->user:state=getState(snsUser)
activate user
deactivate user
alt #SeaGreen state=1
note right statisticsstore
state  is 1 when the snsUser has taken all the doses/is fully vaccinated
end note
statisticsstore->statisticsstore:addFullyVaccinatedUser(VaccineAdministration)
end
end
end
statisticsstore->mapper:fullyVaccinatedUserstoDto(fullyVaccinatedUsers)
activate mapper
mapper- ->statisticsstore:Dtolist FullyVaccinatedUsers
deactivate mapper
statisticsstore- ->controller: Dtolist FullyVaccinatedUsers
deactivate statisticsstore
controller- ->ui:Dtolist FullyVaccinatedUsers

note right ui
Loop goes through DtoList FullyVaccinatedUsers
end note
ui->statisticsdto:UserNumber=getSnsUserNumber()

ui- ->coordinator:displays Vaccination Statistics
ui->controller:exportVaccinationStatistics(Dtolist FullyVaccinatedUsers)

controller- ->ui:result
deactivate controller
ui- ->coordinator:informs operation success
deactivate ui
deactivate statisticsstore
deactivate coordinator

@enduml

@startuml

autonumber

actor "Coordinator" as coordinator

participant ":StatisticsUI" as ui
participant ":StatisticsController" as controller

participant ":StatisticsStore" as statisticsstore
participant ":VaccineAdministrationStore" as administrationstore
participant ":VaccineAdministration" as administration
participant ":SnsUserStore" as userStore
participant ":Company" as company
participant ":SnsUser" as user
participant ":StatisticsMapper" as mapper
participant ":StatisticsDto" as statisticsdto
participant ":Date" as Date
participant ":VaccinationCenterStore" as VacCenterstore
participant ":ScheduleStore" as scheduleStore

activate coordinator
coordinator->ui:requests to check/export vaccination statistics
activate ui
ui- ->coordinator:requests data(name of the file and time interval)
coordinator->ui:inputs the data
ui->controller:verifyTimeInterval(timeInterval)
activate controller
controller->Date:validateDate(Date1)
activate Date
controller->Date:validate(Date2)
controller->Date:Date1.morerecent(Date2)
deactivate Date
ui->controller:veriftyFileName(fileName)
ui- ->coordinator:shows data and requests confirmation
coordinator->ui:confirms data
ui->controller:checkVaccinationStatistics(fileName,VaccinationCenterName)
controller->company:getVaccineAdministrationStore()
activate company
controller->company:getSnsUserStore()
controller->company:getStatisticsStore()
controller->company:getVaccinationCenterStore();
deactivate company
controller->vacCenterStore:VaccinationCenter=findVaccinationCenter(VaccinationCenterName)
activate vacCenterStore
deactivate vacCenterStore
controller->statisticsstore:getFullyVaccinatedUsers(administrationstore,timeInterval,snsUserStore,VaccinationCenter)
activate administrationstore
deactivate administrationstore
activate statisticsstore
loop #Yellow Vaccineadminstrations length size
note right statisticsstore
Loop goes through Vaccineadministrations List
end note
statisticsstore->administration:date=getDate()
activate administration
deactivate administration
alt #Silver date is within the timeInterval
statisticsstore->user:state=getState(snsUser)
activate user
deactivate user
alt #SeaGreen state=1
note right statisticsstore
state  is 1 when the snsUser has taken all the doses/is fully vaccinated
end note
statisticsstore->statisticsstore:addFullyVaccinatedUser(VaccineAdministration)
end
end
end
statisticsstore->mapper:fullyVaccinatedUserstoDto(fullyVaccinatedUsers)
activate mapper
mapper- ->statisticsstore:Dtolist FullyVaccinatedUsers
deactivate mapper
statisticsstore- ->controller: Dtolist FullyVaccinatedUsers
deactivate statisticsstore
controller- ->ui:Dtolist FullyVaccinatedUsers

note right ui
Loop goes through DtoList FullyVaccinatedUsers
end note
ui->statisticsdto:UserNumber=getSnsUserNumber()

ui- ->coordinator:displays Vaccination Statistics
ui->controller:exportVaccinationStatistics(Dtolist FullyVaccinatedUsers)

controller- ->ui:result
deactivate controller
ui- ->coordinator:informs operation success
deactivate ui
deactivate statisticsstore
deactivate coordinator

@enduml

PlantUML version 1.2022.4(Sat Apr 09 14:29:17 WEST 2022)
(GPL source distribution)
Java Runtime: OpenJDK Runtime Environment
JVM: OpenJDK 64-Bit Server VM
Default Encoding: UTF-8
Language: pt
Country: PT
--></g></svg>