<?xml version="1.0" encoding="UTF-8" standalone="no"?><svg xmlns="http://www.w3.org/2000/svg" xmlns:xlink="http://www.w3.org/1999/xlink" contentStyleType="text/css" height="429px" preserveAspectRatio="none" style="width:719px;height:429px;background:#FFFFFF;" version="1.1" viewBox="0 0 719 429" width="719px" zoomAndPan="magnify"><defs/><g><rect fill="#FFFFFF" height="239.4844" style="stroke:#181818;stroke-width:1.0;" width="10" x="70" y="91.4883"/><rect fill="#FFFFFF" height="29.3105" style="stroke:#181818;stroke-width:1.0;" width="10" x="419" y="112.7988"/><rect fill="#FFFFFF" height="29.3105" style="stroke:#181818;stroke-width:1.0;" width="10" x="419" y="171.4199"/><rect fill="#FFFFFF" height="100.9316" style="stroke:#181818;stroke-width:1.0;" width="10" x="419" y="230.041"/><line style="stroke:#181818;stroke-width:0.5;stroke-dasharray:5.0,5.0;" x1="75" x2="75" y1="81.4883" y2="348.9727"/><line style="stroke:#181818;stroke-width:0.5;stroke-dasharray:5.0,5.0;" x1="424" x2="424" y1="81.4883" y2="348.9727"/><text fill="#000000" font-family="sans-serif" font-size="14" lengthAdjust="spacing" textLength="134" x="5" y="78.5352">Center Coordinator</text><ellipse cx="75" cy="13.5" fill="#E2E2F0" rx="8" ry="8" style="stroke:#181818;stroke-width:0.5;"/><path d="M75,21.5 L75,48.5 M62,29.5 L88,29.5 M75,48.5 L62,63.5 M75,48.5 L88,63.5 " fill="none" style="stroke:#181818;stroke-width:0.5;"/><text fill="#000000" font-family="sans-serif" font-size="14" lengthAdjust="spacing" textLength="134" x="5" y="361.5078">Center Coordinator</text><ellipse cx="75" cy="372.9609" fill="#E2E2F0" rx="8" ry="8" style="stroke:#181818;stroke-width:0.5;"/><path d="M75,380.9609 L75,407.9609 M62,388.9609 L88,388.9609 M75,407.9609 L62,422.9609 M75,407.9609 L88,422.9609 " fill="none" style="stroke:#181818;stroke-width:0.5;"/><rect fill="#E2E2F0" height="30.4883" rx="2.5" ry="2.5" style="stroke:#181818;stroke-width:0.5;" width="66" x="391" y="50"/><text fill="#000000" font-family="sans-serif" font-size="14" lengthAdjust="spacing" textLength="52" x="398" y="70.5352">:System</text><rect fill="#E2E2F0" height="30.4883" rx="2.5" ry="2.5" style="stroke:#181818;stroke-width:0.5;" width="66" x="391" y="347.9727"/><text fill="#000000" font-family="sans-serif" font-size="14" lengthAdjust="spacing" textLength="52" x="398" y="368.5078">:System</text><rect fill="#FFFFFF" height="239.4844" style="stroke:#181818;stroke-width:1.0;" width="10" x="70" y="91.4883"/><rect fill="#FFFFFF" height="29.3105" style="stroke:#181818;stroke-width:1.0;" width="10" x="419" y="112.7988"/><rect fill="#FFFFFF" height="29.3105" style="stroke:#181818;stroke-width:1.0;" width="10" x="419" y="171.4199"/><rect fill="#FFFFFF" height="100.9316" style="stroke:#181818;stroke-width:1.0;" width="10" x="419" y="230.041"/><polygon fill="#181818" points="407,108.7988,417,112.7988,407,116.7988,411,112.7988" style="stroke:#181818;stroke-width:1.0;"/><line style="stroke:#181818;stroke-width:1.0;" x1="80" x2="413" y1="112.7988" y2="112.7988"/><text fill="#000000" font-family="sans-serif" font-size="13" font-weight="bold" lengthAdjust="spacing" textLength="9" x="87" y="108.0566">1</text><text fill="#000000" font-family="sans-serif" font-size="13" lengthAdjust="spacing" textLength="298" x="100" y="108.0566">requests to check/export vaccination statistics</text><polygon fill="#181818" points="91,138.1094,81,142.1094,91,146.1094,87,142.1094" style="stroke:#181818;stroke-width:1.0;"/><line style="stroke:#181818;stroke-width:1.0;stroke-dasharray:2.0,2.0;" x1="85" x2="423" y1="142.1094" y2="142.1094"/><text fill="#000000" font-family="sans-serif" font-size="13" font-weight="bold" lengthAdjust="spacing" textLength="9" x="97" y="137.3672">2</text><text fill="#000000" font-family="sans-serif" font-size="13" lengthAdjust="spacing" textLength="302" x="110" y="137.3672">requests data(name of the file and time interval)</text><polygon fill="#181818" points="407,167.4199,417,171.4199,407,175.4199,411,171.4199" style="stroke:#181818;stroke-width:1.0;"/><line style="stroke:#181818;stroke-width:1.0;" x1="80" x2="413" y1="171.4199" y2="171.4199"/><text fill="#000000" font-family="sans-serif" font-size="13" font-weight="bold" lengthAdjust="spacing" textLength="9" x="87" y="166.6777">3</text><text fill="#000000" font-family="sans-serif" font-size="13" lengthAdjust="spacing" textLength="95" x="100" y="166.6777">inputs the data</text><polygon fill="#181818" points="91,196.7305,81,200.7305,91,204.7305,87,200.7305" style="stroke:#181818;stroke-width:1.0;"/><line style="stroke:#181818;stroke-width:1.0;stroke-dasharray:2.0,2.0;" x1="85" x2="423" y1="200.7305" y2="200.7305"/><text fill="#000000" font-family="sans-serif" font-size="13" font-weight="bold" lengthAdjust="spacing" textLength="9" x="97" y="195.9883">4</text><text fill="#000000" font-family="sans-serif" font-size="13" lengthAdjust="spacing" textLength="262" x="110" y="195.9883">shows the data and asks for confirmation</text><polygon fill="#181818" points="407,226.041,417,230.041,407,234.041,411,230.041" style="stroke:#181818;stroke-width:1.0;"/><line style="stroke:#181818;stroke-width:1.0;" x1="80" x2="413" y1="230.041" y2="230.041"/><text fill="#000000" font-family="sans-serif" font-size="13" font-weight="bold" lengthAdjust="spacing" textLength="9" x="87" y="225.2988">5</text><text fill="#000000" font-family="sans-serif" font-size="13" lengthAdjust="spacing" textLength="202" x="100" y="225.2988">confirms/denys the information</text><polygon fill="#181818" points="91,255.3516,81,259.3516,91,263.3516,87,259.3516" style="stroke:#181818;stroke-width:1.0;"/><line style="stroke:#181818;stroke-width:1.0;stroke-dasharray:2.0,2.0;" x1="85" x2="418" y1="259.3516" y2="259.3516"/><text fill="#000000" font-family="sans-serif" font-size="13" font-weight="bold" lengthAdjust="spacing" textLength="9" x="97" y="254.6094">6</text><text fill="#000000" font-family="sans-serif" font-size="13" lengthAdjust="spacing" textLength="190" x="110" y="254.6094">displays vaccination statistics</text><line style="stroke:#181818;stroke-width:1.0;stroke-dasharray:2.0,2.0;" x1="429" x2="471" y1="288.6621" y2="288.6621"/><line style="stroke:#181818;stroke-width:1.0;stroke-dasharray:2.0,2.0;" x1="471" x2="471" y1="288.6621" y2="301.6621"/><line style="stroke:#181818;stroke-width:1.0;stroke-dasharray:2.0,2.0;" x1="430" x2="471" y1="301.6621" y2="301.6621"/><polygon fill="#181818" points="440,297.6621,430,301.6621,440,305.6621,436,301.6621" style="stroke:#181818;stroke-width:1.0;"/><text fill="#000000" font-family="sans-serif" font-size="13" font-weight="bold" lengthAdjust="spacing" textLength="9" x="436" y="283.9199">7</text><text fill="#000000" font-family="sans-serif" font-size="13" lengthAdjust="spacing" textLength="263" x="449" y="283.9199">exports vaccination statistics to a csv file</text><polygon fill="#181818" points="86,326.9727,76,330.9727,86,334.9727,82,330.9727" style="stroke:#181818;stroke-width:1.0;"/><line style="stroke:#181818;stroke-width:1.0;stroke-dasharray:2.0,2.0;" x1="80" x2="423" y1="330.9727" y2="330.9727"/><text fill="#000000" font-family="sans-serif" font-size="13" font-weight="bold" lengthAdjust="spacing" textLength="9" x="92" y="326.2305">8</text><text fill="#000000" font-family="sans-serif" font-size="13" lengthAdjust="spacing" textLength="209" x="105" y="326.2305">informs success/failure message</text><!--MD5=[c1a613cf9fe2e0d2d90aaa36ad98d919]
@startuml
autonumber
actor "Center Coordinator" as coordinator

activate coordinator
coordinator -> ":System" : requests to check/export vaccination statistics
activate ":System"
":System" - -> coordinator : requests data(name of the file and time interval)
deactivate ":System"
coordinator -> ":System" :inputs the data
activate ":System"
":System" - -> coordinator : shows the data and asks for confirmation
deactivate ":System"
coordinator -> ":System" :confirms/denys the information
activate ":System"
":System" - -> coordinator : displays vaccination statistics

":System" - ->":System" : exports vaccination statistics to a csv file
":System" - -> coordinator : informs success/failure message
deactivate ":System"
deactivate coordinator
@enduml

PlantUML version 1.2022.4(Sat Apr 09 14:29:17 WEST 2022)
(GPL source distribution)
Java Runtime: OpenJDK Runtime Environment
JVM: OpenJDK 64-Bit Server VM
Default Encoding: UTF-8
Language: pt
Country: PT
--></g></svg>